M48
;DRILL file {KiCad 4.0.4-stable} date 03/13/17 09:42:42
;FORMAT={-:-/ absolute / inch / decimal}
FMAT,2
INCH,TZ
T1C0.016
T2C0.031
T3C0.035
T4C0.039
T5C0.040
T6C0.052
T7C0.059
T8C0.118
%
G90
G05
M72
T1
X4.34Y-5.08
X4.36Y-4.48
X4.36Y-5.68
X4.5Y-4.1
X4.5Y-4.7
X4.5Y-5.3
X4.52Y-4.4
X4.52Y-5.
X4.52Y-5.6
X5.Y-4.54
X5.06Y-4.36
X5.4Y-4.46
X5.46Y-4.36
X5.5Y-5.6
X5.64Y-4.36
X5.72Y-4.88
X5.74Y-4.4
T2
X4.64Y-4.26
X4.7Y-4.36
X5.4Y-4.0904
X5.4Y-4.24
T3
X5.5Y-4.6
X5.5Y-4.7
X5.5Y-4.8
X5.5Y-4.9
X5.6Y-4.6
X5.6Y-4.7
X5.6Y-4.8
X5.6Y-4.9
T4
X4.7Y-4.5
X4.7Y-4.6
X4.7Y-4.7
X4.7Y-4.8
X4.7Y-4.9
X4.7Y-5.
X4.7Y-5.1
X4.7Y-5.2
X4.7Y-5.3
X4.7Y-5.4
X4.7Y-5.5
X4.7Y-5.6
X5.2Y-4.75
X5.2Y-4.85
X5.2Y-5.15
X5.2Y-5.25
X5.3Y-4.5
X5.3Y-4.6
X5.3Y-4.7
X5.3Y-4.8
X5.3Y-4.9
X5.3Y-5.
X5.3Y-5.1
X5.3Y-5.2
X5.3Y-5.3
X5.3Y-5.4
X5.3Y-5.5
X5.3Y-5.6
T5
X4.85Y-4.9
X4.85Y-5.1
X4.95Y-4.9
X4.95Y-5.1
X5.05Y-4.9
X5.05Y-5.1
X5.4Y-5.5
X5.5Y-5.1
X5.5Y-5.3
X5.5Y-5.5
X5.6Y-5.1
X5.6Y-5.3
X5.6Y-5.5
X5.7Y-5.1
X5.7Y-5.3
X5.7Y-5.5
T6
X4.1Y-4.0031
X4.1Y-4.2
X4.1Y-4.6031
X4.1Y-4.8
X4.1Y-5.2031
X4.1Y-5.4
X4.9Y-4.1
X5.0969Y-4.1
T7
X4.3Y-4.
X4.3Y-5.2
X4.3Y-4.6
X4.5201Y-4.4999
X4.5201Y-5.0999
X4.5401Y-5.6999
T8
X4.725Y-4.05
X4.9Y-5.65
X5.65Y-4.05
X5.65Y-5.65
T0
M30
