G04 #@! TF.FileFunction,Soldermask,Top*
%FSLAX46Y46*%
G04 Gerber Fmt 4.6, Leading zero omitted, Abs format (unit mm)*
G04 Created by KiCad (PCBNEW 4.0.4-stable) date 03/13/17 09:42:38*
%MOMM*%
%LPD*%
G01*
G04 APERTURE LIST*
%ADD10C,0.100000*%
%ADD11C,2.400000*%
%ADD12R,1.400000X2.000000*%
%ADD13R,2.000000X1.400000*%
%ADD14R,1.650000X1.400000*%
%ADD15R,1.300000X2.100000*%
%ADD16R,4.057600X2.432000*%
%ADD17R,1.416000X2.432000*%
%ADD18R,1.200100X1.200100*%
%ADD19R,2.127200X2.127200*%
%ADD20O,2.127200X2.127200*%
%ADD21R,1.400000X1.650000*%
%ADD22R,1.700000X1.700000*%
%ADD23C,1.700000*%
%ADD24C,2.940000*%
%ADD25R,2.940000X2.400000*%
%ADD26R,1.310000X1.620000*%
%ADD27R,1.950000X1.000000*%
%ADD28R,1.575000X1.575000*%
%ADD29R,2.000000X6.100000*%
%ADD30R,2.127200X2.432000*%
%ADD31O,2.127200X2.432000*%
G04 APERTURE END LIST*
D10*
D11*
X119380000Y-114300000D03*
X119380000Y-116840000D03*
X119380000Y-119380000D03*
X119380000Y-121920000D03*
X119380000Y-124460000D03*
X119380000Y-127000000D03*
X119380000Y-129540000D03*
X119380000Y-132080000D03*
X119380000Y-134620000D03*
X119380000Y-137160000D03*
X119380000Y-139700000D03*
X119380000Y-142240000D03*
X134620000Y-142240000D03*
X134620000Y-139700000D03*
X134620000Y-137160000D03*
X134620000Y-134620000D03*
X134620000Y-132080000D03*
X134620000Y-129540000D03*
X134620000Y-127000000D03*
X134620000Y-124460000D03*
X134620000Y-121920000D03*
X134620000Y-119380000D03*
X134620000Y-116840000D03*
X134620000Y-114300000D03*
X132080000Y-120650000D03*
X132080000Y-123190000D03*
X132080000Y-133350000D03*
X132080000Y-130810000D03*
D12*
X124055000Y-111125000D03*
X121055000Y-111125000D03*
D13*
X125984000Y-136676000D03*
X125984000Y-139676000D03*
X145415000Y-125325000D03*
X145415000Y-122325000D03*
D14*
X144780000Y-110760000D03*
X144780000Y-112760000D03*
D15*
X126820000Y-111125000D03*
X129720000Y-111125000D03*
X131265000Y-111125000D03*
X134165000Y-111125000D03*
D16*
X127000000Y-120142000D03*
D17*
X127000000Y-113538000D03*
X124714000Y-113538000D03*
X129286000Y-113538000D03*
D18*
X139385000Y-112760760D03*
X141285000Y-112760760D03*
X140335000Y-110761780D03*
D19*
X139700000Y-124460000D03*
D20*
X142240000Y-124460000D03*
X139700000Y-121920000D03*
X142240000Y-121920000D03*
X139700000Y-119380000D03*
X142240000Y-119380000D03*
X139700000Y-116840000D03*
X142240000Y-116840000D03*
D21*
X108728000Y-134620000D03*
X110728000Y-134620000D03*
X108728000Y-119380000D03*
X110728000Y-119380000D03*
X108728000Y-104140000D03*
X110728000Y-104140000D03*
X109236000Y-142240000D03*
X111236000Y-142240000D03*
X109236000Y-127000000D03*
X111236000Y-127000000D03*
X109236000Y-111760000D03*
X111236000Y-111760000D03*
D22*
X119380000Y-110744000D03*
D23*
X117856000Y-108204000D03*
D24*
X109220000Y-132080001D03*
D25*
X115317953Y-144777463D03*
D24*
X109220001Y-116840000D03*
D25*
X114809953Y-129537463D03*
D24*
X109220000Y-101600001D03*
D25*
X114809953Y-114297463D03*
D26*
X109109000Y-144272000D03*
X112379000Y-144272000D03*
X109109000Y-129032000D03*
X112379000Y-129032000D03*
X109109000Y-113792000D03*
X112379000Y-113792000D03*
D15*
X116258000Y-142240000D03*
X113358000Y-142240000D03*
X116258000Y-127000000D03*
X113358000Y-127000000D03*
X116258000Y-111760000D03*
X113358000Y-111760000D03*
X115750000Y-134620000D03*
X112850000Y-134620000D03*
X115750000Y-119380000D03*
X112850000Y-119380000D03*
X115750000Y-104140000D03*
X112850000Y-104140000D03*
D27*
X114968000Y-125349000D03*
X114968000Y-124079000D03*
X114968000Y-122809000D03*
X114968000Y-121539000D03*
X109568000Y-121539000D03*
X109568000Y-122809000D03*
X109568000Y-124079000D03*
X109568000Y-125349000D03*
D28*
X111680500Y-122856500D03*
X111680500Y-124031500D03*
X112855500Y-122856500D03*
X112855500Y-124031500D03*
D27*
X114968000Y-110109000D03*
X114968000Y-108839000D03*
X114968000Y-107569000D03*
X114968000Y-106299000D03*
X109568000Y-106299000D03*
X109568000Y-107569000D03*
X109568000Y-108839000D03*
X109568000Y-110109000D03*
D28*
X111680500Y-107616500D03*
X111680500Y-108791500D03*
X112855500Y-107616500D03*
X112855500Y-108791500D03*
D27*
X114968000Y-140589000D03*
X114968000Y-139319000D03*
X114968000Y-138049000D03*
X114968000Y-136779000D03*
X109568000Y-136779000D03*
X109568000Y-138049000D03*
X109568000Y-139319000D03*
X109568000Y-140589000D03*
D28*
X111680500Y-138096500D03*
X111680500Y-139271500D03*
X112855500Y-138096500D03*
X112855500Y-139271500D03*
D29*
X107506000Y-142240000D03*
X102806000Y-142240000D03*
D23*
X137160000Y-107696000D03*
D22*
X137160000Y-103896000D03*
D29*
X107506000Y-127000000D03*
X102806000Y-127000000D03*
X107506000Y-111760000D03*
X102806000Y-111760000D03*
D30*
X123190000Y-124460000D03*
D31*
X125730000Y-124460000D03*
X128270000Y-124460000D03*
D30*
X123190000Y-129540000D03*
D31*
X125730000Y-129540000D03*
X128270000Y-129540000D03*
D30*
X137160000Y-139700000D03*
D31*
X139700000Y-139700000D03*
X142240000Y-139700000D03*
X144780000Y-139700000D03*
D30*
X139700000Y-129540000D03*
D31*
X142240000Y-129540000D03*
X144780000Y-129540000D03*
D30*
X139700000Y-134620000D03*
D31*
X142240000Y-134620000D03*
X144780000Y-134620000D03*
M02*
