G04 #@! TF.FileFunction,Copper,L2,Bot,Signal*
%FSLAX46Y46*%
G04 Gerber Fmt 4.6, Leading zero omitted, Abs format (unit mm)*
G04 Created by KiCad (PCBNEW 4.0.4-stable) date 03/13/17 09:42:38*
%MOMM*%
%LPD*%
G01*
G04 APERTURE LIST*
%ADD10C,0.100000*%
%ADD11C,2.000000*%
%ADD12R,2.032000X2.032000*%
%ADD13R,1.727200X1.727200*%
%ADD14O,1.727200X1.727200*%
%ADD15R,1.300000X1.300000*%
%ADD16C,1.300000*%
%ADD17C,2.540000*%
%ADD18R,2.540000X2.000000*%
%ADD19R,1.981200X3.962400*%
%ADD20O,1.981200X3.962400*%
%ADD21O,3.962400X1.981200*%
%ADD22R,1.727200X2.032000*%
%ADD23O,1.727200X2.032000*%
%ADD24C,0.600000*%
%ADD25C,0.900000*%
%ADD26C,0.600000*%
%ADD27C,0.250000*%
%ADD28C,0.254000*%
G04 APERTURE END LIST*
D10*
D11*
X119380000Y-114300000D03*
X119380000Y-116840000D03*
X119380000Y-119380000D03*
X119380000Y-121920000D03*
X119380000Y-124460000D03*
X119380000Y-127000000D03*
X119380000Y-129540000D03*
X119380000Y-132080000D03*
X119380000Y-134620000D03*
X119380000Y-137160000D03*
X119380000Y-139700000D03*
X119380000Y-142240000D03*
X134620000Y-142240000D03*
X134620000Y-139700000D03*
X134620000Y-137160000D03*
X134620000Y-134620000D03*
X134620000Y-132080000D03*
X134620000Y-129540000D03*
X134620000Y-127000000D03*
X134620000Y-124460000D03*
X134620000Y-121920000D03*
X134620000Y-119380000D03*
X134620000Y-116840000D03*
X134620000Y-114300000D03*
X132080000Y-120650000D03*
X132080000Y-123190000D03*
X132080000Y-133350000D03*
X132080000Y-130810000D03*
D12*
X141224000Y-111760000D03*
X143764000Y-111760000D03*
D13*
X139700000Y-124460000D03*
D14*
X142240000Y-124460000D03*
X139700000Y-121920000D03*
X142240000Y-121920000D03*
X139700000Y-119380000D03*
X142240000Y-119380000D03*
X139700000Y-116840000D03*
X142240000Y-116840000D03*
D15*
X119380000Y-110744000D03*
D16*
X117856000Y-108204000D03*
D17*
X109220000Y-132080001D03*
D18*
X115317953Y-144777463D03*
D17*
X109220001Y-116840000D03*
D18*
X114809953Y-129537463D03*
D17*
X109220000Y-101600001D03*
D18*
X114809953Y-114297463D03*
D16*
X137160000Y-107696000D03*
D15*
X137160000Y-103896000D03*
D19*
X124460000Y-104140000D03*
D20*
X129460000Y-104140000D03*
D21*
X104140000Y-137160000D03*
X104140000Y-132160000D03*
X104140000Y-106680000D03*
X104140000Y-101680000D03*
X104140000Y-121920000D03*
X104140000Y-116920000D03*
D22*
X123190000Y-124460000D03*
D23*
X125730000Y-124460000D03*
X128270000Y-124460000D03*
D22*
X123190000Y-129540000D03*
D23*
X125730000Y-129540000D03*
X128270000Y-129540000D03*
D22*
X137160000Y-139700000D03*
D23*
X139700000Y-139700000D03*
X142240000Y-139700000D03*
X144780000Y-139700000D03*
D22*
X139700000Y-129540000D03*
D23*
X142240000Y-129540000D03*
X144780000Y-129540000D03*
D22*
X139700000Y-134620000D03*
D23*
X142240000Y-134620000D03*
X144780000Y-134620000D03*
D24*
X114808000Y-111760000D03*
X114808000Y-127000000D03*
X114808000Y-142240000D03*
X128524000Y-110744000D03*
X138684000Y-110744000D03*
X127000000Y-115316000D03*
X145796000Y-111760000D03*
X145288000Y-123952000D03*
X143256000Y-110744000D03*
X137160000Y-113284000D03*
X110744000Y-144272000D03*
X110236000Y-129032000D03*
X110744000Y-113792000D03*
X139700000Y-142240000D03*
X114300000Y-134620000D03*
X114300000Y-104140000D03*
X114300000Y-119380000D03*
D25*
X114808000Y-111760000D02*
X116332000Y-111760000D01*
X114808000Y-127000000D02*
X117348000Y-127000000D01*
X117856000Y-108204000D02*
X117348000Y-108204000D01*
X117348000Y-108204000D02*
X116332000Y-109220000D01*
X116332000Y-142240000D02*
X114808000Y-142240000D01*
X117348000Y-141224000D02*
X116332000Y-142240000D01*
X117348000Y-112776000D02*
X117348000Y-127000000D01*
X117348000Y-127000000D02*
X117348000Y-141224000D01*
X116332000Y-111760000D02*
X117348000Y-112776000D01*
X116332000Y-109220000D02*
X116332000Y-111760000D01*
X119380000Y-110744000D02*
X120904000Y-110744000D01*
X124460000Y-107188000D02*
X124460000Y-104140000D01*
X120904000Y-110744000D02*
X124460000Y-107188000D01*
D26*
X141224000Y-111760000D02*
X139700000Y-111760000D01*
X139700000Y-111760000D02*
X138684000Y-110744000D01*
X138684000Y-110744000D02*
X128524000Y-110744000D01*
X125730000Y-124460000D02*
X125730000Y-116586000D01*
X125730000Y-116586000D02*
X127000000Y-115316000D01*
X139700000Y-139700000D02*
X139700000Y-137160000D01*
X144780000Y-134620000D02*
X144780000Y-129540000D01*
X134620000Y-134620000D02*
X135890000Y-134620000D01*
X144780000Y-135890000D02*
X144780000Y-134620000D01*
X143510000Y-137160000D02*
X144780000Y-135890000D01*
X138430000Y-137160000D02*
X139700000Y-137160000D01*
X139700000Y-137160000D02*
X143510000Y-137160000D01*
X135890000Y-134620000D02*
X138430000Y-137160000D01*
X145796000Y-112776000D02*
X145796000Y-111760000D01*
X145796000Y-112776000D02*
X144780000Y-111760000D01*
X145796000Y-123444000D02*
X145796000Y-112776000D01*
X145288000Y-123952000D02*
X145796000Y-123444000D01*
X144780000Y-111760000D02*
X143764000Y-111760000D01*
X143764000Y-111760000D02*
X143764000Y-111252000D01*
X143764000Y-111252000D02*
X143256000Y-110744000D01*
D27*
X137160000Y-113284000D02*
X136144000Y-113284000D01*
X136144000Y-113284000D02*
X135255000Y-112395000D01*
X133985000Y-112395000D02*
X135255000Y-112395000D01*
X130810000Y-114300000D02*
X132080000Y-114300000D01*
X132080000Y-114300000D02*
X133985000Y-112395000D01*
X119380000Y-114300000D02*
X130810000Y-114300000D01*
X134620000Y-121920000D02*
X135890000Y-121920000D01*
X138430000Y-119380000D02*
X139700000Y-119380000D01*
X135890000Y-121920000D02*
X138430000Y-119380000D01*
X142240000Y-119380000D02*
X140970000Y-118110000D01*
X135890000Y-119380000D02*
X134620000Y-119380000D01*
X137160000Y-118110000D02*
X135890000Y-119380000D01*
X140970000Y-118110000D02*
X137160000Y-118110000D01*
X134620000Y-116840000D02*
X139700000Y-116840000D01*
X134620000Y-114300000D02*
X143510000Y-114300000D01*
X143510000Y-121920000D02*
X142240000Y-121920000D01*
X144780000Y-120650000D02*
X143510000Y-121920000D01*
X144780000Y-115570000D02*
X144780000Y-120650000D01*
X143510000Y-114300000D02*
X144780000Y-115570000D01*
D26*
X115317953Y-144777463D02*
X111249463Y-144777463D01*
X111249463Y-144777463D02*
X110744000Y-144272000D01*
X114809953Y-129537463D02*
X110741463Y-129537463D01*
X110741463Y-129537463D02*
X110236000Y-129032000D01*
X114809953Y-114297463D02*
X111249463Y-114297463D01*
X111249463Y-114297463D02*
X110744000Y-113792000D01*
D27*
X134620000Y-129540000D02*
X135890000Y-129540000D01*
X142240000Y-128270000D02*
X142240000Y-129540000D01*
X140970000Y-127000000D02*
X142240000Y-128270000D01*
X138430000Y-127000000D02*
X140970000Y-127000000D01*
X135890000Y-129540000D02*
X138430000Y-127000000D01*
X134620000Y-132080000D02*
X140970000Y-132080000D01*
X142240000Y-133350000D02*
X142240000Y-134620000D01*
X140970000Y-132080000D02*
X142240000Y-133350000D01*
X134620000Y-124460000D02*
X133350000Y-124460000D01*
X129540000Y-125730000D02*
X128270000Y-124460000D01*
X132080000Y-125730000D02*
X129540000Y-125730000D01*
X133350000Y-124460000D02*
X132080000Y-125730000D01*
X134620000Y-127000000D02*
X133350000Y-127000000D01*
X129540000Y-128270000D02*
X128270000Y-129540000D01*
X132080000Y-128270000D02*
X129540000Y-128270000D01*
X133350000Y-127000000D02*
X132080000Y-128270000D01*
X137668000Y-142748000D02*
X138176000Y-142240000D01*
X138176000Y-142240000D02*
X139700000Y-142240000D01*
X136144000Y-144272000D02*
X137668000Y-142748000D01*
X132080000Y-130810000D02*
X131826000Y-130810000D01*
X131826000Y-130810000D02*
X130556000Y-132080000D01*
X133096000Y-144272000D02*
X136144000Y-144272000D01*
X130556000Y-141732000D02*
X133096000Y-144272000D01*
X130556000Y-132080000D02*
X130556000Y-141732000D01*
X143002000Y-141478000D02*
X137922000Y-141478000D01*
X137922000Y-141478000D02*
X137668000Y-141732000D01*
X144780000Y-139700000D02*
X143002000Y-141478000D01*
X135636000Y-143764000D02*
X137668000Y-141732000D01*
X133604000Y-143764000D02*
X135636000Y-143764000D01*
X133604000Y-143764000D02*
X132080000Y-142240000D01*
X132080000Y-133350000D02*
X132080000Y-142240000D01*
D26*
X104140000Y-132160000D02*
X104140000Y-133604000D01*
X105156000Y-134620000D02*
X114300000Y-134620000D01*
X104140000Y-133604000D02*
X105156000Y-134620000D01*
X104140000Y-101680000D02*
X104140000Y-103124000D01*
X105156000Y-104140000D02*
X114300000Y-104140000D01*
X104140000Y-103124000D02*
X105156000Y-104140000D01*
X104140000Y-116920000D02*
X104140000Y-118364000D01*
X105156000Y-119380000D02*
X114300000Y-119380000D01*
X104140000Y-118364000D02*
X105156000Y-119380000D01*
D28*
G36*
X101132100Y-100869630D02*
X100970907Y-101680000D01*
X101132100Y-102490370D01*
X101591138Y-103177369D01*
X102278137Y-103636407D01*
X102878976Y-103755921D01*
X103130959Y-104133041D01*
X103560318Y-104562400D01*
X103088507Y-104562400D01*
X102278137Y-104723593D01*
X101591138Y-105182631D01*
X101132100Y-105869630D01*
X100970907Y-106680000D01*
X101132100Y-107490370D01*
X101591138Y-108177369D01*
X102278137Y-108636407D01*
X103088507Y-108797600D01*
X105191493Y-108797600D01*
X106001863Y-108636407D01*
X106688862Y-108177369D01*
X106737938Y-108103921D01*
X116046953Y-108103921D01*
X116146360Y-108803832D01*
X116222957Y-108988753D01*
X116568961Y-109031420D01*
X117396381Y-108204000D01*
X116568961Y-107376580D01*
X116222957Y-107419247D01*
X116046953Y-108103921D01*
X106737938Y-108103921D01*
X107147900Y-107490370D01*
X107261958Y-106916961D01*
X117028580Y-106916961D01*
X117856000Y-107744381D01*
X118683420Y-106916961D01*
X118640753Y-106570957D01*
X117956079Y-106394953D01*
X117256168Y-106494360D01*
X117071247Y-106570957D01*
X117028580Y-106916961D01*
X107261958Y-106916961D01*
X107309093Y-106680000D01*
X107147900Y-105869630D01*
X106945689Y-105567000D01*
X114298755Y-105567000D01*
X114582603Y-105567248D01*
X115107275Y-105350457D01*
X115509047Y-104949386D01*
X115726752Y-104425093D01*
X115727248Y-103857397D01*
X115510457Y-103332725D01*
X115109386Y-102930953D01*
X114585093Y-102713248D01*
X114017397Y-102712752D01*
X114016797Y-102713000D01*
X111353276Y-102713000D01*
X111616583Y-102078886D01*
X111617415Y-101125300D01*
X111260707Y-100262000D01*
X119447665Y-100262000D01*
X118528868Y-100641639D01*
X117789236Y-101379981D01*
X117388457Y-102345165D01*
X117387545Y-103390250D01*
X117786639Y-104356132D01*
X118524981Y-105095764D01*
X119490165Y-105496543D01*
X120535250Y-105497455D01*
X121501132Y-105098361D01*
X122240764Y-104360019D01*
X122320321Y-104168424D01*
X122320321Y-106121200D01*
X122398906Y-106538841D01*
X122586858Y-106830927D01*
X120398285Y-109019501D01*
X120030000Y-108944921D01*
X119500311Y-108944921D01*
X119665047Y-108304079D01*
X119565640Y-107604168D01*
X119489043Y-107419247D01*
X119143039Y-107376580D01*
X118315619Y-108204000D01*
X118363703Y-108252084D01*
X117904084Y-108711703D01*
X117856000Y-108663619D01*
X117028580Y-109491039D01*
X117071247Y-109837043D01*
X117605162Y-109974293D01*
X117580921Y-110094000D01*
X117580921Y-111394000D01*
X117659506Y-111811641D01*
X117906331Y-112195219D01*
X118282333Y-112452130D01*
X118176726Y-112495766D01*
X117577869Y-113093578D01*
X117253370Y-113875057D01*
X117252632Y-114721230D01*
X117575766Y-115503274D01*
X117641968Y-115569591D01*
X117577869Y-115633578D01*
X117253370Y-116415057D01*
X117252632Y-117261230D01*
X117575766Y-118043274D01*
X117641968Y-118109591D01*
X117577869Y-118173578D01*
X117253370Y-118955057D01*
X117252632Y-119801230D01*
X117575766Y-120583274D01*
X117641968Y-120649591D01*
X117577869Y-120713578D01*
X117253370Y-121495057D01*
X117252632Y-122341230D01*
X117575766Y-123123274D01*
X117641968Y-123189591D01*
X117577869Y-123253578D01*
X117253370Y-124035057D01*
X117252632Y-124881230D01*
X117575766Y-125663274D01*
X117641968Y-125729591D01*
X117577869Y-125793578D01*
X117253370Y-126575057D01*
X117252632Y-127421230D01*
X117575766Y-128203274D01*
X117641968Y-128269591D01*
X117577869Y-128333578D01*
X117253370Y-129115057D01*
X117252632Y-129961230D01*
X117575766Y-130743274D01*
X117641968Y-130809591D01*
X117577869Y-130873578D01*
X117253370Y-131655057D01*
X117252632Y-132501230D01*
X117575766Y-133283274D01*
X117641968Y-133349591D01*
X117577869Y-133413578D01*
X117253370Y-134195057D01*
X117252632Y-135041230D01*
X117575766Y-135823274D01*
X117641968Y-135889591D01*
X117577869Y-135953578D01*
X117253370Y-136735057D01*
X117252632Y-137581230D01*
X117575766Y-138363274D01*
X117641968Y-138429591D01*
X117577869Y-138493578D01*
X117253370Y-139275057D01*
X117252632Y-140121230D01*
X117575766Y-140903274D01*
X117641968Y-140969591D01*
X117577869Y-141033578D01*
X117253370Y-141815057D01*
X117252632Y-142661230D01*
X117371452Y-142948797D01*
X117035009Y-142718915D01*
X116587953Y-142628384D01*
X114047953Y-142628384D01*
X113630312Y-142706969D01*
X113246734Y-142953794D01*
X112989405Y-143330407D01*
X112985344Y-143350463D01*
X111840545Y-143350463D01*
X111754206Y-143264124D01*
X111553386Y-143062953D01*
X111029093Y-142845248D01*
X110461397Y-142844752D01*
X109936725Y-143061543D01*
X109534953Y-143462614D01*
X109317248Y-143986907D01*
X109316752Y-144554603D01*
X109533543Y-145079275D01*
X109934614Y-145481047D01*
X109935214Y-145481296D01*
X110240422Y-145786505D01*
X110703374Y-146095839D01*
X110814785Y-146118000D01*
X100262000Y-146118000D01*
X100262000Y-132160000D01*
X100970907Y-132160000D01*
X101132100Y-132970370D01*
X101591138Y-133657369D01*
X102278137Y-134116407D01*
X102878976Y-134235921D01*
X103130959Y-134613041D01*
X103560318Y-135042400D01*
X103088507Y-135042400D01*
X102278137Y-135203593D01*
X101591138Y-135662631D01*
X101132100Y-136349630D01*
X100970907Y-137160000D01*
X101132100Y-137970370D01*
X101591138Y-138657369D01*
X102278137Y-139116407D01*
X103088507Y-139277600D01*
X105191493Y-139277600D01*
X106001863Y-139116407D01*
X106688862Y-138657369D01*
X107147900Y-137970370D01*
X107309093Y-137160000D01*
X107147900Y-136349630D01*
X106945689Y-136047000D01*
X114298755Y-136047000D01*
X114582603Y-136047248D01*
X115107275Y-135830457D01*
X115509047Y-135429386D01*
X115726752Y-134905093D01*
X115727248Y-134337397D01*
X115510457Y-133812725D01*
X115109386Y-133410953D01*
X114585093Y-133193248D01*
X114017397Y-133192752D01*
X114016797Y-133193000D01*
X111353276Y-133193000D01*
X111616583Y-132558886D01*
X111617415Y-131605300D01*
X111352627Y-130964463D01*
X112475481Y-130964463D01*
X112716284Y-131338682D01*
X113092897Y-131596011D01*
X113539953Y-131686542D01*
X116079953Y-131686542D01*
X116497594Y-131607957D01*
X116881172Y-131361132D01*
X117138501Y-130984519D01*
X117229032Y-130537463D01*
X117229032Y-128537463D01*
X117150447Y-128119822D01*
X116903622Y-127736244D01*
X116527009Y-127478915D01*
X116079953Y-127388384D01*
X113539953Y-127388384D01*
X113122312Y-127466969D01*
X112738734Y-127713794D01*
X112481405Y-128090407D01*
X112477344Y-128110463D01*
X111332545Y-128110463D01*
X111246206Y-128024124D01*
X111045386Y-127822953D01*
X110521093Y-127605248D01*
X109953397Y-127604752D01*
X109428725Y-127821543D01*
X109026953Y-128222614D01*
X108809248Y-128746907D01*
X108808752Y-129314603D01*
X108960878Y-129682774D01*
X108745299Y-129682586D01*
X107863982Y-130046738D01*
X107189107Y-130720437D01*
X107012184Y-131146516D01*
X106688862Y-130662631D01*
X106001863Y-130203593D01*
X105191493Y-130042400D01*
X103088507Y-130042400D01*
X102278137Y-130203593D01*
X101591138Y-130662631D01*
X101132100Y-131349630D01*
X100970907Y-132160000D01*
X100262000Y-132160000D01*
X100262000Y-116920000D01*
X100970907Y-116920000D01*
X101132100Y-117730370D01*
X101591138Y-118417369D01*
X102278137Y-118876407D01*
X102878976Y-118995921D01*
X103130959Y-119373041D01*
X103560318Y-119802400D01*
X103088507Y-119802400D01*
X102278137Y-119963593D01*
X101591138Y-120422631D01*
X101132100Y-121109630D01*
X100970907Y-121920000D01*
X101132100Y-122730370D01*
X101591138Y-123417369D01*
X102278137Y-123876407D01*
X103088507Y-124037600D01*
X105191493Y-124037600D01*
X106001863Y-123876407D01*
X106688862Y-123417369D01*
X107147900Y-122730370D01*
X107309093Y-121920000D01*
X107147900Y-121109630D01*
X106945689Y-120807000D01*
X114298755Y-120807000D01*
X114582603Y-120807248D01*
X115107275Y-120590457D01*
X115509047Y-120189386D01*
X115726752Y-119665093D01*
X115727248Y-119097397D01*
X115510457Y-118572725D01*
X115109386Y-118170953D01*
X114585093Y-117953248D01*
X114017397Y-117952752D01*
X114016797Y-117953000D01*
X111353276Y-117953000D01*
X111616584Y-117318885D01*
X111617416Y-116365299D01*
X111352629Y-115724463D01*
X112475481Y-115724463D01*
X112716284Y-116098682D01*
X113092897Y-116356011D01*
X113539953Y-116446542D01*
X116079953Y-116446542D01*
X116497594Y-116367957D01*
X116881172Y-116121132D01*
X117138501Y-115744519D01*
X117229032Y-115297463D01*
X117229032Y-113297463D01*
X117150447Y-112879822D01*
X116903622Y-112496244D01*
X116527009Y-112238915D01*
X116079953Y-112148384D01*
X113539953Y-112148384D01*
X113122312Y-112226969D01*
X112738734Y-112473794D01*
X112481405Y-112850407D01*
X112477344Y-112870463D01*
X111840545Y-112870463D01*
X111754206Y-112784124D01*
X111553386Y-112582953D01*
X111029093Y-112365248D01*
X110461397Y-112364752D01*
X109936725Y-112581543D01*
X109534953Y-112982614D01*
X109317248Y-113506907D01*
X109316752Y-114074603D01*
X109469061Y-114443216D01*
X108745300Y-114442585D01*
X107863983Y-114806737D01*
X107189108Y-115480436D01*
X107012184Y-115906516D01*
X106688862Y-115422631D01*
X106001863Y-114963593D01*
X105191493Y-114802400D01*
X103088507Y-114802400D01*
X102278137Y-114963593D01*
X101591138Y-115422631D01*
X101132100Y-116109630D01*
X100970907Y-116920000D01*
X100262000Y-116920000D01*
X100262000Y-100262000D01*
X101538105Y-100262000D01*
X101132100Y-100869630D01*
X101132100Y-100869630D01*
G37*
X101132100Y-100869630D02*
X100970907Y-101680000D01*
X101132100Y-102490370D01*
X101591138Y-103177369D01*
X102278137Y-103636407D01*
X102878976Y-103755921D01*
X103130959Y-104133041D01*
X103560318Y-104562400D01*
X103088507Y-104562400D01*
X102278137Y-104723593D01*
X101591138Y-105182631D01*
X101132100Y-105869630D01*
X100970907Y-106680000D01*
X101132100Y-107490370D01*
X101591138Y-108177369D01*
X102278137Y-108636407D01*
X103088507Y-108797600D01*
X105191493Y-108797600D01*
X106001863Y-108636407D01*
X106688862Y-108177369D01*
X106737938Y-108103921D01*
X116046953Y-108103921D01*
X116146360Y-108803832D01*
X116222957Y-108988753D01*
X116568961Y-109031420D01*
X117396381Y-108204000D01*
X116568961Y-107376580D01*
X116222957Y-107419247D01*
X116046953Y-108103921D01*
X106737938Y-108103921D01*
X107147900Y-107490370D01*
X107261958Y-106916961D01*
X117028580Y-106916961D01*
X117856000Y-107744381D01*
X118683420Y-106916961D01*
X118640753Y-106570957D01*
X117956079Y-106394953D01*
X117256168Y-106494360D01*
X117071247Y-106570957D01*
X117028580Y-106916961D01*
X107261958Y-106916961D01*
X107309093Y-106680000D01*
X107147900Y-105869630D01*
X106945689Y-105567000D01*
X114298755Y-105567000D01*
X114582603Y-105567248D01*
X115107275Y-105350457D01*
X115509047Y-104949386D01*
X115726752Y-104425093D01*
X115727248Y-103857397D01*
X115510457Y-103332725D01*
X115109386Y-102930953D01*
X114585093Y-102713248D01*
X114017397Y-102712752D01*
X114016797Y-102713000D01*
X111353276Y-102713000D01*
X111616583Y-102078886D01*
X111617415Y-101125300D01*
X111260707Y-100262000D01*
X119447665Y-100262000D01*
X118528868Y-100641639D01*
X117789236Y-101379981D01*
X117388457Y-102345165D01*
X117387545Y-103390250D01*
X117786639Y-104356132D01*
X118524981Y-105095764D01*
X119490165Y-105496543D01*
X120535250Y-105497455D01*
X121501132Y-105098361D01*
X122240764Y-104360019D01*
X122320321Y-104168424D01*
X122320321Y-106121200D01*
X122398906Y-106538841D01*
X122586858Y-106830927D01*
X120398285Y-109019501D01*
X120030000Y-108944921D01*
X119500311Y-108944921D01*
X119665047Y-108304079D01*
X119565640Y-107604168D01*
X119489043Y-107419247D01*
X119143039Y-107376580D01*
X118315619Y-108204000D01*
X118363703Y-108252084D01*
X117904084Y-108711703D01*
X117856000Y-108663619D01*
X117028580Y-109491039D01*
X117071247Y-109837043D01*
X117605162Y-109974293D01*
X117580921Y-110094000D01*
X117580921Y-111394000D01*
X117659506Y-111811641D01*
X117906331Y-112195219D01*
X118282333Y-112452130D01*
X118176726Y-112495766D01*
X117577869Y-113093578D01*
X117253370Y-113875057D01*
X117252632Y-114721230D01*
X117575766Y-115503274D01*
X117641968Y-115569591D01*
X117577869Y-115633578D01*
X117253370Y-116415057D01*
X117252632Y-117261230D01*
X117575766Y-118043274D01*
X117641968Y-118109591D01*
X117577869Y-118173578D01*
X117253370Y-118955057D01*
X117252632Y-119801230D01*
X117575766Y-120583274D01*
X117641968Y-120649591D01*
X117577869Y-120713578D01*
X117253370Y-121495057D01*
X117252632Y-122341230D01*
X117575766Y-123123274D01*
X117641968Y-123189591D01*
X117577869Y-123253578D01*
X117253370Y-124035057D01*
X117252632Y-124881230D01*
X117575766Y-125663274D01*
X117641968Y-125729591D01*
X117577869Y-125793578D01*
X117253370Y-126575057D01*
X117252632Y-127421230D01*
X117575766Y-128203274D01*
X117641968Y-128269591D01*
X117577869Y-128333578D01*
X117253370Y-129115057D01*
X117252632Y-129961230D01*
X117575766Y-130743274D01*
X117641968Y-130809591D01*
X117577869Y-130873578D01*
X117253370Y-131655057D01*
X117252632Y-132501230D01*
X117575766Y-133283274D01*
X117641968Y-133349591D01*
X117577869Y-133413578D01*
X117253370Y-134195057D01*
X117252632Y-135041230D01*
X117575766Y-135823274D01*
X117641968Y-135889591D01*
X117577869Y-135953578D01*
X117253370Y-136735057D01*
X117252632Y-137581230D01*
X117575766Y-138363274D01*
X117641968Y-138429591D01*
X117577869Y-138493578D01*
X117253370Y-139275057D01*
X117252632Y-140121230D01*
X117575766Y-140903274D01*
X117641968Y-140969591D01*
X117577869Y-141033578D01*
X117253370Y-141815057D01*
X117252632Y-142661230D01*
X117371452Y-142948797D01*
X117035009Y-142718915D01*
X116587953Y-142628384D01*
X114047953Y-142628384D01*
X113630312Y-142706969D01*
X113246734Y-142953794D01*
X112989405Y-143330407D01*
X112985344Y-143350463D01*
X111840545Y-143350463D01*
X111754206Y-143264124D01*
X111553386Y-143062953D01*
X111029093Y-142845248D01*
X110461397Y-142844752D01*
X109936725Y-143061543D01*
X109534953Y-143462614D01*
X109317248Y-143986907D01*
X109316752Y-144554603D01*
X109533543Y-145079275D01*
X109934614Y-145481047D01*
X109935214Y-145481296D01*
X110240422Y-145786505D01*
X110703374Y-146095839D01*
X110814785Y-146118000D01*
X100262000Y-146118000D01*
X100262000Y-132160000D01*
X100970907Y-132160000D01*
X101132100Y-132970370D01*
X101591138Y-133657369D01*
X102278137Y-134116407D01*
X102878976Y-134235921D01*
X103130959Y-134613041D01*
X103560318Y-135042400D01*
X103088507Y-135042400D01*
X102278137Y-135203593D01*
X101591138Y-135662631D01*
X101132100Y-136349630D01*
X100970907Y-137160000D01*
X101132100Y-137970370D01*
X101591138Y-138657369D01*
X102278137Y-139116407D01*
X103088507Y-139277600D01*
X105191493Y-139277600D01*
X106001863Y-139116407D01*
X106688862Y-138657369D01*
X107147900Y-137970370D01*
X107309093Y-137160000D01*
X107147900Y-136349630D01*
X106945689Y-136047000D01*
X114298755Y-136047000D01*
X114582603Y-136047248D01*
X115107275Y-135830457D01*
X115509047Y-135429386D01*
X115726752Y-134905093D01*
X115727248Y-134337397D01*
X115510457Y-133812725D01*
X115109386Y-133410953D01*
X114585093Y-133193248D01*
X114017397Y-133192752D01*
X114016797Y-133193000D01*
X111353276Y-133193000D01*
X111616583Y-132558886D01*
X111617415Y-131605300D01*
X111352627Y-130964463D01*
X112475481Y-130964463D01*
X112716284Y-131338682D01*
X113092897Y-131596011D01*
X113539953Y-131686542D01*
X116079953Y-131686542D01*
X116497594Y-131607957D01*
X116881172Y-131361132D01*
X117138501Y-130984519D01*
X117229032Y-130537463D01*
X117229032Y-128537463D01*
X117150447Y-128119822D01*
X116903622Y-127736244D01*
X116527009Y-127478915D01*
X116079953Y-127388384D01*
X113539953Y-127388384D01*
X113122312Y-127466969D01*
X112738734Y-127713794D01*
X112481405Y-128090407D01*
X112477344Y-128110463D01*
X111332545Y-128110463D01*
X111246206Y-128024124D01*
X111045386Y-127822953D01*
X110521093Y-127605248D01*
X109953397Y-127604752D01*
X109428725Y-127821543D01*
X109026953Y-128222614D01*
X108809248Y-128746907D01*
X108808752Y-129314603D01*
X108960878Y-129682774D01*
X108745299Y-129682586D01*
X107863982Y-130046738D01*
X107189107Y-130720437D01*
X107012184Y-131146516D01*
X106688862Y-130662631D01*
X106001863Y-130203593D01*
X105191493Y-130042400D01*
X103088507Y-130042400D01*
X102278137Y-130203593D01*
X101591138Y-130662631D01*
X101132100Y-131349630D01*
X100970907Y-132160000D01*
X100262000Y-132160000D01*
X100262000Y-116920000D01*
X100970907Y-116920000D01*
X101132100Y-117730370D01*
X101591138Y-118417369D01*
X102278137Y-118876407D01*
X102878976Y-118995921D01*
X103130959Y-119373041D01*
X103560318Y-119802400D01*
X103088507Y-119802400D01*
X102278137Y-119963593D01*
X101591138Y-120422631D01*
X101132100Y-121109630D01*
X100970907Y-121920000D01*
X101132100Y-122730370D01*
X101591138Y-123417369D01*
X102278137Y-123876407D01*
X103088507Y-124037600D01*
X105191493Y-124037600D01*
X106001863Y-123876407D01*
X106688862Y-123417369D01*
X107147900Y-122730370D01*
X107309093Y-121920000D01*
X107147900Y-121109630D01*
X106945689Y-120807000D01*
X114298755Y-120807000D01*
X114582603Y-120807248D01*
X115107275Y-120590457D01*
X115509047Y-120189386D01*
X115726752Y-119665093D01*
X115727248Y-119097397D01*
X115510457Y-118572725D01*
X115109386Y-118170953D01*
X114585093Y-117953248D01*
X114017397Y-117952752D01*
X114016797Y-117953000D01*
X111353276Y-117953000D01*
X111616584Y-117318885D01*
X111617416Y-116365299D01*
X111352629Y-115724463D01*
X112475481Y-115724463D01*
X112716284Y-116098682D01*
X113092897Y-116356011D01*
X113539953Y-116446542D01*
X116079953Y-116446542D01*
X116497594Y-116367957D01*
X116881172Y-116121132D01*
X117138501Y-115744519D01*
X117229032Y-115297463D01*
X117229032Y-113297463D01*
X117150447Y-112879822D01*
X116903622Y-112496244D01*
X116527009Y-112238915D01*
X116079953Y-112148384D01*
X113539953Y-112148384D01*
X113122312Y-112226969D01*
X112738734Y-112473794D01*
X112481405Y-112850407D01*
X112477344Y-112870463D01*
X111840545Y-112870463D01*
X111754206Y-112784124D01*
X111553386Y-112582953D01*
X111029093Y-112365248D01*
X110461397Y-112364752D01*
X109936725Y-112581543D01*
X109534953Y-112982614D01*
X109317248Y-113506907D01*
X109316752Y-114074603D01*
X109469061Y-114443216D01*
X108745300Y-114442585D01*
X107863983Y-114806737D01*
X107189108Y-115480436D01*
X107012184Y-115906516D01*
X106688862Y-115422631D01*
X106001863Y-114963593D01*
X105191493Y-114802400D01*
X103088507Y-114802400D01*
X102278137Y-114963593D01*
X101591138Y-115422631D01*
X101132100Y-116109630D01*
X100970907Y-116920000D01*
X100262000Y-116920000D01*
X100262000Y-100262000D01*
X101538105Y-100262000D01*
X101132100Y-100869630D01*
G36*
X142023868Y-100641639D02*
X141284236Y-101379981D01*
X140883457Y-102345165D01*
X140882545Y-103390250D01*
X141281639Y-104356132D01*
X142019981Y-105095764D01*
X142985165Y-105496543D01*
X144030250Y-105497455D01*
X144996132Y-105098361D01*
X145735764Y-104360019D01*
X146118000Y-103439492D01*
X146118000Y-110348573D01*
X146081093Y-110333248D01*
X145851753Y-110333048D01*
X145850494Y-110326359D01*
X145603669Y-109942781D01*
X145227056Y-109685452D01*
X144780000Y-109594921D01*
X144125249Y-109594921D01*
X144065386Y-109534953D01*
X143541093Y-109317248D01*
X142973397Y-109316752D01*
X142448725Y-109533543D01*
X142362408Y-109619709D01*
X142240000Y-109594921D01*
X140208000Y-109594921D01*
X139790359Y-109673506D01*
X139693753Y-109735670D01*
X139493386Y-109534953D01*
X138969093Y-109317248D01*
X138401397Y-109316752D01*
X138400797Y-109317000D01*
X137946238Y-109317000D01*
X137987420Y-108983039D01*
X137160000Y-108155619D01*
X136332580Y-108983039D01*
X136373762Y-109317000D01*
X128525245Y-109317000D01*
X128241397Y-109316752D01*
X127716725Y-109533543D01*
X127314953Y-109934614D01*
X127097248Y-110458907D01*
X127096752Y-111026603D01*
X127313543Y-111551275D01*
X127714614Y-111953047D01*
X128238907Y-112170752D01*
X128806603Y-112171248D01*
X128807203Y-112171000D01*
X132438404Y-112171000D01*
X131561404Y-113048000D01*
X121135593Y-113048000D01*
X120586422Y-112497869D01*
X120470548Y-112449754D01*
X120670638Y-112321000D01*
X120904000Y-112321000D01*
X121507492Y-112200958D01*
X122019107Y-111859107D01*
X125575107Y-108303108D01*
X125916958Y-107791492D01*
X125926329Y-107744381D01*
X125955859Y-107595921D01*
X135350953Y-107595921D01*
X135450360Y-108295832D01*
X135526957Y-108480753D01*
X135872961Y-108523420D01*
X136700381Y-107696000D01*
X137619619Y-107696000D01*
X138447039Y-108523420D01*
X138793043Y-108480753D01*
X138969047Y-107796079D01*
X138869640Y-107096168D01*
X138793043Y-106911247D01*
X138447039Y-106868580D01*
X137619619Y-107696000D01*
X136700381Y-107696000D01*
X135872961Y-106868580D01*
X135526957Y-106911247D01*
X135350953Y-107595921D01*
X125955859Y-107595921D01*
X126037000Y-107188000D01*
X126037000Y-107083101D01*
X126251819Y-106944869D01*
X126509148Y-106568256D01*
X126599679Y-106121200D01*
X126599679Y-104513000D01*
X127342400Y-104513000D01*
X127342400Y-105503600D01*
X127646334Y-106285578D01*
X128226382Y-106891720D01*
X128765506Y-107131077D01*
X129087000Y-106928158D01*
X129087000Y-104513000D01*
X129833000Y-104513000D01*
X129833000Y-106928158D01*
X130154494Y-107131077D01*
X130693618Y-106891720D01*
X131155594Y-106408961D01*
X136332580Y-106408961D01*
X137160000Y-107236381D01*
X137987420Y-106408961D01*
X137944753Y-106062957D01*
X137260079Y-105886953D01*
X136560168Y-105986360D01*
X136375247Y-106062957D01*
X136332580Y-106408961D01*
X131155594Y-106408961D01*
X131273666Y-106285578D01*
X131577600Y-105503600D01*
X131577600Y-104513000D01*
X129833000Y-104513000D01*
X129087000Y-104513000D01*
X127342400Y-104513000D01*
X126599679Y-104513000D01*
X126599679Y-102776400D01*
X127342400Y-102776400D01*
X127342400Y-103767000D01*
X129087000Y-103767000D01*
X129087000Y-101351842D01*
X129833000Y-101351842D01*
X129833000Y-103767000D01*
X131577600Y-103767000D01*
X131577600Y-103246000D01*
X135360921Y-103246000D01*
X135360921Y-104546000D01*
X135439506Y-104963641D01*
X135686331Y-105347219D01*
X136062944Y-105604548D01*
X136510000Y-105695079D01*
X137810000Y-105695079D01*
X138227641Y-105616494D01*
X138611219Y-105369669D01*
X138868548Y-104993056D01*
X138959079Y-104546000D01*
X138959079Y-103246000D01*
X138880494Y-102828359D01*
X138633669Y-102444781D01*
X138257056Y-102187452D01*
X137810000Y-102096921D01*
X136510000Y-102096921D01*
X136092359Y-102175506D01*
X135708781Y-102422331D01*
X135451452Y-102798944D01*
X135360921Y-103246000D01*
X131577600Y-103246000D01*
X131577600Y-102776400D01*
X131273666Y-101994422D01*
X130693618Y-101388280D01*
X130154494Y-101148923D01*
X129833000Y-101351842D01*
X129087000Y-101351842D01*
X128765506Y-101148923D01*
X128226382Y-101388280D01*
X127646334Y-101994422D01*
X127342400Y-102776400D01*
X126599679Y-102776400D01*
X126599679Y-102158800D01*
X126521094Y-101741159D01*
X126274269Y-101357581D01*
X125897656Y-101100252D01*
X125450600Y-101009721D01*
X123469400Y-101009721D01*
X123051759Y-101088306D01*
X122668181Y-101335131D01*
X122410852Y-101711744D01*
X122400322Y-101763743D01*
X122243361Y-101383868D01*
X121505019Y-100644236D01*
X120584492Y-100262000D01*
X142942665Y-100262000D01*
X142023868Y-100641639D01*
X142023868Y-100641639D01*
G37*
X142023868Y-100641639D02*
X141284236Y-101379981D01*
X140883457Y-102345165D01*
X140882545Y-103390250D01*
X141281639Y-104356132D01*
X142019981Y-105095764D01*
X142985165Y-105496543D01*
X144030250Y-105497455D01*
X144996132Y-105098361D01*
X145735764Y-104360019D01*
X146118000Y-103439492D01*
X146118000Y-110348573D01*
X146081093Y-110333248D01*
X145851753Y-110333048D01*
X145850494Y-110326359D01*
X145603669Y-109942781D01*
X145227056Y-109685452D01*
X144780000Y-109594921D01*
X144125249Y-109594921D01*
X144065386Y-109534953D01*
X143541093Y-109317248D01*
X142973397Y-109316752D01*
X142448725Y-109533543D01*
X142362408Y-109619709D01*
X142240000Y-109594921D01*
X140208000Y-109594921D01*
X139790359Y-109673506D01*
X139693753Y-109735670D01*
X139493386Y-109534953D01*
X138969093Y-109317248D01*
X138401397Y-109316752D01*
X138400797Y-109317000D01*
X137946238Y-109317000D01*
X137987420Y-108983039D01*
X137160000Y-108155619D01*
X136332580Y-108983039D01*
X136373762Y-109317000D01*
X128525245Y-109317000D01*
X128241397Y-109316752D01*
X127716725Y-109533543D01*
X127314953Y-109934614D01*
X127097248Y-110458907D01*
X127096752Y-111026603D01*
X127313543Y-111551275D01*
X127714614Y-111953047D01*
X128238907Y-112170752D01*
X128806603Y-112171248D01*
X128807203Y-112171000D01*
X132438404Y-112171000D01*
X131561404Y-113048000D01*
X121135593Y-113048000D01*
X120586422Y-112497869D01*
X120470548Y-112449754D01*
X120670638Y-112321000D01*
X120904000Y-112321000D01*
X121507492Y-112200958D01*
X122019107Y-111859107D01*
X125575107Y-108303108D01*
X125916958Y-107791492D01*
X125926329Y-107744381D01*
X125955859Y-107595921D01*
X135350953Y-107595921D01*
X135450360Y-108295832D01*
X135526957Y-108480753D01*
X135872961Y-108523420D01*
X136700381Y-107696000D01*
X137619619Y-107696000D01*
X138447039Y-108523420D01*
X138793043Y-108480753D01*
X138969047Y-107796079D01*
X138869640Y-107096168D01*
X138793043Y-106911247D01*
X138447039Y-106868580D01*
X137619619Y-107696000D01*
X136700381Y-107696000D01*
X135872961Y-106868580D01*
X135526957Y-106911247D01*
X135350953Y-107595921D01*
X125955859Y-107595921D01*
X126037000Y-107188000D01*
X126037000Y-107083101D01*
X126251819Y-106944869D01*
X126509148Y-106568256D01*
X126599679Y-106121200D01*
X126599679Y-104513000D01*
X127342400Y-104513000D01*
X127342400Y-105503600D01*
X127646334Y-106285578D01*
X128226382Y-106891720D01*
X128765506Y-107131077D01*
X129087000Y-106928158D01*
X129087000Y-104513000D01*
X129833000Y-104513000D01*
X129833000Y-106928158D01*
X130154494Y-107131077D01*
X130693618Y-106891720D01*
X131155594Y-106408961D01*
X136332580Y-106408961D01*
X137160000Y-107236381D01*
X137987420Y-106408961D01*
X137944753Y-106062957D01*
X137260079Y-105886953D01*
X136560168Y-105986360D01*
X136375247Y-106062957D01*
X136332580Y-106408961D01*
X131155594Y-106408961D01*
X131273666Y-106285578D01*
X131577600Y-105503600D01*
X131577600Y-104513000D01*
X129833000Y-104513000D01*
X129087000Y-104513000D01*
X127342400Y-104513000D01*
X126599679Y-104513000D01*
X126599679Y-102776400D01*
X127342400Y-102776400D01*
X127342400Y-103767000D01*
X129087000Y-103767000D01*
X129087000Y-101351842D01*
X129833000Y-101351842D01*
X129833000Y-103767000D01*
X131577600Y-103767000D01*
X131577600Y-103246000D01*
X135360921Y-103246000D01*
X135360921Y-104546000D01*
X135439506Y-104963641D01*
X135686331Y-105347219D01*
X136062944Y-105604548D01*
X136510000Y-105695079D01*
X137810000Y-105695079D01*
X138227641Y-105616494D01*
X138611219Y-105369669D01*
X138868548Y-104993056D01*
X138959079Y-104546000D01*
X138959079Y-103246000D01*
X138880494Y-102828359D01*
X138633669Y-102444781D01*
X138257056Y-102187452D01*
X137810000Y-102096921D01*
X136510000Y-102096921D01*
X136092359Y-102175506D01*
X135708781Y-102422331D01*
X135451452Y-102798944D01*
X135360921Y-103246000D01*
X131577600Y-103246000D01*
X131577600Y-102776400D01*
X131273666Y-101994422D01*
X130693618Y-101388280D01*
X130154494Y-101148923D01*
X129833000Y-101351842D01*
X129087000Y-101351842D01*
X128765506Y-101148923D01*
X128226382Y-101388280D01*
X127646334Y-101994422D01*
X127342400Y-102776400D01*
X126599679Y-102776400D01*
X126599679Y-102158800D01*
X126521094Y-101741159D01*
X126274269Y-101357581D01*
X125897656Y-101100252D01*
X125450600Y-101009721D01*
X123469400Y-101009721D01*
X123051759Y-101088306D01*
X122668181Y-101335131D01*
X122410852Y-101711744D01*
X122400322Y-101763743D01*
X122243361Y-101383868D01*
X121505019Y-100644236D01*
X120584492Y-100262000D01*
X142942665Y-100262000D01*
X142023868Y-100641639D01*
G36*
X124411624Y-116039911D02*
X124303000Y-116586000D01*
X124303000Y-122327449D01*
X124277774Y-122317000D01*
X123844750Y-122317000D01*
X123563000Y-122598750D01*
X123563000Y-124087000D01*
X123583000Y-124087000D01*
X123583000Y-124833000D01*
X123563000Y-124833000D01*
X123563000Y-126321250D01*
X123844750Y-126603000D01*
X124277774Y-126603000D01*
X124691994Y-126431424D01*
X124765452Y-126357967D01*
X124968230Y-126493459D01*
X125730000Y-126644984D01*
X126491770Y-126493459D01*
X127000000Y-126153870D01*
X127508230Y-126493459D01*
X128270000Y-126644984D01*
X128615637Y-126576233D01*
X128654702Y-126615298D01*
X129060880Y-126886697D01*
X129540000Y-126982000D01*
X131597404Y-126982000D01*
X131561404Y-127018000D01*
X129540000Y-127018000D01*
X129060880Y-127113303D01*
X128699130Y-127355016D01*
X128654702Y-127384702D01*
X128615637Y-127423767D01*
X128270000Y-127355016D01*
X127508230Y-127506541D01*
X127000000Y-127846130D01*
X126491770Y-127506541D01*
X125730000Y-127355016D01*
X124968230Y-127506541D01*
X124765452Y-127642033D01*
X124691994Y-127568576D01*
X124277774Y-127397000D01*
X123844750Y-127397000D01*
X123563000Y-127678750D01*
X123563000Y-129167000D01*
X123583000Y-129167000D01*
X123583000Y-129913000D01*
X123563000Y-129913000D01*
X123563000Y-131401250D01*
X123844750Y-131683000D01*
X124277774Y-131683000D01*
X124691994Y-131511424D01*
X124765452Y-131437967D01*
X124968230Y-131573459D01*
X125730000Y-131724984D01*
X126491770Y-131573459D01*
X127000000Y-131233870D01*
X127508230Y-131573459D01*
X128270000Y-131724984D01*
X129031770Y-131573459D01*
X129677567Y-131141951D01*
X129953069Y-130729633D01*
X129952910Y-130912494D01*
X129670702Y-131194702D01*
X129399303Y-131600880D01*
X129304000Y-132080000D01*
X129304000Y-141732000D01*
X129399303Y-142211120D01*
X129437898Y-142268881D01*
X129670702Y-142617298D01*
X132210700Y-145157295D01*
X132210702Y-145157298D01*
X132616880Y-145428697D01*
X133096000Y-145524000D01*
X136144000Y-145524000D01*
X136623120Y-145428697D01*
X137029298Y-145157298D01*
X137029299Y-145157297D01*
X138553295Y-143633300D01*
X138553298Y-143633298D01*
X138694596Y-143492000D01*
X138994057Y-143492000D01*
X139414907Y-143666752D01*
X139982603Y-143667248D01*
X140507275Y-143450457D01*
X140883379Y-143075010D01*
X140882545Y-144030250D01*
X141281639Y-144996132D01*
X142019981Y-145735764D01*
X142940508Y-146118000D01*
X125027335Y-146118000D01*
X125946132Y-145738361D01*
X126685764Y-145000019D01*
X127086543Y-144034835D01*
X127087455Y-142989750D01*
X126688361Y-142023868D01*
X125950019Y-141284236D01*
X124984835Y-140883457D01*
X123939750Y-140882545D01*
X122973868Y-141281639D01*
X122234236Y-142019981D01*
X121833457Y-142985165D01*
X121832545Y-144030250D01*
X122231639Y-144996132D01*
X122969981Y-145735764D01*
X123890508Y-146118000D01*
X120777000Y-146118000D01*
X120777000Y-143850846D01*
X121182131Y-143446422D01*
X121506630Y-142664943D01*
X121507368Y-141818770D01*
X121184234Y-141036726D01*
X121118032Y-140970409D01*
X121182131Y-140906422D01*
X121506630Y-140124943D01*
X121507368Y-139278770D01*
X121184234Y-138496726D01*
X121118032Y-138430409D01*
X121182131Y-138366422D01*
X121506630Y-137584943D01*
X121507368Y-136738770D01*
X121184234Y-135956726D01*
X121145510Y-135917934D01*
X121175474Y-135887970D01*
X120951678Y-135664174D01*
X121327589Y-135573953D01*
X121544400Y-134756028D01*
X121431700Y-133917393D01*
X121327589Y-133666047D01*
X120951678Y-133575826D01*
X121175474Y-133352030D01*
X121145967Y-133322523D01*
X121182131Y-133286422D01*
X121506630Y-132504943D01*
X121507368Y-131658770D01*
X121184234Y-130876726D01*
X121118032Y-130810409D01*
X121182131Y-130746422D01*
X121199400Y-130704834D01*
X121199400Y-130780174D01*
X121370975Y-131194394D01*
X121688006Y-131511424D01*
X122102226Y-131683000D01*
X122535250Y-131683000D01*
X122817000Y-131401250D01*
X122817000Y-129913000D01*
X122797000Y-129913000D01*
X122797000Y-129167000D01*
X122817000Y-129167000D01*
X122817000Y-127678750D01*
X122535250Y-127397000D01*
X122102226Y-127397000D01*
X121688006Y-127568576D01*
X121370975Y-127885606D01*
X121199400Y-128299826D01*
X121199400Y-128373431D01*
X121184234Y-128336726D01*
X121118032Y-128270409D01*
X121182131Y-128206422D01*
X121506630Y-127424943D01*
X121507368Y-126578770D01*
X121184234Y-125796726D01*
X121118032Y-125730409D01*
X121182131Y-125666422D01*
X121199400Y-125624834D01*
X121199400Y-125700174D01*
X121370975Y-126114394D01*
X121688006Y-126431424D01*
X122102226Y-126603000D01*
X122535250Y-126603000D01*
X122817000Y-126321250D01*
X122817000Y-124833000D01*
X122797000Y-124833000D01*
X122797000Y-124087000D01*
X122817000Y-124087000D01*
X122817000Y-122598750D01*
X122535250Y-122317000D01*
X122102226Y-122317000D01*
X121688006Y-122488576D01*
X121370975Y-122805606D01*
X121199400Y-123219826D01*
X121199400Y-123293431D01*
X121184234Y-123256726D01*
X121118032Y-123190409D01*
X121182131Y-123126422D01*
X121506630Y-122344943D01*
X121507368Y-121498770D01*
X121184234Y-120716726D01*
X121118032Y-120650409D01*
X121182131Y-120586422D01*
X121506630Y-119804943D01*
X121507368Y-118958770D01*
X121184234Y-118176726D01*
X121118032Y-118110409D01*
X121182131Y-118046422D01*
X121506630Y-117264943D01*
X121507368Y-116418770D01*
X121209139Y-115697000D01*
X124640750Y-115697000D01*
X124411624Y-116039911D01*
X124411624Y-116039911D01*
G37*
X124411624Y-116039911D02*
X124303000Y-116586000D01*
X124303000Y-122327449D01*
X124277774Y-122317000D01*
X123844750Y-122317000D01*
X123563000Y-122598750D01*
X123563000Y-124087000D01*
X123583000Y-124087000D01*
X123583000Y-124833000D01*
X123563000Y-124833000D01*
X123563000Y-126321250D01*
X123844750Y-126603000D01*
X124277774Y-126603000D01*
X124691994Y-126431424D01*
X124765452Y-126357967D01*
X124968230Y-126493459D01*
X125730000Y-126644984D01*
X126491770Y-126493459D01*
X127000000Y-126153870D01*
X127508230Y-126493459D01*
X128270000Y-126644984D01*
X128615637Y-126576233D01*
X128654702Y-126615298D01*
X129060880Y-126886697D01*
X129540000Y-126982000D01*
X131597404Y-126982000D01*
X131561404Y-127018000D01*
X129540000Y-127018000D01*
X129060880Y-127113303D01*
X128699130Y-127355016D01*
X128654702Y-127384702D01*
X128615637Y-127423767D01*
X128270000Y-127355016D01*
X127508230Y-127506541D01*
X127000000Y-127846130D01*
X126491770Y-127506541D01*
X125730000Y-127355016D01*
X124968230Y-127506541D01*
X124765452Y-127642033D01*
X124691994Y-127568576D01*
X124277774Y-127397000D01*
X123844750Y-127397000D01*
X123563000Y-127678750D01*
X123563000Y-129167000D01*
X123583000Y-129167000D01*
X123583000Y-129913000D01*
X123563000Y-129913000D01*
X123563000Y-131401250D01*
X123844750Y-131683000D01*
X124277774Y-131683000D01*
X124691994Y-131511424D01*
X124765452Y-131437967D01*
X124968230Y-131573459D01*
X125730000Y-131724984D01*
X126491770Y-131573459D01*
X127000000Y-131233870D01*
X127508230Y-131573459D01*
X128270000Y-131724984D01*
X129031770Y-131573459D01*
X129677567Y-131141951D01*
X129953069Y-130729633D01*
X129952910Y-130912494D01*
X129670702Y-131194702D01*
X129399303Y-131600880D01*
X129304000Y-132080000D01*
X129304000Y-141732000D01*
X129399303Y-142211120D01*
X129437898Y-142268881D01*
X129670702Y-142617298D01*
X132210700Y-145157295D01*
X132210702Y-145157298D01*
X132616880Y-145428697D01*
X133096000Y-145524000D01*
X136144000Y-145524000D01*
X136623120Y-145428697D01*
X137029298Y-145157298D01*
X137029299Y-145157297D01*
X138553295Y-143633300D01*
X138553298Y-143633298D01*
X138694596Y-143492000D01*
X138994057Y-143492000D01*
X139414907Y-143666752D01*
X139982603Y-143667248D01*
X140507275Y-143450457D01*
X140883379Y-143075010D01*
X140882545Y-144030250D01*
X141281639Y-144996132D01*
X142019981Y-145735764D01*
X142940508Y-146118000D01*
X125027335Y-146118000D01*
X125946132Y-145738361D01*
X126685764Y-145000019D01*
X127086543Y-144034835D01*
X127087455Y-142989750D01*
X126688361Y-142023868D01*
X125950019Y-141284236D01*
X124984835Y-140883457D01*
X123939750Y-140882545D01*
X122973868Y-141281639D01*
X122234236Y-142019981D01*
X121833457Y-142985165D01*
X121832545Y-144030250D01*
X122231639Y-144996132D01*
X122969981Y-145735764D01*
X123890508Y-146118000D01*
X120777000Y-146118000D01*
X120777000Y-143850846D01*
X121182131Y-143446422D01*
X121506630Y-142664943D01*
X121507368Y-141818770D01*
X121184234Y-141036726D01*
X121118032Y-140970409D01*
X121182131Y-140906422D01*
X121506630Y-140124943D01*
X121507368Y-139278770D01*
X121184234Y-138496726D01*
X121118032Y-138430409D01*
X121182131Y-138366422D01*
X121506630Y-137584943D01*
X121507368Y-136738770D01*
X121184234Y-135956726D01*
X121145510Y-135917934D01*
X121175474Y-135887970D01*
X120951678Y-135664174D01*
X121327589Y-135573953D01*
X121544400Y-134756028D01*
X121431700Y-133917393D01*
X121327589Y-133666047D01*
X120951678Y-133575826D01*
X121175474Y-133352030D01*
X121145967Y-133322523D01*
X121182131Y-133286422D01*
X121506630Y-132504943D01*
X121507368Y-131658770D01*
X121184234Y-130876726D01*
X121118032Y-130810409D01*
X121182131Y-130746422D01*
X121199400Y-130704834D01*
X121199400Y-130780174D01*
X121370975Y-131194394D01*
X121688006Y-131511424D01*
X122102226Y-131683000D01*
X122535250Y-131683000D01*
X122817000Y-131401250D01*
X122817000Y-129913000D01*
X122797000Y-129913000D01*
X122797000Y-129167000D01*
X122817000Y-129167000D01*
X122817000Y-127678750D01*
X122535250Y-127397000D01*
X122102226Y-127397000D01*
X121688006Y-127568576D01*
X121370975Y-127885606D01*
X121199400Y-128299826D01*
X121199400Y-128373431D01*
X121184234Y-128336726D01*
X121118032Y-128270409D01*
X121182131Y-128206422D01*
X121506630Y-127424943D01*
X121507368Y-126578770D01*
X121184234Y-125796726D01*
X121118032Y-125730409D01*
X121182131Y-125666422D01*
X121199400Y-125624834D01*
X121199400Y-125700174D01*
X121370975Y-126114394D01*
X121688006Y-126431424D01*
X122102226Y-126603000D01*
X122535250Y-126603000D01*
X122817000Y-126321250D01*
X122817000Y-124833000D01*
X122797000Y-124833000D01*
X122797000Y-124087000D01*
X122817000Y-124087000D01*
X122817000Y-122598750D01*
X122535250Y-122317000D01*
X122102226Y-122317000D01*
X121688006Y-122488576D01*
X121370975Y-122805606D01*
X121199400Y-123219826D01*
X121199400Y-123293431D01*
X121184234Y-123256726D01*
X121118032Y-123190409D01*
X121182131Y-123126422D01*
X121506630Y-122344943D01*
X121507368Y-121498770D01*
X121184234Y-120716726D01*
X121118032Y-120650409D01*
X121182131Y-120586422D01*
X121506630Y-119804943D01*
X121507368Y-118958770D01*
X121184234Y-118176726D01*
X121118032Y-118110409D01*
X121182131Y-118046422D01*
X121506630Y-117264943D01*
X121507368Y-116418770D01*
X121209139Y-115697000D01*
X124640750Y-115697000D01*
X124411624Y-116039911D01*
G36*
X134762911Y-139287125D02*
X135161644Y-139685858D01*
X135147502Y-139700000D01*
X135161644Y-139714142D01*
X134762662Y-140113124D01*
X134477089Y-140112875D01*
X134078356Y-139714142D01*
X134092498Y-139700000D01*
X134078356Y-139685858D01*
X134477338Y-139286876D01*
X134762911Y-139287125D01*
X134762911Y-139287125D01*
G37*
X134762911Y-139287125D02*
X135161644Y-139685858D01*
X135147502Y-139700000D01*
X135161644Y-139714142D01*
X134762662Y-140113124D01*
X134477089Y-140112875D01*
X134078356Y-139714142D01*
X134092498Y-139700000D01*
X134078356Y-139685858D01*
X134477338Y-139286876D01*
X134762911Y-139287125D01*
G36*
X137533000Y-139327000D02*
X137553000Y-139327000D01*
X137553000Y-140073000D01*
X137533000Y-140073000D01*
X137533000Y-140093000D01*
X136787000Y-140093000D01*
X136787000Y-140073000D01*
X136767000Y-140073000D01*
X136767000Y-139901670D01*
X136784400Y-139836028D01*
X136767000Y-139706550D01*
X136767000Y-139327000D01*
X136787000Y-139327000D01*
X136787000Y-139307000D01*
X137533000Y-139307000D01*
X137533000Y-139327000D01*
X137533000Y-139327000D01*
G37*
X137533000Y-139327000D02*
X137553000Y-139327000D01*
X137553000Y-140073000D01*
X137533000Y-140073000D01*
X137533000Y-140093000D01*
X136787000Y-140093000D01*
X136787000Y-140073000D01*
X136767000Y-140073000D01*
X136767000Y-139901670D01*
X136784400Y-139836028D01*
X136767000Y-139706550D01*
X136767000Y-139327000D01*
X136787000Y-139327000D01*
X136787000Y-139307000D01*
X137533000Y-139307000D01*
X137533000Y-139327000D01*
G36*
X140073000Y-134247000D02*
X140093000Y-134247000D01*
X140093000Y-134993000D01*
X140073000Y-134993000D01*
X140073000Y-135013000D01*
X139327000Y-135013000D01*
X139327000Y-134993000D01*
X139307000Y-134993000D01*
X139307000Y-134247000D01*
X139327000Y-134247000D01*
X139327000Y-134227000D01*
X140073000Y-134227000D01*
X140073000Y-134247000D01*
X140073000Y-134247000D01*
G37*
X140073000Y-134247000D02*
X140093000Y-134247000D01*
X140093000Y-134993000D01*
X140073000Y-134993000D01*
X140073000Y-135013000D01*
X139327000Y-135013000D01*
X139327000Y-134993000D01*
X139307000Y-134993000D01*
X139307000Y-134247000D01*
X139327000Y-134247000D01*
X139327000Y-134227000D01*
X140073000Y-134227000D01*
X140073000Y-134247000D01*
G36*
X140073000Y-129167000D02*
X140093000Y-129167000D01*
X140093000Y-129913000D01*
X140073000Y-129913000D01*
X140073000Y-129933000D01*
X139327000Y-129933000D01*
X139327000Y-129913000D01*
X137991150Y-129913000D01*
X137709400Y-130194750D01*
X137709400Y-130780174D01*
X137729210Y-130828000D01*
X136375593Y-130828000D01*
X136358032Y-130810409D01*
X136422131Y-130746422D01*
X136471063Y-130628581D01*
X136775298Y-130425298D01*
X138033596Y-129167000D01*
X139327000Y-129167000D01*
X139327000Y-129147000D01*
X140073000Y-129147000D01*
X140073000Y-129167000D01*
X140073000Y-129167000D01*
G37*
X140073000Y-129167000D02*
X140093000Y-129167000D01*
X140093000Y-129913000D01*
X140073000Y-129913000D01*
X140073000Y-129933000D01*
X139327000Y-129933000D01*
X139327000Y-129913000D01*
X137991150Y-129913000D01*
X137709400Y-130194750D01*
X137709400Y-130780174D01*
X137729210Y-130828000D01*
X136375593Y-130828000D01*
X136358032Y-130810409D01*
X136422131Y-130746422D01*
X136471063Y-130628581D01*
X136775298Y-130425298D01*
X138033596Y-129167000D01*
X139327000Y-129167000D01*
X139327000Y-129147000D01*
X140073000Y-129147000D01*
X140073000Y-129167000D01*
G36*
X137670402Y-121920000D02*
X137821927Y-122681770D01*
X137956223Y-122882758D01*
X137880976Y-122958006D01*
X137709400Y-123372226D01*
X137709400Y-123805250D01*
X137991150Y-124087000D01*
X139327000Y-124087000D01*
X139327000Y-124067000D01*
X140073000Y-124067000D01*
X140073000Y-124087000D01*
X140093000Y-124087000D01*
X140093000Y-124833000D01*
X140073000Y-124833000D01*
X140073000Y-124853000D01*
X139327000Y-124853000D01*
X139327000Y-124833000D01*
X137991150Y-124833000D01*
X137709400Y-125114750D01*
X137709400Y-125547774D01*
X137857623Y-125905615D01*
X137544702Y-126114702D01*
X137544700Y-126114705D01*
X136747077Y-126912328D01*
X136747368Y-126578770D01*
X136424234Y-125796726D01*
X136358032Y-125730409D01*
X136422131Y-125666422D01*
X136746630Y-124884943D01*
X136747368Y-124038770D01*
X136424234Y-123256726D01*
X136358032Y-123190409D01*
X136422131Y-123126422D01*
X136471063Y-123008581D01*
X136775298Y-122805298D01*
X137672837Y-121907759D01*
X137670402Y-121920000D01*
X137670402Y-121920000D01*
G37*
X137670402Y-121920000D02*
X137821927Y-122681770D01*
X137956223Y-122882758D01*
X137880976Y-122958006D01*
X137709400Y-123372226D01*
X137709400Y-123805250D01*
X137991150Y-124087000D01*
X139327000Y-124087000D01*
X139327000Y-124067000D01*
X140073000Y-124067000D01*
X140073000Y-124087000D01*
X140093000Y-124087000D01*
X140093000Y-124833000D01*
X140073000Y-124833000D01*
X140073000Y-124853000D01*
X139327000Y-124853000D01*
X139327000Y-124833000D01*
X137991150Y-124833000D01*
X137709400Y-125114750D01*
X137709400Y-125547774D01*
X137857623Y-125905615D01*
X137544702Y-126114702D01*
X137544700Y-126114705D01*
X136747077Y-126912328D01*
X136747368Y-126578770D01*
X136424234Y-125796726D01*
X136358032Y-125730409D01*
X136422131Y-125666422D01*
X136746630Y-124884943D01*
X136747368Y-124038770D01*
X136424234Y-123256726D01*
X136358032Y-123190409D01*
X136422131Y-123126422D01*
X136471063Y-123008581D01*
X136775298Y-122805298D01*
X137672837Y-121907759D01*
X137670402Y-121920000D01*
M02*
