G04 #@! TF.FileFunction,Legend,Bot*
%FSLAX46Y46*%
G04 Gerber Fmt 4.6, Leading zero omitted, Abs format (unit mm)*
G04 Created by KiCad (PCBNEW 4.0.4-stable) date 03/13/17 09:42:38*
%MOMM*%
%LPD*%
G01*
G04 APERTURE LIST*
%ADD10C,0.100000*%
%ADD11C,0.200000*%
%ADD12C,0.300000*%
%ADD13C,0.150000*%
G04 APERTURE END LIST*
D10*
D11*
X99949761Y-143002619D02*
X100616428Y-143002619D01*
X99949761Y-142002619D01*
X100616428Y-142002619D01*
X101378333Y-142050238D02*
X101283095Y-142002619D01*
X101092618Y-142002619D01*
X100997380Y-142050238D01*
X100949761Y-142145476D01*
X100949761Y-142526429D01*
X100997380Y-142621667D01*
X101092618Y-142669286D01*
X101283095Y-142669286D01*
X101378333Y-142621667D01*
X101425952Y-142526429D01*
X101425952Y-142431190D01*
X100949761Y-142335952D01*
X101854523Y-142669286D02*
X101854523Y-142002619D01*
X101854523Y-142574048D02*
X101902142Y-142621667D01*
X101997380Y-142669286D01*
X102140238Y-142669286D01*
X102235476Y-142621667D01*
X102283095Y-142526429D01*
X102283095Y-142002619D01*
X104045000Y-142955000D02*
X103949762Y-143002619D01*
X103806905Y-143002619D01*
X103664047Y-142955000D01*
X103568809Y-142859762D01*
X103521190Y-142764524D01*
X103473571Y-142574048D01*
X103473571Y-142431190D01*
X103521190Y-142240714D01*
X103568809Y-142145476D01*
X103664047Y-142050238D01*
X103806905Y-142002619D01*
X103902143Y-142002619D01*
X104045000Y-142050238D01*
X104092619Y-142097857D01*
X104092619Y-142431190D01*
X103902143Y-142431190D01*
X104949762Y-142002619D02*
X104949762Y-142526429D01*
X104902143Y-142621667D01*
X104806905Y-142669286D01*
X104616428Y-142669286D01*
X104521190Y-142621667D01*
X104949762Y-142050238D02*
X104854524Y-142002619D01*
X104616428Y-142002619D01*
X104521190Y-142050238D01*
X104473571Y-142145476D01*
X104473571Y-142240714D01*
X104521190Y-142335952D01*
X104616428Y-142383571D01*
X104854524Y-142383571D01*
X104949762Y-142431190D01*
X105425952Y-142002619D02*
X105425952Y-142669286D01*
X105425952Y-142478810D02*
X105473571Y-142574048D01*
X105521190Y-142621667D01*
X105616428Y-142669286D01*
X105711667Y-142669286D01*
X106473572Y-142002619D02*
X106473572Y-143002619D01*
X106473572Y-142050238D02*
X106378334Y-142002619D01*
X106187857Y-142002619D01*
X106092619Y-142050238D01*
X106045000Y-142097857D01*
X105997381Y-142193095D01*
X105997381Y-142478810D01*
X106045000Y-142574048D01*
X106092619Y-142621667D01*
X106187857Y-142669286D01*
X106378334Y-142669286D01*
X106473572Y-142621667D01*
X107330715Y-142050238D02*
X107235477Y-142002619D01*
X107045000Y-142002619D01*
X106949762Y-142050238D01*
X106902143Y-142145476D01*
X106902143Y-142526429D01*
X106949762Y-142621667D01*
X107045000Y-142669286D01*
X107235477Y-142669286D01*
X107330715Y-142621667D01*
X107378334Y-142526429D01*
X107378334Y-142431190D01*
X106902143Y-142335952D01*
X107806905Y-142669286D02*
X107806905Y-142002619D01*
X107806905Y-142574048D02*
X107854524Y-142621667D01*
X107949762Y-142669286D01*
X108092620Y-142669286D01*
X108187858Y-142621667D01*
X108235477Y-142526429D01*
X108235477Y-142002619D01*
X109425953Y-142050238D02*
X109568810Y-142002619D01*
X109806906Y-142002619D01*
X109902144Y-142050238D01*
X109949763Y-142097857D01*
X109997382Y-142193095D01*
X109997382Y-142288333D01*
X109949763Y-142383571D01*
X109902144Y-142431190D01*
X109806906Y-142478810D01*
X109616429Y-142526429D01*
X109521191Y-142574048D01*
X109473572Y-142621667D01*
X109425953Y-142716905D01*
X109425953Y-142812143D01*
X109473572Y-142907381D01*
X109521191Y-142955000D01*
X109616429Y-143002619D01*
X109854525Y-143002619D01*
X109997382Y-142955000D01*
X110283096Y-142669286D02*
X110664048Y-142669286D01*
X110425953Y-143002619D02*
X110425953Y-142145476D01*
X110473572Y-142050238D01*
X110568810Y-142002619D01*
X110664048Y-142002619D01*
X111425954Y-142002619D02*
X111425954Y-142526429D01*
X111378335Y-142621667D01*
X111283097Y-142669286D01*
X111092620Y-142669286D01*
X110997382Y-142621667D01*
X111425954Y-142050238D02*
X111330716Y-142002619D01*
X111092620Y-142002619D01*
X110997382Y-142050238D01*
X110949763Y-142145476D01*
X110949763Y-142240714D01*
X110997382Y-142335952D01*
X111092620Y-142383571D01*
X111330716Y-142383571D01*
X111425954Y-142431190D01*
X111902144Y-142002619D02*
X111902144Y-142669286D01*
X111902144Y-142478810D02*
X111949763Y-142574048D01*
X111997382Y-142621667D01*
X112092620Y-142669286D01*
X112187859Y-142669286D01*
X104735476Y-140302619D02*
X104402142Y-140778810D01*
X104164047Y-140302619D02*
X104164047Y-141302619D01*
X104545000Y-141302619D01*
X104640238Y-141255000D01*
X104687857Y-141207381D01*
X104735476Y-141112143D01*
X104735476Y-140969286D01*
X104687857Y-140874048D01*
X104640238Y-140826429D01*
X104545000Y-140778810D01*
X104164047Y-140778810D01*
X105545000Y-140350238D02*
X105449762Y-140302619D01*
X105259285Y-140302619D01*
X105164047Y-140350238D01*
X105116428Y-140445476D01*
X105116428Y-140826429D01*
X105164047Y-140921667D01*
X105259285Y-140969286D01*
X105449762Y-140969286D01*
X105545000Y-140921667D01*
X105592619Y-140826429D01*
X105592619Y-140731190D01*
X105116428Y-140635952D01*
X105925952Y-140969286D02*
X106164047Y-140302619D01*
X106402143Y-140969286D01*
X107497381Y-140588333D02*
X107973572Y-140588333D01*
X107402143Y-140302619D02*
X107735476Y-141302619D01*
X108068810Y-140302619D01*
X99814761Y-145177619D02*
X99814761Y-146177619D01*
X100148095Y-145463333D01*
X100481428Y-146177619D01*
X100481428Y-145177619D01*
X101386190Y-145177619D02*
X101386190Y-145701429D01*
X101338571Y-145796667D01*
X101243333Y-145844286D01*
X101052856Y-145844286D01*
X100957618Y-145796667D01*
X101386190Y-145225238D02*
X101290952Y-145177619D01*
X101052856Y-145177619D01*
X100957618Y-145225238D01*
X100909999Y-145320476D01*
X100909999Y-145415714D01*
X100957618Y-145510952D01*
X101052856Y-145558571D01*
X101290952Y-145558571D01*
X101386190Y-145606190D01*
X101719523Y-145844286D02*
X102100475Y-145844286D01*
X101862380Y-146177619D02*
X101862380Y-145320476D01*
X101909999Y-145225238D01*
X102005237Y-145177619D01*
X102100475Y-145177619D01*
X102290952Y-145844286D02*
X102671904Y-145844286D01*
X102433809Y-146177619D02*
X102433809Y-145320476D01*
X102481428Y-145225238D01*
X102576666Y-145177619D01*
X102671904Y-145177619D01*
X103005238Y-145177619D02*
X103005238Y-146177619D01*
X103433810Y-145177619D02*
X103433810Y-145701429D01*
X103386191Y-145796667D01*
X103290953Y-145844286D01*
X103148095Y-145844286D01*
X103052857Y-145796667D01*
X103005238Y-145749048D01*
X104290953Y-145225238D02*
X104195715Y-145177619D01*
X104005238Y-145177619D01*
X103910000Y-145225238D01*
X103862381Y-145320476D01*
X103862381Y-145701429D01*
X103910000Y-145796667D01*
X104005238Y-145844286D01*
X104195715Y-145844286D01*
X104290953Y-145796667D01*
X104338572Y-145701429D01*
X104338572Y-145606190D01*
X103862381Y-145510952D01*
X104671905Y-145844286D02*
X104862381Y-145177619D01*
X105052858Y-145653810D01*
X105243334Y-145177619D01*
X105433810Y-145844286D01*
X106529048Y-145225238D02*
X106671905Y-145177619D01*
X106910001Y-145177619D01*
X107005239Y-145225238D01*
X107052858Y-145272857D01*
X107100477Y-145368095D01*
X107100477Y-145463333D01*
X107052858Y-145558571D01*
X107005239Y-145606190D01*
X106910001Y-145653810D01*
X106719524Y-145701429D01*
X106624286Y-145749048D01*
X106576667Y-145796667D01*
X106529048Y-145891905D01*
X106529048Y-145987143D01*
X106576667Y-146082381D01*
X106624286Y-146130000D01*
X106719524Y-146177619D01*
X106957620Y-146177619D01*
X107100477Y-146130000D01*
X107433810Y-145844286D02*
X107624286Y-145177619D01*
X107814763Y-145653810D01*
X108005239Y-145177619D01*
X108195715Y-145844286D01*
X109005239Y-145177619D02*
X109005239Y-145701429D01*
X108957620Y-145796667D01*
X108862382Y-145844286D01*
X108671905Y-145844286D01*
X108576667Y-145796667D01*
X109005239Y-145225238D02*
X108910001Y-145177619D01*
X108671905Y-145177619D01*
X108576667Y-145225238D01*
X108529048Y-145320476D01*
X108529048Y-145415714D01*
X108576667Y-145510952D01*
X108671905Y-145558571D01*
X108910001Y-145558571D01*
X109005239Y-145606190D01*
X109481429Y-145177619D02*
X109481429Y-145844286D01*
X109481429Y-145653810D02*
X109529048Y-145749048D01*
X109576667Y-145796667D01*
X109671905Y-145844286D01*
X109767144Y-145844286D01*
X109957620Y-145844286D02*
X110338572Y-145844286D01*
X110100477Y-146177619D02*
X110100477Y-145320476D01*
X110148096Y-145225238D01*
X110243334Y-145177619D01*
X110338572Y-145177619D01*
X110624287Y-145225238D02*
X110719525Y-145177619D01*
X110910001Y-145177619D01*
X111005240Y-145225238D01*
X111052859Y-145320476D01*
X111052859Y-145368095D01*
X111005240Y-145463333D01*
X110910001Y-145510952D01*
X110767144Y-145510952D01*
X110671906Y-145558571D01*
X110624287Y-145653810D01*
X110624287Y-145701429D01*
X110671906Y-145796667D01*
X110767144Y-145844286D01*
X110910001Y-145844286D01*
X111005240Y-145796667D01*
X101314762Y-144382381D02*
X101362381Y-144430000D01*
X101457619Y-144477619D01*
X101695715Y-144477619D01*
X101790953Y-144430000D01*
X101838572Y-144382381D01*
X101886191Y-144287143D01*
X101886191Y-144191905D01*
X101838572Y-144049048D01*
X101267143Y-143477619D01*
X101886191Y-143477619D01*
X102505238Y-144477619D02*
X102600477Y-144477619D01*
X102695715Y-144430000D01*
X102743334Y-144382381D01*
X102790953Y-144287143D01*
X102838572Y-144096667D01*
X102838572Y-143858571D01*
X102790953Y-143668095D01*
X102743334Y-143572857D01*
X102695715Y-143525238D01*
X102600477Y-143477619D01*
X102505238Y-143477619D01*
X102410000Y-143525238D01*
X102362381Y-143572857D01*
X102314762Y-143668095D01*
X102267143Y-143858571D01*
X102267143Y-144096667D01*
X102314762Y-144287143D01*
X102362381Y-144382381D01*
X102410000Y-144430000D01*
X102505238Y-144477619D01*
X103790953Y-143477619D02*
X103219524Y-143477619D01*
X103505238Y-143477619D02*
X103505238Y-144477619D01*
X103410000Y-144334762D01*
X103314762Y-144239524D01*
X103219524Y-144191905D01*
X104124286Y-144477619D02*
X104790953Y-144477619D01*
X104362381Y-143477619D01*
X105171905Y-143572857D02*
X105219524Y-143525238D01*
X105171905Y-143477619D01*
X105124286Y-143525238D01*
X105171905Y-143572857D01*
X105171905Y-143477619D01*
X105838571Y-144477619D02*
X105933810Y-144477619D01*
X106029048Y-144430000D01*
X106076667Y-144382381D01*
X106124286Y-144287143D01*
X106171905Y-144096667D01*
X106171905Y-143858571D01*
X106124286Y-143668095D01*
X106076667Y-143572857D01*
X106029048Y-143525238D01*
X105933810Y-143477619D01*
X105838571Y-143477619D01*
X105743333Y-143525238D01*
X105695714Y-143572857D01*
X105648095Y-143668095D01*
X105600476Y-143858571D01*
X105600476Y-144096667D01*
X105648095Y-144287143D01*
X105695714Y-144382381D01*
X105743333Y-144430000D01*
X105838571Y-144477619D01*
X106505238Y-144477619D02*
X107124286Y-144477619D01*
X106790952Y-144096667D01*
X106933810Y-144096667D01*
X107029048Y-144049048D01*
X107076667Y-144001429D01*
X107124286Y-143906190D01*
X107124286Y-143668095D01*
X107076667Y-143572857D01*
X107029048Y-143525238D01*
X106933810Y-143477619D01*
X106648095Y-143477619D01*
X106552857Y-143525238D01*
X106505238Y-143572857D01*
X107552857Y-143572857D02*
X107600476Y-143525238D01*
X107552857Y-143477619D01*
X107505238Y-143525238D01*
X107552857Y-143572857D01*
X107552857Y-143477619D01*
X108552857Y-143477619D02*
X107981428Y-143477619D01*
X108267142Y-143477619D02*
X108267142Y-144477619D01*
X108171904Y-144334762D01*
X108076666Y-144239524D01*
X107981428Y-144191905D01*
X108886190Y-144477619D02*
X109505238Y-144477619D01*
X109171904Y-144096667D01*
X109314762Y-144096667D01*
X109410000Y-144049048D01*
X109457619Y-144001429D01*
X109505238Y-143906190D01*
X109505238Y-143668095D01*
X109457619Y-143572857D01*
X109410000Y-143525238D01*
X109314762Y-143477619D01*
X109029047Y-143477619D01*
X108933809Y-143525238D01*
X108886190Y-143572857D01*
D12*
X111652857Y-140048571D02*
X111652857Y-138905714D01*
X111081429Y-139477143D02*
X112224286Y-139477143D01*
X111081429Y-137334285D02*
X111795714Y-137834285D01*
X111081429Y-138191428D02*
X112581429Y-138191428D01*
X112581429Y-137620000D01*
X112510000Y-137477142D01*
X112438571Y-137405714D01*
X112295714Y-137334285D01*
X112081429Y-137334285D01*
X111938571Y-137405714D01*
X111867143Y-137477142D01*
X111795714Y-137620000D01*
X111795714Y-138191428D01*
X111652857Y-136691428D02*
X111652857Y-135548571D01*
X111081429Y-136120000D02*
X112224286Y-136120000D01*
X111652857Y-133691428D02*
X111652857Y-132548571D01*
X111081429Y-130977142D02*
X111795714Y-131477142D01*
X111081429Y-131834285D02*
X112581429Y-131834285D01*
X112581429Y-131262857D01*
X112510000Y-131119999D01*
X112438571Y-131048571D01*
X112295714Y-130977142D01*
X112081429Y-130977142D01*
X111938571Y-131048571D01*
X111867143Y-131119999D01*
X111795714Y-131262857D01*
X111795714Y-131834285D01*
X111652857Y-130334285D02*
X111652857Y-129191428D01*
X111652857Y-124808571D02*
X111652857Y-123665714D01*
X111081429Y-124237143D02*
X112224286Y-124237143D01*
X112510000Y-122165714D02*
X112581429Y-122308571D01*
X112581429Y-122522857D01*
X112510000Y-122737142D01*
X112367143Y-122880000D01*
X112224286Y-122951428D01*
X111938571Y-123022857D01*
X111724286Y-123022857D01*
X111438571Y-122951428D01*
X111295714Y-122880000D01*
X111152857Y-122737142D01*
X111081429Y-122522857D01*
X111081429Y-122380000D01*
X111152857Y-122165714D01*
X111224286Y-122094285D01*
X111724286Y-122094285D01*
X111724286Y-122380000D01*
X111652857Y-121451428D02*
X111652857Y-120308571D01*
X111081429Y-120880000D02*
X112224286Y-120880000D01*
X111652857Y-118451428D02*
X111652857Y-117308571D01*
X112510000Y-115808571D02*
X112581429Y-115951428D01*
X112581429Y-116165714D01*
X112510000Y-116379999D01*
X112367143Y-116522857D01*
X112224286Y-116594285D01*
X111938571Y-116665714D01*
X111724286Y-116665714D01*
X111438571Y-116594285D01*
X111295714Y-116522857D01*
X111152857Y-116379999D01*
X111081429Y-116165714D01*
X111081429Y-116022857D01*
X111152857Y-115808571D01*
X111224286Y-115737142D01*
X111724286Y-115737142D01*
X111724286Y-116022857D01*
X111652857Y-115094285D02*
X111652857Y-113951428D01*
X111652857Y-109568571D02*
X111652857Y-108425714D01*
X111081429Y-108997143D02*
X112224286Y-108997143D01*
X111867143Y-107211428D02*
X111795714Y-106997142D01*
X111724286Y-106925714D01*
X111581429Y-106854285D01*
X111367143Y-106854285D01*
X111224286Y-106925714D01*
X111152857Y-106997142D01*
X111081429Y-107140000D01*
X111081429Y-107711428D01*
X112581429Y-107711428D01*
X112581429Y-107211428D01*
X112510000Y-107068571D01*
X112438571Y-106997142D01*
X112295714Y-106925714D01*
X112152857Y-106925714D01*
X112010000Y-106997142D01*
X111938571Y-107068571D01*
X111867143Y-107211428D01*
X111867143Y-107711428D01*
X111652857Y-106211428D02*
X111652857Y-105068571D01*
X111081429Y-105640000D02*
X112224286Y-105640000D01*
X111652857Y-103211428D02*
X111652857Y-102068571D01*
X111867143Y-100854285D02*
X111795714Y-100639999D01*
X111724286Y-100568571D01*
X111581429Y-100497142D01*
X111367143Y-100497142D01*
X111224286Y-100568571D01*
X111152857Y-100639999D01*
X111081429Y-100782857D01*
X111081429Y-101354285D01*
X112581429Y-101354285D01*
X112581429Y-100854285D01*
X112510000Y-100711428D01*
X112438571Y-100639999D01*
X112295714Y-100568571D01*
X112152857Y-100568571D01*
X112010000Y-100639999D01*
X111938571Y-100711428D01*
X111867143Y-100854285D01*
X111867143Y-101354285D01*
X111652857Y-99854285D02*
X111652857Y-98711428D01*
X123214286Y-112002000D02*
X123071429Y-112073429D01*
X122857143Y-112073429D01*
X122642858Y-112002000D01*
X122500000Y-111859143D01*
X122428572Y-111716286D01*
X122357143Y-111430571D01*
X122357143Y-111216286D01*
X122428572Y-110930571D01*
X122500000Y-110787714D01*
X122642858Y-110644857D01*
X122857143Y-110573429D01*
X123000000Y-110573429D01*
X123214286Y-110644857D01*
X123285715Y-110716286D01*
X123285715Y-111216286D01*
X123000000Y-111216286D01*
X123928572Y-110573429D02*
X123928572Y-112073429D01*
X124785715Y-110573429D01*
X124785715Y-112073429D01*
X125500001Y-110573429D02*
X125500001Y-112073429D01*
X125857144Y-112073429D01*
X126071429Y-112002000D01*
X126214287Y-111859143D01*
X126285715Y-111716286D01*
X126357144Y-111430571D01*
X126357144Y-111216286D01*
X126285715Y-110930571D01*
X126214287Y-110787714D01*
X126071429Y-110644857D01*
X125857144Y-110573429D01*
X125500001Y-110573429D01*
X128000001Y-112073429D02*
X128928572Y-112073429D01*
X128428572Y-111502000D01*
X128642858Y-111502000D01*
X128785715Y-111430571D01*
X128857144Y-111359143D01*
X128928572Y-111216286D01*
X128928572Y-110859143D01*
X128857144Y-110716286D01*
X128785715Y-110644857D01*
X128642858Y-110573429D01*
X128214286Y-110573429D01*
X128071429Y-110644857D01*
X128000001Y-110716286D01*
X130214286Y-112073429D02*
X129928572Y-112073429D01*
X129785715Y-112002000D01*
X129714286Y-111930571D01*
X129571429Y-111716286D01*
X129500000Y-111430571D01*
X129500000Y-110859143D01*
X129571429Y-110716286D01*
X129642857Y-110644857D01*
X129785715Y-110573429D01*
X130071429Y-110573429D01*
X130214286Y-110644857D01*
X130285715Y-110716286D01*
X130357143Y-110859143D01*
X130357143Y-111216286D01*
X130285715Y-111359143D01*
X130214286Y-111430571D01*
X130071429Y-111502000D01*
X129785715Y-111502000D01*
X129642857Y-111430571D01*
X129571429Y-111359143D01*
X129500000Y-111216286D01*
X130785714Y-112073429D02*
X131285714Y-110573429D01*
X131785714Y-112073429D01*
D11*
X137969285Y-110838571D02*
X137826428Y-110886190D01*
X137778809Y-110933810D01*
X137731190Y-111029048D01*
X137731190Y-111171905D01*
X137778809Y-111267143D01*
X137826428Y-111314762D01*
X137921666Y-111362381D01*
X138302619Y-111362381D01*
X138302619Y-110362381D01*
X137969285Y-110362381D01*
X137874047Y-110410000D01*
X137826428Y-110457619D01*
X137778809Y-110552857D01*
X137778809Y-110648095D01*
X137826428Y-110743333D01*
X137874047Y-110790952D01*
X137969285Y-110838571D01*
X138302619Y-110838571D01*
X137302619Y-111362381D02*
X137302619Y-110695714D01*
X137302619Y-110886190D02*
X137255000Y-110790952D01*
X137207381Y-110743333D01*
X137112143Y-110695714D01*
X137016904Y-110695714D01*
X136683571Y-111362381D02*
X136683571Y-110695714D01*
X136683571Y-110362381D02*
X136731190Y-110410000D01*
X136683571Y-110457619D01*
X136635952Y-110410000D01*
X136683571Y-110362381D01*
X136683571Y-110457619D01*
X135778809Y-111362381D02*
X135778809Y-110362381D01*
X135778809Y-111314762D02*
X135874047Y-111362381D01*
X136064524Y-111362381D01*
X136159762Y-111314762D01*
X136207381Y-111267143D01*
X136255000Y-111171905D01*
X136255000Y-110886190D01*
X136207381Y-110790952D01*
X136159762Y-110743333D01*
X136064524Y-110695714D01*
X135874047Y-110695714D01*
X135778809Y-110743333D01*
X134874047Y-110695714D02*
X134874047Y-111505238D01*
X134921666Y-111600476D01*
X134969285Y-111648095D01*
X135064524Y-111695714D01*
X135207381Y-111695714D01*
X135302619Y-111648095D01*
X134874047Y-111314762D02*
X134969285Y-111362381D01*
X135159762Y-111362381D01*
X135255000Y-111314762D01*
X135302619Y-111267143D01*
X135350238Y-111171905D01*
X135350238Y-110886190D01*
X135302619Y-110790952D01*
X135255000Y-110743333D01*
X135159762Y-110695714D01*
X134969285Y-110695714D01*
X134874047Y-110743333D01*
X134016904Y-111314762D02*
X134112142Y-111362381D01*
X134302619Y-111362381D01*
X134397857Y-111314762D01*
X134445476Y-111219524D01*
X134445476Y-110838571D01*
X134397857Y-110743333D01*
X134302619Y-110695714D01*
X134112142Y-110695714D01*
X134016904Y-110743333D01*
X133969285Y-110838571D01*
X133969285Y-110933810D01*
X134445476Y-111029048D01*
X132778809Y-111362381D02*
X132778809Y-110695714D01*
X132778809Y-110362381D02*
X132826428Y-110410000D01*
X132778809Y-110457619D01*
X132731190Y-110410000D01*
X132778809Y-110362381D01*
X132778809Y-110457619D01*
X132445476Y-110695714D02*
X132064524Y-110695714D01*
X132302619Y-111362381D02*
X132302619Y-110505238D01*
X132255000Y-110410000D01*
X132159762Y-110362381D01*
X132064524Y-110362381D01*
X139302619Y-112062381D02*
X138969286Y-113062381D01*
X138635952Y-112062381D01*
X137826428Y-112062381D02*
X138302619Y-112062381D01*
X138350238Y-112538571D01*
X138302619Y-112490952D01*
X138207381Y-112443333D01*
X137969285Y-112443333D01*
X137874047Y-112490952D01*
X137826428Y-112538571D01*
X137778809Y-112633810D01*
X137778809Y-112871905D01*
X137826428Y-112967143D01*
X137874047Y-113014762D01*
X137969285Y-113062381D01*
X138207381Y-113062381D01*
X138302619Y-113014762D01*
X138350238Y-112967143D01*
X137159762Y-112062381D02*
X137064523Y-112062381D01*
X136969285Y-112110000D01*
X136921666Y-112157619D01*
X136874047Y-112252857D01*
X136826428Y-112443333D01*
X136826428Y-112681429D01*
X136874047Y-112871905D01*
X136921666Y-112967143D01*
X136969285Y-113014762D01*
X137064523Y-113062381D01*
X137159762Y-113062381D01*
X137255000Y-113014762D01*
X137302619Y-112967143D01*
X137350238Y-112871905D01*
X137397857Y-112681429D01*
X137397857Y-112443333D01*
X137350238Y-112252857D01*
X137302619Y-112157619D01*
X137255000Y-112110000D01*
X137159762Y-112062381D01*
X135635952Y-112538571D02*
X134874047Y-112538571D01*
X134874047Y-112824286D02*
X135635952Y-112824286D01*
X133778809Y-112062381D02*
X133445476Y-113062381D01*
X133112142Y-112062381D01*
X132874047Y-112062381D02*
X132254999Y-112062381D01*
X132588333Y-112443333D01*
X132445475Y-112443333D01*
X132350237Y-112490952D01*
X132302618Y-112538571D01*
X132254999Y-112633810D01*
X132254999Y-112871905D01*
X132302618Y-112967143D01*
X132350237Y-113014762D01*
X132445475Y-113062381D01*
X132731190Y-113062381D01*
X132826428Y-113014762D01*
X132874047Y-112967143D01*
X131921666Y-112062381D02*
X131302618Y-112062381D01*
X131635952Y-112443333D01*
X131493094Y-112443333D01*
X131397856Y-112490952D01*
X131350237Y-112538571D01*
X131302618Y-112633810D01*
X131302618Y-112871905D01*
X131350237Y-112967143D01*
X131397856Y-113014762D01*
X131493094Y-113062381D01*
X131778809Y-113062381D01*
X131874047Y-113014762D01*
X131921666Y-112967143D01*
X138840000Y-126390477D02*
X138763810Y-126314286D01*
X138763810Y-126200001D01*
X138840000Y-126085715D01*
X138992381Y-126009524D01*
X139144762Y-125971429D01*
X139449524Y-125933334D01*
X139678095Y-125933334D01*
X139982857Y-125971429D01*
X140135238Y-126009524D01*
X140287619Y-126085715D01*
X140363810Y-126200001D01*
X140363810Y-126276191D01*
X140287619Y-126390477D01*
X140211429Y-126428572D01*
X139678095Y-126428572D01*
X139678095Y-126276191D01*
X140363810Y-126771429D02*
X138763810Y-126771429D01*
X140363810Y-127228572D01*
X138763810Y-127228572D01*
X140363810Y-127609524D02*
X138763810Y-127609524D01*
X138763810Y-127800000D01*
X138840000Y-127914286D01*
X138992381Y-127990477D01*
X139144762Y-128028572D01*
X139449524Y-128066667D01*
X139678095Y-128066667D01*
X139982857Y-128028572D01*
X140135238Y-127990477D01*
X140287619Y-127914286D01*
X140363810Y-127800000D01*
X140363810Y-127609524D01*
X142963810Y-125819048D02*
X141363810Y-125819048D01*
X141363810Y-126123810D01*
X141440000Y-126200001D01*
X141516190Y-126238096D01*
X141668571Y-126276191D01*
X141897143Y-126276191D01*
X142049524Y-126238096D01*
X142125714Y-126200001D01*
X142201905Y-126123810D01*
X142201905Y-125819048D01*
X142963810Y-126619048D02*
X141363810Y-126619048D01*
X142963810Y-127457143D02*
X142201905Y-127190476D01*
X142963810Y-127000000D02*
X141363810Y-127000000D01*
X141363810Y-127304762D01*
X141440000Y-127380953D01*
X141516190Y-127419048D01*
X141668571Y-127457143D01*
X141897143Y-127457143D01*
X142049524Y-127419048D01*
X142125714Y-127380953D01*
X142201905Y-127304762D01*
X142201905Y-127000000D01*
X141363810Y-127952381D02*
X141363810Y-128028572D01*
X141440000Y-128104762D01*
X141516190Y-128142857D01*
X141668571Y-128180953D01*
X141973333Y-128219048D01*
X142354286Y-128219048D01*
X142659048Y-128180953D01*
X142811429Y-128142857D01*
X142887619Y-128104762D01*
X142963810Y-128028572D01*
X142963810Y-127952381D01*
X142887619Y-127876191D01*
X142811429Y-127838095D01*
X142659048Y-127800000D01*
X142354286Y-127761905D01*
X141973333Y-127761905D01*
X141668571Y-127800000D01*
X141516190Y-127838095D01*
X141440000Y-127876191D01*
X141363810Y-127952381D01*
X143963810Y-125971428D02*
X145563810Y-126238095D01*
X143963810Y-126504762D01*
X143963810Y-127152381D02*
X143963810Y-126771428D01*
X144725714Y-126733333D01*
X144649524Y-126771428D01*
X144573333Y-126847619D01*
X144573333Y-127038095D01*
X144649524Y-127114285D01*
X144725714Y-127152381D01*
X144878095Y-127190476D01*
X145259048Y-127190476D01*
X145411429Y-127152381D01*
X145487619Y-127114285D01*
X145563810Y-127038095D01*
X145563810Y-126847619D01*
X145487619Y-126771428D01*
X145411429Y-126733333D01*
X143963810Y-127685714D02*
X143963810Y-127761905D01*
X144040000Y-127838095D01*
X144116190Y-127876190D01*
X144268571Y-127914286D01*
X144573333Y-127952381D01*
X144954286Y-127952381D01*
X145259048Y-127914286D01*
X145411429Y-127876190D01*
X145487619Y-127838095D01*
X145563810Y-127761905D01*
X145563810Y-127685714D01*
X145487619Y-127609524D01*
X145411429Y-127571428D01*
X145259048Y-127533333D01*
X144954286Y-127495238D01*
X144573333Y-127495238D01*
X144268571Y-127533333D01*
X144116190Y-127571428D01*
X144040000Y-127609524D01*
X143963810Y-127685714D01*
X138840000Y-131470477D02*
X138763810Y-131394286D01*
X138763810Y-131280001D01*
X138840000Y-131165715D01*
X138992381Y-131089524D01*
X139144762Y-131051429D01*
X139449524Y-131013334D01*
X139678095Y-131013334D01*
X139982857Y-131051429D01*
X140135238Y-131089524D01*
X140287619Y-131165715D01*
X140363810Y-131280001D01*
X140363810Y-131356191D01*
X140287619Y-131470477D01*
X140211429Y-131508572D01*
X139678095Y-131508572D01*
X139678095Y-131356191D01*
X140363810Y-131851429D02*
X138763810Y-131851429D01*
X140363810Y-132308572D01*
X138763810Y-132308572D01*
X140363810Y-132689524D02*
X138763810Y-132689524D01*
X138763810Y-132880000D01*
X138840000Y-132994286D01*
X138992381Y-133070477D01*
X139144762Y-133108572D01*
X139449524Y-133146667D01*
X139678095Y-133146667D01*
X139982857Y-133108572D01*
X140135238Y-133070477D01*
X140287619Y-132994286D01*
X140363810Y-132880000D01*
X140363810Y-132689524D01*
X142963810Y-130899048D02*
X141363810Y-130899048D01*
X141363810Y-131203810D01*
X141440000Y-131280001D01*
X141516190Y-131318096D01*
X141668571Y-131356191D01*
X141897143Y-131356191D01*
X142049524Y-131318096D01*
X142125714Y-131280001D01*
X142201905Y-131203810D01*
X142201905Y-130899048D01*
X142963810Y-131699048D02*
X141363810Y-131699048D01*
X142963810Y-132537143D02*
X142201905Y-132270476D01*
X142963810Y-132080000D02*
X141363810Y-132080000D01*
X141363810Y-132384762D01*
X141440000Y-132460953D01*
X141516190Y-132499048D01*
X141668571Y-132537143D01*
X141897143Y-132537143D01*
X142049524Y-132499048D01*
X142125714Y-132460953D01*
X142201905Y-132384762D01*
X142201905Y-132080000D01*
X142963810Y-133299048D02*
X142963810Y-132841905D01*
X142963810Y-133070476D02*
X141363810Y-133070476D01*
X141592381Y-132994286D01*
X141744762Y-132918095D01*
X141820952Y-132841905D01*
X143963810Y-131051428D02*
X145563810Y-131318095D01*
X143963810Y-131584762D01*
X143963810Y-132232381D02*
X143963810Y-131851428D01*
X144725714Y-131813333D01*
X144649524Y-131851428D01*
X144573333Y-131927619D01*
X144573333Y-132118095D01*
X144649524Y-132194285D01*
X144725714Y-132232381D01*
X144878095Y-132270476D01*
X145259048Y-132270476D01*
X145411429Y-132232381D01*
X145487619Y-132194285D01*
X145563810Y-132118095D01*
X145563810Y-131927619D01*
X145487619Y-131851428D01*
X145411429Y-131813333D01*
X143963810Y-132765714D02*
X143963810Y-132841905D01*
X144040000Y-132918095D01*
X144116190Y-132956190D01*
X144268571Y-132994286D01*
X144573333Y-133032381D01*
X144954286Y-133032381D01*
X145259048Y-132994286D01*
X145411429Y-132956190D01*
X145487619Y-132918095D01*
X145563810Y-132841905D01*
X145563810Y-132765714D01*
X145487619Y-132689524D01*
X145411429Y-132651428D01*
X145259048Y-132613333D01*
X144954286Y-132575238D01*
X144573333Y-132575238D01*
X144268571Y-132613333D01*
X144116190Y-132651428D01*
X144040000Y-132689524D01*
X143963810Y-132765714D01*
X136270000Y-136550477D02*
X136193810Y-136474286D01*
X136193810Y-136360001D01*
X136270000Y-136245715D01*
X136422381Y-136169524D01*
X136574762Y-136131429D01*
X136879524Y-136093334D01*
X137108095Y-136093334D01*
X137412857Y-136131429D01*
X137565238Y-136169524D01*
X137717619Y-136245715D01*
X137793810Y-136360001D01*
X137793810Y-136436191D01*
X137717619Y-136550477D01*
X137641429Y-136588572D01*
X137108095Y-136588572D01*
X137108095Y-136436191D01*
X137793810Y-136931429D02*
X136193810Y-136931429D01*
X137793810Y-137388572D01*
X136193810Y-137388572D01*
X137793810Y-137769524D02*
X136193810Y-137769524D01*
X136193810Y-137960000D01*
X136270000Y-138074286D01*
X136422381Y-138150477D01*
X136574762Y-138188572D01*
X136879524Y-138226667D01*
X137108095Y-138226667D01*
X137412857Y-138188572D01*
X137565238Y-138150477D01*
X137717619Y-138074286D01*
X137793810Y-137960000D01*
X137793810Y-137769524D01*
X138793810Y-136131428D02*
X140393810Y-136398095D01*
X138793810Y-136664762D01*
X138793810Y-137312381D02*
X138793810Y-136931428D01*
X139555714Y-136893333D01*
X139479524Y-136931428D01*
X139403333Y-137007619D01*
X139403333Y-137198095D01*
X139479524Y-137274285D01*
X139555714Y-137312381D01*
X139708095Y-137350476D01*
X140089048Y-137350476D01*
X140241429Y-137312381D01*
X140317619Y-137274285D01*
X140393810Y-137198095D01*
X140393810Y-137007619D01*
X140317619Y-136931428D01*
X140241429Y-136893333D01*
X138793810Y-137845714D02*
X138793810Y-137921905D01*
X138870000Y-137998095D01*
X138946190Y-138036190D01*
X139098571Y-138074286D01*
X139403333Y-138112381D01*
X139784286Y-138112381D01*
X140089048Y-138074286D01*
X140241429Y-138036190D01*
X140317619Y-137998095D01*
X140393810Y-137921905D01*
X140393810Y-137845714D01*
X140317619Y-137769524D01*
X140241429Y-137731428D01*
X140089048Y-137693333D01*
X139784286Y-137655238D01*
X139403333Y-137655238D01*
X139098571Y-137693333D01*
X138946190Y-137731428D01*
X138870000Y-137769524D01*
X138793810Y-137845714D01*
X142917619Y-136188572D02*
X142993810Y-136302858D01*
X142993810Y-136493334D01*
X142917619Y-136569524D01*
X142841429Y-136607620D01*
X142689048Y-136645715D01*
X142536667Y-136645715D01*
X142384286Y-136607620D01*
X142308095Y-136569524D01*
X142231905Y-136493334D01*
X142155714Y-136340953D01*
X142079524Y-136264762D01*
X142003333Y-136226667D01*
X141850952Y-136188572D01*
X141698571Y-136188572D01*
X141546190Y-136226667D01*
X141470000Y-136264762D01*
X141393810Y-136340953D01*
X141393810Y-136531429D01*
X141470000Y-136645715D01*
X142993810Y-136988572D02*
X141393810Y-136988572D01*
X141393810Y-137179048D01*
X141470000Y-137293334D01*
X141622381Y-137369525D01*
X141774762Y-137407620D01*
X142079524Y-137445715D01*
X142308095Y-137445715D01*
X142612857Y-137407620D01*
X142765238Y-137369525D01*
X142917619Y-137293334D01*
X142993810Y-137179048D01*
X142993810Y-136988572D01*
X142536667Y-137750477D02*
X142536667Y-138131429D01*
X142993810Y-137674286D02*
X141393810Y-137940953D01*
X142993810Y-138207620D01*
X145517619Y-136207619D02*
X145593810Y-136321905D01*
X145593810Y-136512381D01*
X145517619Y-136588571D01*
X145441429Y-136626667D01*
X145289048Y-136664762D01*
X145136667Y-136664762D01*
X144984286Y-136626667D01*
X144908095Y-136588571D01*
X144831905Y-136512381D01*
X144755714Y-136360000D01*
X144679524Y-136283809D01*
X144603333Y-136245714D01*
X144450952Y-136207619D01*
X144298571Y-136207619D01*
X144146190Y-136245714D01*
X144070000Y-136283809D01*
X143993810Y-136360000D01*
X143993810Y-136550476D01*
X144070000Y-136664762D01*
X145441429Y-137464762D02*
X145517619Y-137426667D01*
X145593810Y-137312381D01*
X145593810Y-137236191D01*
X145517619Y-137121905D01*
X145365238Y-137045714D01*
X145212857Y-137007619D01*
X144908095Y-136969524D01*
X144679524Y-136969524D01*
X144374762Y-137007619D01*
X144222381Y-137045714D01*
X144070000Y-137121905D01*
X143993810Y-137236191D01*
X143993810Y-137312381D01*
X144070000Y-137426667D01*
X144146190Y-137464762D01*
X145593810Y-138188572D02*
X145593810Y-137807619D01*
X143993810Y-137807619D01*
X139065000Y-125730000D02*
G75*
G03X139065000Y-125730000I-635000J0D01*
G01*
D10*
X127000000Y-131445000D02*
X122555000Y-127000000D01*
X122555000Y-127000000D02*
X127000000Y-122555000D01*
X127000000Y-122555000D02*
X131445000Y-127000000D01*
X131445000Y-127000000D02*
X127000000Y-131445000D01*
X128016000Y-116205000D02*
G75*
G03X128016000Y-116205000I-1016000J0D01*
G01*
X125095000Y-118110000D02*
X125095000Y-114300000D01*
X125095000Y-114300000D02*
X128905000Y-114300000D01*
X128905000Y-114300000D02*
X128905000Y-118110000D01*
X128905000Y-118110000D02*
X125095000Y-118110000D01*
X118110000Y-113030000D02*
X135890000Y-113030000D01*
X135890000Y-113030000D02*
X135890000Y-146050000D01*
X135890000Y-146050000D02*
X118110000Y-146050000D01*
X118110000Y-146050000D02*
X118110000Y-113030000D01*
D13*
X142494000Y-113030000D02*
X145034000Y-113030000D01*
X139674000Y-113310000D02*
X141224000Y-113310000D01*
X142494000Y-113030000D02*
X142494000Y-110490000D01*
X141224000Y-110210000D02*
X139674000Y-110210000D01*
X139674000Y-110210000D02*
X139674000Y-113310000D01*
X142494000Y-110490000D02*
X145034000Y-110490000D01*
X145034000Y-110490000D02*
X145034000Y-113030000D01*
D10*
X137160000Y-127000000D02*
X166370000Y-127000000D01*
X166370000Y-127000000D02*
X166370000Y-111760000D01*
X166370000Y-111760000D02*
X137160000Y-111760000D01*
X137160000Y-127000000D02*
X137160000Y-111760000D01*
D13*
X138430000Y-123190000D02*
X138430000Y-115570000D01*
X138430000Y-115570000D02*
X143510000Y-115570000D01*
X143510000Y-115570000D02*
X143510000Y-125730000D01*
X143510000Y-125730000D02*
X140970000Y-125730000D01*
X139827000Y-125857600D02*
X138277000Y-125857600D01*
X140970000Y-125730000D02*
X140970000Y-123190000D01*
X140970000Y-123190000D02*
X138430000Y-123190000D01*
X138302400Y-125857600D02*
X138302400Y-124307600D01*
X114107000Y-109529000D02*
X121605000Y-109529000D01*
X114112000Y-109669000D02*
X121600000Y-109669000D01*
X114123000Y-109809000D02*
X117410000Y-109809000D01*
X118302000Y-109809000D02*
X121589000Y-109809000D01*
X114139000Y-109949000D02*
X117200000Y-109949000D01*
X118512000Y-109949000D02*
X121573000Y-109949000D01*
X114160000Y-110089000D02*
X117067000Y-110089000D01*
X118645000Y-110089000D02*
X121552000Y-110089000D01*
X114187000Y-110229000D02*
X116976000Y-110229000D01*
X118736000Y-110229000D02*
X121525000Y-110229000D01*
X114219000Y-110369000D02*
X116914000Y-110369000D01*
X118798000Y-110369000D02*
X121493000Y-110369000D01*
X114257000Y-110509000D02*
X116875000Y-110509000D01*
X118837000Y-110509000D02*
X121455000Y-110509000D01*
X114301000Y-110649000D02*
X116858000Y-110649000D01*
X118854000Y-110649000D02*
X121411000Y-110649000D01*
X114352000Y-110789000D02*
X116860000Y-110789000D01*
X118852000Y-110789000D02*
X121360000Y-110789000D01*
X114408000Y-110929000D02*
X116882000Y-110929000D01*
X118830000Y-110929000D02*
X121304000Y-110929000D01*
X114472000Y-111069000D02*
X116925000Y-111069000D01*
X118787000Y-111069000D02*
X121240000Y-111069000D01*
X114542000Y-111209000D02*
X116993000Y-111209000D01*
X118719000Y-111209000D02*
X121170000Y-111209000D01*
X114620000Y-111349000D02*
X117092000Y-111349000D01*
X118620000Y-111349000D02*
X121092000Y-111349000D01*
X114706000Y-111489000D02*
X117237000Y-111489000D01*
X118475000Y-111489000D02*
X121006000Y-111489000D01*
X114801000Y-111629000D02*
X117476000Y-111629000D01*
X118236000Y-111629000D02*
X120911000Y-111629000D01*
X114906000Y-111769000D02*
X120806000Y-111769000D01*
X115021000Y-111909000D02*
X120691000Y-111909000D01*
X115149000Y-112049000D02*
X120563000Y-112049000D01*
X115290000Y-112189000D02*
X120422000Y-112189000D01*
X115448000Y-112329000D02*
X120264000Y-112329000D01*
X115626000Y-112469000D02*
X120086000Y-112469000D01*
X115829000Y-112609000D02*
X119883000Y-112609000D01*
X116066000Y-112749000D02*
X119646000Y-112749000D01*
X116352000Y-112889000D02*
X119360000Y-112889000D01*
X116724000Y-113029000D02*
X118988000Y-113029000D01*
X117345000Y-113169000D02*
X118367000Y-113169000D01*
X118856000Y-110704000D02*
G75*
G03X118856000Y-110704000I-1000000J0D01*
G01*
X121643500Y-109454000D02*
G75*
G03X121643500Y-109454000I-3787500J0D01*
G01*
X109221953Y-134218882D02*
X108459953Y-132899059D01*
X113793953Y-142137818D02*
X114555953Y-143457641D01*
X115705628Y-139860936D02*
X110866278Y-142654936D01*
X115832628Y-140080907D02*
X110993278Y-142874907D01*
X115959628Y-140300877D02*
X111120278Y-143094877D01*
X111374278Y-143534818D02*
X116213628Y-140740818D01*
X116213628Y-140740818D02*
X111641628Y-132821882D01*
X111641628Y-132821882D02*
X106802278Y-135615882D01*
X106802278Y-135615882D02*
X111374278Y-143534818D01*
X108713953Y-118978882D02*
X107951953Y-117659059D01*
X113285953Y-126897818D02*
X114047953Y-128217641D01*
X115197628Y-124620936D02*
X110358278Y-127414936D01*
X115324628Y-124840907D02*
X110485278Y-127634907D01*
X115451628Y-125060877D02*
X110612278Y-127854877D01*
X110866278Y-128294818D02*
X115705628Y-125500818D01*
X115705628Y-125500818D02*
X111133628Y-117581882D01*
X111133628Y-117581882D02*
X106294278Y-120375882D01*
X106294278Y-120375882D02*
X110866278Y-128294818D01*
X108713953Y-103738882D02*
X107951953Y-102419059D01*
X113285953Y-111657818D02*
X114047953Y-112977641D01*
X115197628Y-109380936D02*
X110358278Y-112174936D01*
X115324628Y-109600907D02*
X110485278Y-112394907D01*
X115451628Y-109820877D02*
X110612278Y-112614877D01*
X110866278Y-113054818D02*
X115705628Y-110260818D01*
X115705628Y-110260818D02*
X111133628Y-102341882D01*
X111133628Y-102341882D02*
X106294278Y-105135882D01*
X106294278Y-105135882D02*
X110866278Y-113054818D01*
X141159000Y-105721000D02*
X133161000Y-105721000D01*
X141154000Y-105581000D02*
X133166000Y-105581000D01*
X141144000Y-105441000D02*
X133176000Y-105441000D01*
X141129000Y-105301000D02*
X133191000Y-105301000D01*
X141109000Y-105161000D02*
X133211000Y-105161000D01*
X141084000Y-105021000D02*
X133236000Y-105021000D01*
X141054000Y-104881000D02*
X137333000Y-104881000D01*
X136987000Y-104881000D02*
X133266000Y-104881000D01*
X141018000Y-104741000D02*
X137695000Y-104741000D01*
X136625000Y-104741000D02*
X133302000Y-104741000D01*
X140977000Y-104601000D02*
X137869000Y-104601000D01*
X136451000Y-104601000D02*
X133343000Y-104601000D01*
X140931000Y-104461000D02*
X137985000Y-104461000D01*
X136335000Y-104461000D02*
X133389000Y-104461000D01*
X140878000Y-104321000D02*
X138065000Y-104321000D01*
X136255000Y-104321000D02*
X133442000Y-104321000D01*
X140819000Y-104181000D02*
X138119000Y-104181000D01*
X136201000Y-104181000D02*
X133501000Y-104181000D01*
X140754000Y-104041000D02*
X138149000Y-104041000D01*
X136171000Y-104041000D02*
X133566000Y-104041000D01*
X140683000Y-103901000D02*
X138160000Y-103901000D01*
X136160000Y-103901000D02*
X133637000Y-103901000D01*
X140604000Y-103761000D02*
X138151000Y-103761000D01*
X136169000Y-103761000D02*
X133716000Y-103761000D01*
X140517000Y-103621000D02*
X138121000Y-103621000D01*
X136199000Y-103621000D02*
X133803000Y-103621000D01*
X140422000Y-103481000D02*
X138070000Y-103481000D01*
X136250000Y-103481000D02*
X133898000Y-103481000D01*
X140318000Y-103341000D02*
X137992000Y-103341000D01*
X136328000Y-103341000D02*
X134002000Y-103341000D01*
X140204000Y-103201000D02*
X137879000Y-103201000D01*
X136441000Y-103201000D02*
X134116000Y-103201000D01*
X140079000Y-103061000D02*
X137710000Y-103061000D01*
X136610000Y-103061000D02*
X134241000Y-103061000D01*
X139941000Y-102921000D02*
X137382000Y-102921000D01*
X136938000Y-102921000D02*
X134379000Y-102921000D01*
X139789000Y-102781000D02*
X134531000Y-102781000D01*
X139619000Y-102641000D02*
X134701000Y-102641000D01*
X139428000Y-102501000D02*
X134892000Y-102501000D01*
X139210000Y-102361000D02*
X135110000Y-102361000D01*
X138954000Y-102221000D02*
X135366000Y-102221000D01*
X138643000Y-102081000D02*
X135677000Y-102081000D01*
X138227000Y-101941000D02*
X136093000Y-101941000D01*
X137360000Y-101801000D02*
X136960000Y-101801000D01*
X138160000Y-103896000D02*
G75*
G03X138160000Y-103896000I-1000000J0D01*
G01*
X141197500Y-105796000D02*
G75*
G03X141197500Y-105796000I-4037500J0D01*
G01*
X123200400Y-101600000D02*
X125740400Y-101600000D01*
X125740400Y-101600000D02*
X125740400Y-104394000D01*
X123200400Y-104394000D02*
X125740400Y-104394000D01*
X123200400Y-101600000D02*
X123200400Y-104394000D01*
X128204200Y-101600000D02*
X130744200Y-101600000D01*
X130744200Y-101600000D02*
X130744200Y-104394000D01*
X128204200Y-104394000D02*
X130744200Y-104394000D01*
X128204200Y-101600000D02*
X128204200Y-104394000D01*
X132065000Y-110363000D02*
X132065000Y-107315000D01*
X132065000Y-110363000D02*
X121880000Y-110363000D01*
X132065000Y-110363000D02*
X132573000Y-110363000D01*
X132573000Y-110363000D02*
X132573000Y-105537000D01*
X132573000Y-105537000D02*
X132065000Y-105791000D01*
X132573000Y-98679000D02*
X132065000Y-98933000D01*
X132065000Y-98933000D02*
X132065000Y-97917000D01*
X132573000Y-100330000D02*
X132065000Y-100076000D01*
X132065000Y-100076000D02*
X132065000Y-98933000D01*
X132573000Y-100330000D02*
X132573000Y-98679000D01*
X127442200Y-97917000D02*
X127442200Y-99822000D01*
X131506200Y-104394000D02*
X131506200Y-99822000D01*
X127442200Y-97917000D02*
X131506200Y-97917000D01*
X131506200Y-97917000D02*
X132065000Y-97917000D01*
X126502400Y-97917000D02*
X126502400Y-99822000D01*
X126502400Y-97917000D02*
X127442200Y-97917000D01*
X122438400Y-104394000D02*
X122438400Y-99822000D01*
X121880000Y-97917000D02*
X122438400Y-97917000D01*
X122438400Y-97917000D02*
X126502400Y-97917000D01*
X127442200Y-99822000D02*
X131506200Y-99822000D01*
X127442200Y-99822000D02*
X127442200Y-104394000D01*
X131506200Y-99822000D02*
X131506200Y-97917000D01*
X126502400Y-99822000D02*
X122438400Y-99822000D01*
X126502400Y-99822000D02*
X126502400Y-104394000D01*
X122438400Y-99822000D02*
X122438400Y-97917000D01*
X131125200Y-100457000D02*
X131125200Y-103632000D01*
X131125200Y-100457000D02*
X127823200Y-100457000D01*
X127823200Y-100457000D02*
X127823200Y-103632000D01*
X126121400Y-100457000D02*
X126121400Y-103632000D01*
X126121400Y-100457000D02*
X122819400Y-100457000D01*
X122819400Y-100457000D02*
X122819400Y-103632000D01*
X122819400Y-103632000D02*
X123200400Y-103632000D01*
X126121400Y-103632000D02*
X125740400Y-103632000D01*
X127823200Y-103632000D02*
X128204200Y-103632000D01*
X131125200Y-103632000D02*
X130744200Y-103632000D01*
X121880000Y-97917000D02*
X121880000Y-104775000D01*
X121880000Y-104775000D02*
X121880000Y-107315000D01*
X132065000Y-105791000D02*
X132065000Y-104775000D01*
X132065000Y-104775000D02*
X132065000Y-100076000D01*
X121880000Y-107315000D02*
X132065000Y-107315000D01*
X121880000Y-107315000D02*
X121880000Y-110363000D01*
X132065000Y-107315000D02*
X132065000Y-105791000D01*
X127442200Y-107569000D02*
X127442200Y-110109000D01*
X127442200Y-110109000D02*
X131506200Y-110109000D01*
X131506200Y-110109000D02*
X131506200Y-107569000D01*
X131506200Y-107569000D02*
X127442200Y-107569000D01*
X126502400Y-107569000D02*
X126502400Y-110109000D01*
X126502400Y-107569000D02*
X122438400Y-107569000D01*
X122438400Y-107569000D02*
X122438400Y-110109000D01*
X126502400Y-110109000D02*
X122438400Y-110109000D01*
X127848600Y-108585000D02*
X130896600Y-109220000D01*
X127975600Y-108458000D02*
X131023600Y-109093000D01*
X122844800Y-108585000D02*
X125895340Y-109220000D01*
X122971800Y-108458000D02*
X126019800Y-109093000D01*
X122438400Y-104394000D02*
X122819400Y-104394000D01*
X126502400Y-104394000D02*
X126121400Y-104394000D01*
X126121400Y-104394000D02*
X122819400Y-104394000D01*
X121880000Y-104775000D02*
X122819400Y-104775000D01*
X122819400Y-104775000D02*
X126121400Y-104775000D01*
X126121400Y-104775000D02*
X127823200Y-104775000D01*
X132065000Y-104775000D02*
X131125200Y-104775000D01*
X131125200Y-104775000D02*
X127823200Y-104775000D01*
X131506200Y-104394000D02*
X131125200Y-104394000D01*
X127442200Y-104394000D02*
X127823200Y-104394000D01*
X127823200Y-104394000D02*
X131125200Y-104394000D01*
X130942972Y-108225430D02*
G75*
G02X130995660Y-109192060I-452772J-509430D01*
G01*
X128000272Y-108305104D02*
G75*
G02X130988040Y-108257340I1524728J-1905496D01*
G01*
X130999411Y-109196844D02*
G75*
G02X127848600Y-109143800I-1553151J1348444D01*
G01*
X127899903Y-109193481D02*
G75*
G02X128041640Y-108267500I431297J407821D01*
G01*
X125939149Y-108222890D02*
G75*
G02X125994400Y-109192060I-452749J-511970D01*
G01*
X122999012Y-108305104D02*
G75*
G02X125986780Y-108257340I1524728J-1905496D01*
G01*
X126001573Y-109201847D02*
G75*
G02X122844800Y-109143800I-1554033J1353447D01*
G01*
X122895480Y-109191019D02*
G75*
G02X123040380Y-108267500I431920J405359D01*
G01*
X101600000Y-138419600D02*
X101600000Y-135879600D01*
X101600000Y-135879600D02*
X104394000Y-135879600D01*
X104394000Y-138419600D02*
X104394000Y-135879600D01*
X101600000Y-138419600D02*
X104394000Y-138419600D01*
X101600000Y-133415800D02*
X101600000Y-130875800D01*
X101600000Y-130875800D02*
X104394000Y-130875800D01*
X104394000Y-133415800D02*
X104394000Y-130875800D01*
X101600000Y-133415800D02*
X104394000Y-133415800D01*
X110363000Y-129555000D02*
X107315000Y-129555000D01*
X110363000Y-129555000D02*
X110363000Y-139740000D01*
X110363000Y-129555000D02*
X110363000Y-129047000D01*
X110363000Y-129047000D02*
X105537000Y-129047000D01*
X105537000Y-129047000D02*
X105791000Y-129555000D01*
X98679000Y-129047000D02*
X98933000Y-129555000D01*
X98933000Y-129555000D02*
X97917000Y-129555000D01*
X100330000Y-129047000D02*
X100076000Y-129555000D01*
X100076000Y-129555000D02*
X98933000Y-129555000D01*
X100330000Y-129047000D02*
X98679000Y-129047000D01*
X97917000Y-134177800D02*
X99822000Y-134177800D01*
X104394000Y-130113800D02*
X99822000Y-130113800D01*
X97917000Y-134177800D02*
X97917000Y-130113800D01*
X97917000Y-130113800D02*
X97917000Y-129555000D01*
X97917000Y-135117600D02*
X99822000Y-135117600D01*
X97917000Y-135117600D02*
X97917000Y-134177800D01*
X104394000Y-139181600D02*
X99822000Y-139181600D01*
X97917000Y-139740000D02*
X97917000Y-139181600D01*
X97917000Y-139181600D02*
X97917000Y-135117600D01*
X99822000Y-134177800D02*
X99822000Y-130113800D01*
X99822000Y-134177800D02*
X104394000Y-134177800D01*
X99822000Y-130113800D02*
X97917000Y-130113800D01*
X99822000Y-135117600D02*
X99822000Y-139181600D01*
X99822000Y-135117600D02*
X104394000Y-135117600D01*
X99822000Y-139181600D02*
X97917000Y-139181600D01*
X100457000Y-130494800D02*
X103632000Y-130494800D01*
X100457000Y-130494800D02*
X100457000Y-133796800D01*
X100457000Y-133796800D02*
X103632000Y-133796800D01*
X100457000Y-135498600D02*
X103632000Y-135498600D01*
X100457000Y-135498600D02*
X100457000Y-138800600D01*
X100457000Y-138800600D02*
X103632000Y-138800600D01*
X103632000Y-138800600D02*
X103632000Y-138419600D01*
X103632000Y-135498600D02*
X103632000Y-135879600D01*
X103632000Y-133796800D02*
X103632000Y-133415800D01*
X103632000Y-130494800D02*
X103632000Y-130875800D01*
X97917000Y-139740000D02*
X104775000Y-139740000D01*
X104775000Y-139740000D02*
X107315000Y-139740000D01*
X105791000Y-129555000D02*
X104775000Y-129555000D01*
X104775000Y-129555000D02*
X100076000Y-129555000D01*
X107315000Y-139740000D02*
X107315000Y-129555000D01*
X107315000Y-139740000D02*
X110363000Y-139740000D01*
X107315000Y-129555000D02*
X105791000Y-129555000D01*
X107569000Y-134177800D02*
X110109000Y-134177800D01*
X110109000Y-134177800D02*
X110109000Y-130113800D01*
X110109000Y-130113800D02*
X107569000Y-130113800D01*
X107569000Y-130113800D02*
X107569000Y-134177800D01*
X107569000Y-135117600D02*
X110109000Y-135117600D01*
X107569000Y-135117600D02*
X107569000Y-139181600D01*
X107569000Y-139181600D02*
X110109000Y-139181600D01*
X110109000Y-135117600D02*
X110109000Y-139181600D01*
X108585000Y-133771400D02*
X109220000Y-130723400D01*
X108458000Y-133644400D02*
X109093000Y-130596400D01*
X108585000Y-138775200D02*
X109220000Y-135724660D01*
X108458000Y-138648200D02*
X109093000Y-135600200D01*
X104394000Y-139181600D02*
X104394000Y-138800600D01*
X104394000Y-135117600D02*
X104394000Y-135498600D01*
X104394000Y-135498600D02*
X104394000Y-138800600D01*
X104775000Y-139740000D02*
X104775000Y-138800600D01*
X104775000Y-138800600D02*
X104775000Y-135498600D01*
X104775000Y-135498600D02*
X104775000Y-133796800D01*
X104775000Y-129555000D02*
X104775000Y-130494800D01*
X104775000Y-130494800D02*
X104775000Y-133796800D01*
X104394000Y-130113800D02*
X104394000Y-130494800D01*
X104394000Y-134177800D02*
X104394000Y-133796800D01*
X104394000Y-133796800D02*
X104394000Y-130494800D01*
X108225430Y-130677028D02*
G75*
G02X109192060Y-130624340I509430J-452772D01*
G01*
X108305104Y-133619728D02*
G75*
G02X108257340Y-130631960I1905496J1524728D01*
G01*
X109196844Y-130620589D02*
G75*
G02X109143800Y-133771400I-1348444J-1553151D01*
G01*
X109193481Y-133720097D02*
G75*
G02X108267500Y-133578360I-407821J431297D01*
G01*
X108222890Y-135680851D02*
G75*
G02X109192060Y-135625600I511970J-452749D01*
G01*
X108305104Y-138620988D02*
G75*
G02X108257340Y-135633220I1905496J1524728D01*
G01*
X109201847Y-135618427D02*
G75*
G02X109143800Y-138775200I-1353447J-1554033D01*
G01*
X109191019Y-138724520D02*
G75*
G02X108267500Y-138579620I-405359J431920D01*
G01*
X101600000Y-107939600D02*
X101600000Y-105399600D01*
X101600000Y-105399600D02*
X104394000Y-105399600D01*
X104394000Y-107939600D02*
X104394000Y-105399600D01*
X101600000Y-107939600D02*
X104394000Y-107939600D01*
X101600000Y-102935800D02*
X101600000Y-100395800D01*
X101600000Y-100395800D02*
X104394000Y-100395800D01*
X104394000Y-102935800D02*
X104394000Y-100395800D01*
X101600000Y-102935800D02*
X104394000Y-102935800D01*
X110363000Y-99075000D02*
X107315000Y-99075000D01*
X110363000Y-99075000D02*
X110363000Y-109260000D01*
X110363000Y-99075000D02*
X110363000Y-98567000D01*
X110363000Y-98567000D02*
X105537000Y-98567000D01*
X105537000Y-98567000D02*
X105791000Y-99075000D01*
X98679000Y-98567000D02*
X98933000Y-99075000D01*
X98933000Y-99075000D02*
X97917000Y-99075000D01*
X100330000Y-98567000D02*
X100076000Y-99075000D01*
X100076000Y-99075000D02*
X98933000Y-99075000D01*
X100330000Y-98567000D02*
X98679000Y-98567000D01*
X97917000Y-103697800D02*
X99822000Y-103697800D01*
X104394000Y-99633800D02*
X99822000Y-99633800D01*
X97917000Y-103697800D02*
X97917000Y-99633800D01*
X97917000Y-99633800D02*
X97917000Y-99075000D01*
X97917000Y-104637600D02*
X99822000Y-104637600D01*
X97917000Y-104637600D02*
X97917000Y-103697800D01*
X104394000Y-108701600D02*
X99822000Y-108701600D01*
X97917000Y-109260000D02*
X97917000Y-108701600D01*
X97917000Y-108701600D02*
X97917000Y-104637600D01*
X99822000Y-103697800D02*
X99822000Y-99633800D01*
X99822000Y-103697800D02*
X104394000Y-103697800D01*
X99822000Y-99633800D02*
X97917000Y-99633800D01*
X99822000Y-104637600D02*
X99822000Y-108701600D01*
X99822000Y-104637600D02*
X104394000Y-104637600D01*
X99822000Y-108701600D02*
X97917000Y-108701600D01*
X100457000Y-100014800D02*
X103632000Y-100014800D01*
X100457000Y-100014800D02*
X100457000Y-103316800D01*
X100457000Y-103316800D02*
X103632000Y-103316800D01*
X100457000Y-105018600D02*
X103632000Y-105018600D01*
X100457000Y-105018600D02*
X100457000Y-108320600D01*
X100457000Y-108320600D02*
X103632000Y-108320600D01*
X103632000Y-108320600D02*
X103632000Y-107939600D01*
X103632000Y-105018600D02*
X103632000Y-105399600D01*
X103632000Y-103316800D02*
X103632000Y-102935800D01*
X103632000Y-100014800D02*
X103632000Y-100395800D01*
X97917000Y-109260000D02*
X104775000Y-109260000D01*
X104775000Y-109260000D02*
X107315000Y-109260000D01*
X105791000Y-99075000D02*
X104775000Y-99075000D01*
X104775000Y-99075000D02*
X100076000Y-99075000D01*
X107315000Y-109260000D02*
X107315000Y-99075000D01*
X107315000Y-109260000D02*
X110363000Y-109260000D01*
X107315000Y-99075000D02*
X105791000Y-99075000D01*
X107569000Y-103697800D02*
X110109000Y-103697800D01*
X110109000Y-103697800D02*
X110109000Y-99633800D01*
X110109000Y-99633800D02*
X107569000Y-99633800D01*
X107569000Y-99633800D02*
X107569000Y-103697800D01*
X107569000Y-104637600D02*
X110109000Y-104637600D01*
X107569000Y-104637600D02*
X107569000Y-108701600D01*
X107569000Y-108701600D02*
X110109000Y-108701600D01*
X110109000Y-104637600D02*
X110109000Y-108701600D01*
X108585000Y-103291400D02*
X109220000Y-100243400D01*
X108458000Y-103164400D02*
X109093000Y-100116400D01*
X108585000Y-108295200D02*
X109220000Y-105244660D01*
X108458000Y-108168200D02*
X109093000Y-105120200D01*
X104394000Y-108701600D02*
X104394000Y-108320600D01*
X104394000Y-104637600D02*
X104394000Y-105018600D01*
X104394000Y-105018600D02*
X104394000Y-108320600D01*
X104775000Y-109260000D02*
X104775000Y-108320600D01*
X104775000Y-108320600D02*
X104775000Y-105018600D01*
X104775000Y-105018600D02*
X104775000Y-103316800D01*
X104775000Y-99075000D02*
X104775000Y-100014800D01*
X104775000Y-100014800D02*
X104775000Y-103316800D01*
X104394000Y-99633800D02*
X104394000Y-100014800D01*
X104394000Y-103697800D02*
X104394000Y-103316800D01*
X104394000Y-103316800D02*
X104394000Y-100014800D01*
X108225430Y-100197028D02*
G75*
G02X109192060Y-100144340I509430J-452772D01*
G01*
X108305104Y-103139728D02*
G75*
G02X108257340Y-100151960I1905496J1524728D01*
G01*
X109196844Y-100140589D02*
G75*
G02X109143800Y-103291400I-1348444J-1553151D01*
G01*
X109193481Y-103240097D02*
G75*
G02X108267500Y-103098360I-407821J431297D01*
G01*
X108222890Y-105200851D02*
G75*
G02X109192060Y-105145600I511970J-452749D01*
G01*
X108305104Y-108140988D02*
G75*
G02X108257340Y-105153220I1905496J1524728D01*
G01*
X109201847Y-105138427D02*
G75*
G02X109143800Y-108295200I-1353447J-1554033D01*
G01*
X109191019Y-108244520D02*
G75*
G02X108267500Y-108099620I-405359J431920D01*
G01*
X101600000Y-123179600D02*
X101600000Y-120639600D01*
X101600000Y-120639600D02*
X104394000Y-120639600D01*
X104394000Y-123179600D02*
X104394000Y-120639600D01*
X101600000Y-123179600D02*
X104394000Y-123179600D01*
X101600000Y-118175800D02*
X101600000Y-115635800D01*
X101600000Y-115635800D02*
X104394000Y-115635800D01*
X104394000Y-118175800D02*
X104394000Y-115635800D01*
X101600000Y-118175800D02*
X104394000Y-118175800D01*
X110363000Y-114315000D02*
X107315000Y-114315000D01*
X110363000Y-114315000D02*
X110363000Y-124500000D01*
X110363000Y-114315000D02*
X110363000Y-113807000D01*
X110363000Y-113807000D02*
X105537000Y-113807000D01*
X105537000Y-113807000D02*
X105791000Y-114315000D01*
X98679000Y-113807000D02*
X98933000Y-114315000D01*
X98933000Y-114315000D02*
X97917000Y-114315000D01*
X100330000Y-113807000D02*
X100076000Y-114315000D01*
X100076000Y-114315000D02*
X98933000Y-114315000D01*
X100330000Y-113807000D02*
X98679000Y-113807000D01*
X97917000Y-118937800D02*
X99822000Y-118937800D01*
X104394000Y-114873800D02*
X99822000Y-114873800D01*
X97917000Y-118937800D02*
X97917000Y-114873800D01*
X97917000Y-114873800D02*
X97917000Y-114315000D01*
X97917000Y-119877600D02*
X99822000Y-119877600D01*
X97917000Y-119877600D02*
X97917000Y-118937800D01*
X104394000Y-123941600D02*
X99822000Y-123941600D01*
X97917000Y-124500000D02*
X97917000Y-123941600D01*
X97917000Y-123941600D02*
X97917000Y-119877600D01*
X99822000Y-118937800D02*
X99822000Y-114873800D01*
X99822000Y-118937800D02*
X104394000Y-118937800D01*
X99822000Y-114873800D02*
X97917000Y-114873800D01*
X99822000Y-119877600D02*
X99822000Y-123941600D01*
X99822000Y-119877600D02*
X104394000Y-119877600D01*
X99822000Y-123941600D02*
X97917000Y-123941600D01*
X100457000Y-115254800D02*
X103632000Y-115254800D01*
X100457000Y-115254800D02*
X100457000Y-118556800D01*
X100457000Y-118556800D02*
X103632000Y-118556800D01*
X100457000Y-120258600D02*
X103632000Y-120258600D01*
X100457000Y-120258600D02*
X100457000Y-123560600D01*
X100457000Y-123560600D02*
X103632000Y-123560600D01*
X103632000Y-123560600D02*
X103632000Y-123179600D01*
X103632000Y-120258600D02*
X103632000Y-120639600D01*
X103632000Y-118556800D02*
X103632000Y-118175800D01*
X103632000Y-115254800D02*
X103632000Y-115635800D01*
X97917000Y-124500000D02*
X104775000Y-124500000D01*
X104775000Y-124500000D02*
X107315000Y-124500000D01*
X105791000Y-114315000D02*
X104775000Y-114315000D01*
X104775000Y-114315000D02*
X100076000Y-114315000D01*
X107315000Y-124500000D02*
X107315000Y-114315000D01*
X107315000Y-124500000D02*
X110363000Y-124500000D01*
X107315000Y-114315000D02*
X105791000Y-114315000D01*
X107569000Y-118937800D02*
X110109000Y-118937800D01*
X110109000Y-118937800D02*
X110109000Y-114873800D01*
X110109000Y-114873800D02*
X107569000Y-114873800D01*
X107569000Y-114873800D02*
X107569000Y-118937800D01*
X107569000Y-119877600D02*
X110109000Y-119877600D01*
X107569000Y-119877600D02*
X107569000Y-123941600D01*
X107569000Y-123941600D02*
X110109000Y-123941600D01*
X110109000Y-119877600D02*
X110109000Y-123941600D01*
X108585000Y-118531400D02*
X109220000Y-115483400D01*
X108458000Y-118404400D02*
X109093000Y-115356400D01*
X108585000Y-123535200D02*
X109220000Y-120484660D01*
X108458000Y-123408200D02*
X109093000Y-120360200D01*
X104394000Y-123941600D02*
X104394000Y-123560600D01*
X104394000Y-119877600D02*
X104394000Y-120258600D01*
X104394000Y-120258600D02*
X104394000Y-123560600D01*
X104775000Y-124500000D02*
X104775000Y-123560600D01*
X104775000Y-123560600D02*
X104775000Y-120258600D01*
X104775000Y-120258600D02*
X104775000Y-118556800D01*
X104775000Y-114315000D02*
X104775000Y-115254800D01*
X104775000Y-115254800D02*
X104775000Y-118556800D01*
X104394000Y-114873800D02*
X104394000Y-115254800D01*
X104394000Y-118937800D02*
X104394000Y-118556800D01*
X104394000Y-118556800D02*
X104394000Y-115254800D01*
X108225430Y-115437028D02*
G75*
G02X109192060Y-115384340I509430J-452772D01*
G01*
X108305104Y-118379728D02*
G75*
G02X108257340Y-115391960I1905496J1524728D01*
G01*
X109196844Y-115380589D02*
G75*
G02X109143800Y-118531400I-1348444J-1553151D01*
G01*
X109193481Y-118480097D02*
G75*
G02X108267500Y-118338360I-407821J431297D01*
G01*
X108222890Y-120440851D02*
G75*
G02X109192060Y-120385600I511970J-452749D01*
G01*
X108305104Y-123380988D02*
G75*
G02X108257340Y-120393220I1905496J1524728D01*
G01*
X109201847Y-120378427D02*
G75*
G02X109143800Y-123535200I-1353447J-1554033D01*
G01*
X109191019Y-123484520D02*
G75*
G02X108267500Y-123339620I-405359J431920D01*
G01*
X124460000Y-123190000D02*
X129540000Y-123190000D01*
X129540000Y-123190000D02*
X129540000Y-125730000D01*
X129540000Y-125730000D02*
X124460000Y-125730000D01*
X121640000Y-126010000D02*
X123190000Y-126010000D01*
X124460000Y-125730000D02*
X124460000Y-123190000D01*
X123190000Y-122910000D02*
X121640000Y-122910000D01*
X121640000Y-122910000D02*
X121640000Y-126010000D01*
X124460000Y-128270000D02*
X129540000Y-128270000D01*
X129540000Y-128270000D02*
X129540000Y-130810000D01*
X129540000Y-130810000D02*
X124460000Y-130810000D01*
X121640000Y-131090000D02*
X123190000Y-131090000D01*
X124460000Y-130810000D02*
X124460000Y-128270000D01*
X123190000Y-127990000D02*
X121640000Y-127990000D01*
X121640000Y-127990000D02*
X121640000Y-131090000D01*
X138430000Y-138430000D02*
X146050000Y-138430000D01*
X138430000Y-140970000D02*
X146050000Y-140970000D01*
X135610000Y-141250000D02*
X137160000Y-141250000D01*
X146050000Y-138430000D02*
X146050000Y-140970000D01*
X138430000Y-140970000D02*
X138430000Y-138430000D01*
X137160000Y-138150000D02*
X135610000Y-138150000D01*
X135610000Y-138150000D02*
X135610000Y-141250000D01*
X140970000Y-128270000D02*
X146050000Y-128270000D01*
X146050000Y-128270000D02*
X146050000Y-130810000D01*
X146050000Y-130810000D02*
X140970000Y-130810000D01*
X138150000Y-131090000D02*
X139700000Y-131090000D01*
X140970000Y-130810000D02*
X140970000Y-128270000D01*
X139700000Y-127990000D02*
X138150000Y-127990000D01*
X138150000Y-127990000D02*
X138150000Y-131090000D01*
X140970000Y-133350000D02*
X146050000Y-133350000D01*
X146050000Y-133350000D02*
X146050000Y-135890000D01*
X146050000Y-135890000D02*
X140970000Y-135890000D01*
X138150000Y-136170000D02*
X139700000Y-136170000D01*
X140970000Y-135890000D02*
X140970000Y-133350000D01*
X139700000Y-133070000D02*
X138150000Y-133070000D01*
X138150000Y-133070000D02*
X138150000Y-136170000D01*
X127761905Y-141692381D02*
X127761905Y-142501905D01*
X127714286Y-142597143D01*
X127666667Y-142644762D01*
X127571429Y-142692381D01*
X127380952Y-142692381D01*
X127285714Y-142644762D01*
X127238095Y-142597143D01*
X127190476Y-142501905D01*
X127190476Y-141692381D01*
X126809524Y-141692381D02*
X126190476Y-141692381D01*
X126523810Y-142073333D01*
X126380952Y-142073333D01*
X126285714Y-142120952D01*
X126238095Y-142168571D01*
X126190476Y-142263810D01*
X126190476Y-142501905D01*
X126238095Y-142597143D01*
X126285714Y-142644762D01*
X126380952Y-142692381D01*
X126666667Y-142692381D01*
X126761905Y-142644762D01*
X126809524Y-142597143D01*
X163282381Y-118618095D02*
X164091905Y-118618095D01*
X164187143Y-118665714D01*
X164234762Y-118713333D01*
X164282381Y-118808571D01*
X164282381Y-118999048D01*
X164234762Y-119094286D01*
X164187143Y-119141905D01*
X164091905Y-119189524D01*
X163282381Y-119189524D01*
X163282381Y-120141905D02*
X163282381Y-119665714D01*
X163758571Y-119618095D01*
X163710952Y-119665714D01*
X163663333Y-119760952D01*
X163663333Y-119999048D01*
X163710952Y-120094286D01*
X163758571Y-120141905D01*
X163853810Y-120189524D01*
X164091905Y-120189524D01*
X164187143Y-120141905D01*
X164234762Y-120094286D01*
X164282381Y-119999048D01*
X164282381Y-119760952D01*
X164234762Y-119665714D01*
X164187143Y-119618095D01*
X117832143Y-114292143D02*
X117879762Y-114244524D01*
X117927381Y-114101667D01*
X117927381Y-114006429D01*
X117879762Y-113863571D01*
X117784524Y-113768333D01*
X117689286Y-113720714D01*
X117498810Y-113673095D01*
X117355952Y-113673095D01*
X117165476Y-113720714D01*
X117070238Y-113768333D01*
X116975000Y-113863571D01*
X116927381Y-114006429D01*
X116927381Y-114101667D01*
X116975000Y-114244524D01*
X117022619Y-114292143D01*
X117927381Y-115244524D02*
X117927381Y-114673095D01*
X117927381Y-114958809D02*
X116927381Y-114958809D01*
X117070238Y-114863571D01*
X117165476Y-114768333D01*
X117213095Y-114673095D01*
X117927381Y-116196905D02*
X117927381Y-115625476D01*
X117927381Y-115911190D02*
X116927381Y-115911190D01*
X117070238Y-115815952D01*
X117165476Y-115720714D01*
X117213095Y-115625476D01*
D10*
X116526284Y-108731857D02*
X116526284Y-109065190D01*
X116645331Y-108541381D02*
X116764379Y-108898524D01*
X116454855Y-108898524D01*
X116311998Y-108565190D02*
X115978665Y-108565190D01*
X116192951Y-109065190D01*
X115573904Y-108731857D02*
X115573904Y-109065190D01*
X115788189Y-108731857D02*
X115788189Y-108993762D01*
X115764380Y-109041381D01*
X115716761Y-109065190D01*
X115645332Y-109065190D01*
X115597713Y-109041381D01*
X115573904Y-109017571D01*
X115169142Y-108803286D02*
X115335808Y-108803286D01*
X115335808Y-109065190D02*
X115335808Y-108565190D01*
X115097713Y-108565190D01*
X114288190Y-108565190D02*
X114526285Y-108565190D01*
X114550095Y-108803286D01*
X114526285Y-108779476D01*
X114478666Y-108755667D01*
X114359619Y-108755667D01*
X114312000Y-108779476D01*
X114288190Y-108803286D01*
X114264381Y-108850905D01*
X114264381Y-108969952D01*
X114288190Y-109017571D01*
X114312000Y-109041381D01*
X114359619Y-109065190D01*
X114478666Y-109065190D01*
X114526285Y-109041381D01*
X114550095Y-109017571D01*
X113954857Y-108565190D02*
X113907238Y-108565190D01*
X113859619Y-108589000D01*
X113835810Y-108612810D01*
X113812000Y-108660429D01*
X113788191Y-108755667D01*
X113788191Y-108874714D01*
X113812000Y-108969952D01*
X113835810Y-109017571D01*
X113859619Y-109041381D01*
X113907238Y-109065190D01*
X113954857Y-109065190D01*
X114002476Y-109041381D01*
X114026286Y-109017571D01*
X114050095Y-108969952D01*
X114073905Y-108874714D01*
X114073905Y-108755667D01*
X114050095Y-108660429D01*
X114026286Y-108612810D01*
X114002476Y-108589000D01*
X113954857Y-108565190D01*
X113645334Y-108565190D02*
X113478667Y-109065190D01*
X113312001Y-108565190D01*
D13*
X113642274Y-140565400D02*
X114508299Y-140065400D01*
X114389252Y-139859203D01*
X114276584Y-139759294D01*
X114146486Y-139724435D01*
X114040198Y-139730814D01*
X113851432Y-139784813D01*
X113727713Y-139856242D01*
X113586565Y-139992719D01*
X113527896Y-140081578D01*
X113493037Y-140211675D01*
X113523227Y-140359203D01*
X113642274Y-140565400D01*
X112880369Y-139245741D02*
X113166084Y-139740613D01*
X113023227Y-139493178D02*
X113889252Y-138993178D01*
X113813153Y-139147085D01*
X113778294Y-139277182D01*
X113784673Y-139383470D01*
D10*
X114463554Y-138460368D02*
X114511173Y-138542847D01*
X114514362Y-138595991D01*
X114505647Y-138628515D01*
X114467598Y-138705468D01*
X114397024Y-138773708D01*
X114232067Y-138868946D01*
X114178923Y-138872135D01*
X114146398Y-138863421D01*
X114101970Y-138834086D01*
X114054351Y-138751607D01*
X114051160Y-138698464D01*
X114059875Y-138665939D01*
X114089210Y-138621510D01*
X114192308Y-138561986D01*
X114245452Y-138558796D01*
X114277977Y-138567511D01*
X114322405Y-138596846D01*
X114370024Y-138679325D01*
X114373215Y-138732468D01*
X114364499Y-138764992D01*
X114335165Y-138809422D01*
X114284982Y-138151073D02*
X114261173Y-138109834D01*
X114216743Y-138080500D01*
X114184219Y-138071786D01*
X114131075Y-138074975D01*
X114036691Y-138101975D01*
X113933594Y-138161498D01*
X113863020Y-138229737D01*
X113833685Y-138274166D01*
X113824970Y-138306690D01*
X113828160Y-138359834D01*
X113851970Y-138401073D01*
X113896398Y-138430408D01*
X113928923Y-138439123D01*
X113982067Y-138435933D01*
X114076451Y-138408934D01*
X114179548Y-138349410D01*
X114250122Y-138281171D01*
X114279457Y-138236743D01*
X114288172Y-138204218D01*
X114284982Y-138151073D01*
X114130221Y-137883019D02*
X113613875Y-137988681D01*
X113963554Y-137594344D01*
X113713554Y-137161331D02*
X113558793Y-136893276D01*
X113477168Y-137132852D01*
X113441454Y-137070993D01*
X113397025Y-137041658D01*
X113364500Y-137032943D01*
X113311356Y-137036134D01*
X113208259Y-137095657D01*
X113178924Y-137140086D01*
X113170209Y-137172611D01*
X113173399Y-137225755D01*
X113244828Y-137349473D01*
X113289256Y-137378807D01*
X113321781Y-137387521D01*
X113154260Y-136906891D02*
X113035213Y-136700694D01*
X113054352Y-137019558D02*
X113404031Y-136625221D01*
X112887685Y-136730884D01*
X112646400Y-136265347D02*
X112590066Y-136215392D01*
X112530543Y-136112295D01*
X112527352Y-136059151D01*
X112536067Y-136026626D01*
X112565402Y-135982197D01*
X112606642Y-135958388D01*
X112659785Y-135955197D01*
X112692309Y-135963913D01*
X112736739Y-135993247D01*
X112804977Y-136063821D01*
X112849407Y-136093155D01*
X112881930Y-136101870D01*
X112935075Y-136098681D01*
X112976314Y-136074871D01*
X113005648Y-136030442D01*
X113014364Y-135997917D01*
X113011174Y-135944773D01*
X112951650Y-135841675D01*
X112895316Y-135791721D01*
X112232924Y-135596803D02*
X112522454Y-135622094D01*
X112375781Y-135844239D02*
X112808793Y-135594239D01*
X112713555Y-135429282D01*
X112669126Y-135399948D01*
X112636601Y-135391233D01*
X112583457Y-135394423D01*
X112521599Y-135430137D01*
X112492264Y-135474566D01*
X112483549Y-135507091D01*
X112486739Y-135560234D01*
X112581977Y-135725191D01*
X112582603Y-135202466D02*
X112427841Y-134934411D01*
X112346216Y-135173986D01*
X112310502Y-135112128D01*
X112266074Y-135082793D01*
X112233549Y-135074078D01*
X112180405Y-135077268D01*
X112077307Y-135136792D01*
X112047972Y-135181220D01*
X112039257Y-135213746D01*
X112042448Y-135266889D01*
X112113876Y-135390607D01*
X112158305Y-135419942D01*
X112190829Y-135428656D01*
X112273079Y-134666355D02*
X112249270Y-134625116D01*
X112204840Y-134595782D01*
X112172316Y-134587067D01*
X112119172Y-134590257D01*
X112024788Y-134617257D01*
X111921691Y-134676780D01*
X111851117Y-134745018D01*
X111821782Y-134789448D01*
X111813067Y-134821972D01*
X111816257Y-134875116D01*
X111840067Y-134916355D01*
X111884495Y-134945690D01*
X111917020Y-134954405D01*
X111970164Y-134951215D01*
X112064548Y-134924216D01*
X112167645Y-134864692D01*
X112238219Y-134796453D01*
X112267554Y-134752024D01*
X112276269Y-134719499D01*
X112273079Y-134666355D01*
X111975461Y-134150865D02*
X112023080Y-134233343D01*
X112026269Y-134286488D01*
X112017554Y-134319012D01*
X111979505Y-134395965D01*
X111908931Y-134464204D01*
X111743974Y-134559442D01*
X111690830Y-134562631D01*
X111658305Y-134553917D01*
X111613877Y-134524583D01*
X111566258Y-134442104D01*
X111563067Y-134388960D01*
X111571782Y-134356435D01*
X111601117Y-134312006D01*
X111704215Y-134252483D01*
X111757359Y-134249293D01*
X111789884Y-134258008D01*
X111834312Y-134287342D01*
X111881931Y-134369821D01*
X111885122Y-134422965D01*
X111876406Y-134455489D01*
X111847072Y-134499919D01*
D13*
X113642274Y-125325400D02*
X114508299Y-124825400D01*
X114389252Y-124619203D01*
X114276584Y-124519294D01*
X114146486Y-124484435D01*
X114040198Y-124490814D01*
X113851432Y-124544813D01*
X113727713Y-124616242D01*
X113586565Y-124752719D01*
X113527896Y-124841578D01*
X113493037Y-124971675D01*
X113523227Y-125119203D01*
X113642274Y-125325400D01*
X113949630Y-124048232D02*
X113967060Y-123983184D01*
X113960680Y-123876896D01*
X113841632Y-123670698D01*
X113752774Y-123612029D01*
X113687725Y-123594600D01*
X113581437Y-123600979D01*
X113498959Y-123648598D01*
X113399051Y-123761266D01*
X113189893Y-124541853D01*
X112880369Y-124005741D01*
D10*
X113828554Y-122585368D02*
X113876173Y-122667847D01*
X113879362Y-122720991D01*
X113870647Y-122753515D01*
X113832598Y-122830468D01*
X113762024Y-122898708D01*
X113597067Y-122993946D01*
X113543923Y-122997135D01*
X113511398Y-122988421D01*
X113466970Y-122959086D01*
X113419351Y-122876607D01*
X113416160Y-122823464D01*
X113424875Y-122790939D01*
X113454210Y-122746510D01*
X113557308Y-122686986D01*
X113610452Y-122683796D01*
X113642977Y-122692511D01*
X113687405Y-122721846D01*
X113735024Y-122804325D01*
X113738215Y-122857468D01*
X113729499Y-122889992D01*
X113700165Y-122934422D01*
X113649982Y-122276073D02*
X113626173Y-122234834D01*
X113581743Y-122205500D01*
X113549219Y-122196786D01*
X113496075Y-122199975D01*
X113401691Y-122226975D01*
X113298594Y-122286498D01*
X113228020Y-122354737D01*
X113198685Y-122399166D01*
X113189970Y-122431690D01*
X113193160Y-122484834D01*
X113216970Y-122526073D01*
X113261398Y-122555408D01*
X113293923Y-122564123D01*
X113347067Y-122560933D01*
X113441451Y-122533934D01*
X113544548Y-122474410D01*
X113615122Y-122406171D01*
X113644457Y-122361743D01*
X113653172Y-122329218D01*
X113649982Y-122276073D01*
X113495221Y-122008019D02*
X112978875Y-122113681D01*
X113328554Y-121719344D01*
X113078554Y-121286331D02*
X112923793Y-121018276D01*
X112842168Y-121257852D01*
X112806454Y-121195993D01*
X112762025Y-121166658D01*
X112729500Y-121157943D01*
X112676356Y-121161134D01*
X112573259Y-121220657D01*
X112543924Y-121265086D01*
X112535209Y-121297611D01*
X112538399Y-121350755D01*
X112609828Y-121474473D01*
X112654256Y-121503807D01*
X112686781Y-121512521D01*
X112519260Y-121031891D02*
X112400213Y-120825694D01*
X112419352Y-121144558D02*
X112769031Y-120750221D01*
X112252685Y-120855884D01*
X112011400Y-120390347D02*
X111955066Y-120340392D01*
X111895543Y-120237295D01*
X111892352Y-120184151D01*
X111901067Y-120151626D01*
X111930402Y-120107197D01*
X111971642Y-120083388D01*
X112024785Y-120080197D01*
X112057309Y-120088913D01*
X112101739Y-120118247D01*
X112169977Y-120188821D01*
X112214407Y-120218155D01*
X112246930Y-120226870D01*
X112300075Y-120223681D01*
X112341314Y-120199871D01*
X112370648Y-120155442D01*
X112379364Y-120122917D01*
X112376174Y-120069773D01*
X112316650Y-119966675D01*
X112260316Y-119916721D01*
X111597924Y-119721803D02*
X111887454Y-119747094D01*
X111740781Y-119969239D02*
X112173793Y-119719239D01*
X112078555Y-119554282D01*
X112034126Y-119524948D01*
X112001601Y-119516233D01*
X111948457Y-119519423D01*
X111886599Y-119555137D01*
X111857264Y-119599566D01*
X111848549Y-119632091D01*
X111851739Y-119685234D01*
X111946977Y-119850191D01*
X111947603Y-119327466D02*
X111792841Y-119059411D01*
X111711216Y-119298986D01*
X111675502Y-119237128D01*
X111631074Y-119207793D01*
X111598549Y-119199078D01*
X111545405Y-119202268D01*
X111442307Y-119261792D01*
X111412972Y-119306220D01*
X111404257Y-119338746D01*
X111407448Y-119391889D01*
X111478876Y-119515607D01*
X111523305Y-119544942D01*
X111555829Y-119553656D01*
X111638079Y-118791355D02*
X111614270Y-118750116D01*
X111569840Y-118720782D01*
X111537316Y-118712067D01*
X111484172Y-118715257D01*
X111389788Y-118742257D01*
X111286691Y-118801780D01*
X111216117Y-118870018D01*
X111186782Y-118914448D01*
X111178067Y-118946972D01*
X111181257Y-119000116D01*
X111205067Y-119041355D01*
X111249495Y-119070690D01*
X111282020Y-119079405D01*
X111335164Y-119076215D01*
X111429548Y-119049216D01*
X111532645Y-118989692D01*
X111603219Y-118921453D01*
X111632554Y-118877024D01*
X111641269Y-118844499D01*
X111638079Y-118791355D01*
X111340461Y-118275865D02*
X111388080Y-118358343D01*
X111391269Y-118411488D01*
X111382554Y-118444012D01*
X111344505Y-118520965D01*
X111273931Y-118589204D01*
X111108974Y-118684442D01*
X111055830Y-118687631D01*
X111023305Y-118678917D01*
X110978877Y-118649583D01*
X110931258Y-118567104D01*
X110928067Y-118513960D01*
X110936782Y-118481435D01*
X110966117Y-118437006D01*
X111069215Y-118377483D01*
X111122359Y-118374293D01*
X111154884Y-118383008D01*
X111199312Y-118412342D01*
X111246931Y-118494821D01*
X111250122Y-118547965D01*
X111241406Y-118580489D01*
X111212072Y-118624919D01*
D13*
X113007274Y-108815400D02*
X113873299Y-108315400D01*
X113754252Y-108109203D01*
X113641584Y-108009294D01*
X113511486Y-107974435D01*
X113405198Y-107980814D01*
X113216432Y-108034813D01*
X113092713Y-108106242D01*
X112951565Y-108242719D01*
X112892896Y-108331578D01*
X112858037Y-108461675D01*
X112888227Y-108609203D01*
X113007274Y-108815400D01*
X113420918Y-107531853D02*
X113111394Y-106995741D01*
X112948147Y-107474893D01*
X112876718Y-107351174D01*
X112787860Y-107292505D01*
X112722811Y-107275076D01*
X112616522Y-107281456D01*
X112410326Y-107400503D01*
X112351657Y-107489362D01*
X112334227Y-107554410D01*
X112340607Y-107660698D01*
X112483465Y-107908135D01*
X112572323Y-107966804D01*
X112637372Y-107984234D01*
D10*
X113828554Y-107345368D02*
X113876173Y-107427847D01*
X113879362Y-107480991D01*
X113870647Y-107513515D01*
X113832598Y-107590468D01*
X113762024Y-107658708D01*
X113597067Y-107753946D01*
X113543923Y-107757135D01*
X113511398Y-107748421D01*
X113466970Y-107719086D01*
X113419351Y-107636607D01*
X113416160Y-107583464D01*
X113424875Y-107550939D01*
X113454210Y-107506510D01*
X113557308Y-107446986D01*
X113610452Y-107443796D01*
X113642977Y-107452511D01*
X113687405Y-107481846D01*
X113735024Y-107564325D01*
X113738215Y-107617468D01*
X113729499Y-107649992D01*
X113700165Y-107694422D01*
X113649982Y-107036073D02*
X113626173Y-106994834D01*
X113581743Y-106965500D01*
X113549219Y-106956786D01*
X113496075Y-106959975D01*
X113401691Y-106986975D01*
X113298594Y-107046498D01*
X113228020Y-107114737D01*
X113198685Y-107159166D01*
X113189970Y-107191690D01*
X113193160Y-107244834D01*
X113216970Y-107286073D01*
X113261398Y-107315408D01*
X113293923Y-107324123D01*
X113347067Y-107320933D01*
X113441451Y-107293934D01*
X113544548Y-107234410D01*
X113615122Y-107166171D01*
X113644457Y-107121743D01*
X113653172Y-107089218D01*
X113649982Y-107036073D01*
X113495221Y-106768019D02*
X112978875Y-106873681D01*
X113328554Y-106479344D01*
X113078554Y-106046331D02*
X112923793Y-105778276D01*
X112842168Y-106017852D01*
X112806454Y-105955993D01*
X112762025Y-105926658D01*
X112729500Y-105917943D01*
X112676356Y-105921134D01*
X112573259Y-105980657D01*
X112543924Y-106025086D01*
X112535209Y-106057611D01*
X112538399Y-106110755D01*
X112609828Y-106234473D01*
X112654256Y-106263807D01*
X112686781Y-106272521D01*
X112519260Y-105791891D02*
X112400213Y-105585694D01*
X112419352Y-105904558D02*
X112769031Y-105510221D01*
X112252685Y-105615884D01*
X112011400Y-105150347D02*
X111955066Y-105100392D01*
X111895543Y-104997295D01*
X111892352Y-104944151D01*
X111901067Y-104911626D01*
X111930402Y-104867197D01*
X111971642Y-104843388D01*
X112024785Y-104840197D01*
X112057309Y-104848913D01*
X112101739Y-104878247D01*
X112169977Y-104948821D01*
X112214407Y-104978155D01*
X112246930Y-104986870D01*
X112300075Y-104983681D01*
X112341314Y-104959871D01*
X112370648Y-104915442D01*
X112379364Y-104882917D01*
X112376174Y-104829773D01*
X112316650Y-104726675D01*
X112260316Y-104676721D01*
X111597924Y-104481803D02*
X111887454Y-104507094D01*
X111740781Y-104729239D02*
X112173793Y-104479239D01*
X112078555Y-104314282D01*
X112034126Y-104284948D01*
X112001601Y-104276233D01*
X111948457Y-104279423D01*
X111886599Y-104315137D01*
X111857264Y-104359566D01*
X111848549Y-104392091D01*
X111851739Y-104445234D01*
X111946977Y-104610191D01*
X111947603Y-104087466D02*
X111792841Y-103819411D01*
X111711216Y-104058986D01*
X111675502Y-103997128D01*
X111631074Y-103967793D01*
X111598549Y-103959078D01*
X111545405Y-103962268D01*
X111442307Y-104021792D01*
X111412972Y-104066220D01*
X111404257Y-104098746D01*
X111407448Y-104151889D01*
X111478876Y-104275607D01*
X111523305Y-104304942D01*
X111555829Y-104313656D01*
X111638079Y-103551355D02*
X111614270Y-103510116D01*
X111569840Y-103480782D01*
X111537316Y-103472067D01*
X111484172Y-103475257D01*
X111389788Y-103502257D01*
X111286691Y-103561780D01*
X111216117Y-103630018D01*
X111186782Y-103674448D01*
X111178067Y-103706972D01*
X111181257Y-103760116D01*
X111205067Y-103801355D01*
X111249495Y-103830690D01*
X111282020Y-103839405D01*
X111335164Y-103836215D01*
X111429548Y-103809216D01*
X111532645Y-103749692D01*
X111603219Y-103681453D01*
X111632554Y-103637024D01*
X111641269Y-103604499D01*
X111638079Y-103551355D01*
X111340461Y-103035865D02*
X111388080Y-103118343D01*
X111391269Y-103171488D01*
X111382554Y-103204012D01*
X111344505Y-103280965D01*
X111273931Y-103349204D01*
X111108974Y-103444442D01*
X111055830Y-103447631D01*
X111023305Y-103438917D01*
X110978877Y-103409583D01*
X110931258Y-103327104D01*
X110928067Y-103273960D01*
X110936782Y-103241435D01*
X110966117Y-103197006D01*
X111069215Y-103137483D01*
X111122359Y-103134293D01*
X111154884Y-103143008D01*
X111199312Y-103172342D01*
X111246931Y-103254821D01*
X111250122Y-103307965D01*
X111241406Y-103340489D01*
X111212072Y-103384919D01*
D13*
X141962143Y-107307143D02*
X142009762Y-107259524D01*
X142057381Y-107116667D01*
X142057381Y-107021429D01*
X142009762Y-106878571D01*
X141914524Y-106783333D01*
X141819286Y-106735714D01*
X141628810Y-106688095D01*
X141485952Y-106688095D01*
X141295476Y-106735714D01*
X141200238Y-106783333D01*
X141105000Y-106878571D01*
X141057381Y-107021429D01*
X141057381Y-107116667D01*
X141105000Y-107259524D01*
X141152619Y-107307143D01*
X142057381Y-108259524D02*
X142057381Y-107688095D01*
X142057381Y-107973809D02*
X141057381Y-107973809D01*
X141200238Y-107878571D01*
X141295476Y-107783333D01*
X141343095Y-107688095D01*
X141152619Y-108640476D02*
X141105000Y-108688095D01*
X141057381Y-108783333D01*
X141057381Y-109021429D01*
X141105000Y-109116667D01*
X141152619Y-109164286D01*
X141247857Y-109211905D01*
X141343095Y-109211905D01*
X141485952Y-109164286D01*
X142057381Y-108592857D01*
X142057381Y-109211905D01*
D10*
X138814760Y-106652190D02*
X139100474Y-106652190D01*
X138957617Y-106652190D02*
X138957617Y-106152190D01*
X139005236Y-106223619D01*
X139052855Y-106271238D01*
X139100474Y-106295048D01*
X138505236Y-106152190D02*
X138457617Y-106152190D01*
X138409998Y-106176000D01*
X138386189Y-106199810D01*
X138362379Y-106247429D01*
X138338570Y-106342667D01*
X138338570Y-106461714D01*
X138362379Y-106556952D01*
X138386189Y-106604571D01*
X138409998Y-106628381D01*
X138457617Y-106652190D01*
X138505236Y-106652190D01*
X138552855Y-106628381D01*
X138576665Y-106604571D01*
X138600474Y-106556952D01*
X138624284Y-106461714D01*
X138624284Y-106342667D01*
X138600474Y-106247429D01*
X138576665Y-106199810D01*
X138552855Y-106176000D01*
X138505236Y-106152190D01*
X138029046Y-106152190D02*
X137981427Y-106152190D01*
X137933808Y-106176000D01*
X137909999Y-106199810D01*
X137886189Y-106247429D01*
X137862380Y-106342667D01*
X137862380Y-106461714D01*
X137886189Y-106556952D01*
X137909999Y-106604571D01*
X137933808Y-106628381D01*
X137981427Y-106652190D01*
X138029046Y-106652190D01*
X138076665Y-106628381D01*
X138100475Y-106604571D01*
X138124284Y-106556952D01*
X138148094Y-106461714D01*
X138148094Y-106342667D01*
X138124284Y-106247429D01*
X138100475Y-106199810D01*
X138076665Y-106176000D01*
X138029046Y-106152190D01*
X137433809Y-106318857D02*
X137433809Y-106652190D01*
X137648094Y-106318857D02*
X137648094Y-106580762D01*
X137624285Y-106628381D01*
X137576666Y-106652190D01*
X137505237Y-106652190D01*
X137457618Y-106628381D01*
X137433809Y-106604571D01*
X137029047Y-106390286D02*
X137195713Y-106390286D01*
X137195713Y-106652190D02*
X137195713Y-106152190D01*
X136957618Y-106152190D01*
X136148095Y-106152190D02*
X136386190Y-106152190D01*
X136410000Y-106390286D01*
X136386190Y-106366476D01*
X136338571Y-106342667D01*
X136219524Y-106342667D01*
X136171905Y-106366476D01*
X136148095Y-106390286D01*
X136124286Y-106437905D01*
X136124286Y-106556952D01*
X136148095Y-106604571D01*
X136171905Y-106628381D01*
X136219524Y-106652190D01*
X136338571Y-106652190D01*
X136386190Y-106628381D01*
X136410000Y-106604571D01*
X135814762Y-106152190D02*
X135767143Y-106152190D01*
X135719524Y-106176000D01*
X135695715Y-106199810D01*
X135671905Y-106247429D01*
X135648096Y-106342667D01*
X135648096Y-106461714D01*
X135671905Y-106556952D01*
X135695715Y-106604571D01*
X135719524Y-106628381D01*
X135767143Y-106652190D01*
X135814762Y-106652190D01*
X135862381Y-106628381D01*
X135886191Y-106604571D01*
X135910000Y-106556952D01*
X135933810Y-106461714D01*
X135933810Y-106342667D01*
X135910000Y-106247429D01*
X135886191Y-106199810D01*
X135862381Y-106176000D01*
X135814762Y-106152190D01*
X135505239Y-106152190D02*
X135338572Y-106652190D01*
X135171906Y-106152190D01*
D13*
X123278095Y-111577381D02*
X123278095Y-110577381D01*
X122897142Y-110577381D01*
X122801904Y-110625000D01*
X122754285Y-110672619D01*
X122706666Y-110767857D01*
X122706666Y-110910714D01*
X122754285Y-111005952D01*
X122801904Y-111053571D01*
X122897142Y-111101190D01*
X123278095Y-111101190D01*
X121754285Y-111577381D02*
X122325714Y-111577381D01*
X122040000Y-111577381D02*
X122040000Y-110577381D01*
X122135238Y-110720238D01*
X122230476Y-110815476D01*
X122325714Y-110863095D01*
X111577381Y-138341905D02*
X110577381Y-138341905D01*
X110577381Y-138722858D01*
X110625000Y-138818096D01*
X110672619Y-138865715D01*
X110767857Y-138913334D01*
X110910714Y-138913334D01*
X111005952Y-138865715D01*
X111053571Y-138818096D01*
X111101190Y-138722858D01*
X111101190Y-138341905D01*
X110577381Y-139818096D02*
X110577381Y-139341905D01*
X111053571Y-139294286D01*
X111005952Y-139341905D01*
X110958333Y-139437143D01*
X110958333Y-139675239D01*
X111005952Y-139770477D01*
X111053571Y-139818096D01*
X111148810Y-139865715D01*
X111386905Y-139865715D01*
X111482143Y-139818096D01*
X111529762Y-139770477D01*
X111577381Y-139675239D01*
X111577381Y-139437143D01*
X111529762Y-139341905D01*
X111482143Y-139294286D01*
X111577381Y-107861905D02*
X110577381Y-107861905D01*
X110577381Y-108242858D01*
X110625000Y-108338096D01*
X110672619Y-108385715D01*
X110767857Y-108433334D01*
X110910714Y-108433334D01*
X111005952Y-108385715D01*
X111053571Y-108338096D01*
X111101190Y-108242858D01*
X111101190Y-107861905D01*
X110577381Y-109290477D02*
X110577381Y-109100000D01*
X110625000Y-109004762D01*
X110672619Y-108957143D01*
X110815476Y-108861905D01*
X111005952Y-108814286D01*
X111386905Y-108814286D01*
X111482143Y-108861905D01*
X111529762Y-108909524D01*
X111577381Y-109004762D01*
X111577381Y-109195239D01*
X111529762Y-109290477D01*
X111482143Y-109338096D01*
X111386905Y-109385715D01*
X111148810Y-109385715D01*
X111053571Y-109338096D01*
X111005952Y-109290477D01*
X110958333Y-109195239D01*
X110958333Y-109004762D01*
X111005952Y-108909524D01*
X111053571Y-108861905D01*
X111148810Y-108814286D01*
X111577381Y-123101905D02*
X110577381Y-123101905D01*
X110577381Y-123482858D01*
X110625000Y-123578096D01*
X110672619Y-123625715D01*
X110767857Y-123673334D01*
X110910714Y-123673334D01*
X111005952Y-123625715D01*
X111053571Y-123578096D01*
X111101190Y-123482858D01*
X111101190Y-123101905D01*
X110577381Y-124006667D02*
X110577381Y-124673334D01*
X111577381Y-124244762D01*
X118542381Y-123721905D02*
X117542381Y-123721905D01*
X117542381Y-124102858D01*
X117590000Y-124198096D01*
X117637619Y-124245715D01*
X117732857Y-124293334D01*
X117875714Y-124293334D01*
X117970952Y-124245715D01*
X118018571Y-124198096D01*
X118066190Y-124102858D01*
X118066190Y-123721905D01*
X117970952Y-124864762D02*
X117923333Y-124769524D01*
X117875714Y-124721905D01*
X117780476Y-124674286D01*
X117732857Y-124674286D01*
X117637619Y-124721905D01*
X117590000Y-124769524D01*
X117542381Y-124864762D01*
X117542381Y-125055239D01*
X117590000Y-125150477D01*
X117637619Y-125198096D01*
X117732857Y-125245715D01*
X117780476Y-125245715D01*
X117875714Y-125198096D01*
X117923333Y-125150477D01*
X117970952Y-125055239D01*
X117970952Y-124864762D01*
X118018571Y-124769524D01*
X118066190Y-124721905D01*
X118161429Y-124674286D01*
X118351905Y-124674286D01*
X118447143Y-124721905D01*
X118494762Y-124769524D01*
X118542381Y-124864762D01*
X118542381Y-125055239D01*
X118494762Y-125150477D01*
X118447143Y-125198096D01*
X118351905Y-125245715D01*
X118161429Y-125245715D01*
X118066190Y-125198096D01*
X118018571Y-125150477D01*
X117970952Y-125055239D01*
X118542381Y-128801905D02*
X117542381Y-128801905D01*
X117542381Y-129182858D01*
X117590000Y-129278096D01*
X117637619Y-129325715D01*
X117732857Y-129373334D01*
X117875714Y-129373334D01*
X117970952Y-129325715D01*
X118018571Y-129278096D01*
X118066190Y-129182858D01*
X118066190Y-128801905D01*
X118542381Y-129849524D02*
X118542381Y-130040000D01*
X118494762Y-130135239D01*
X118447143Y-130182858D01*
X118304286Y-130278096D01*
X118113810Y-130325715D01*
X117732857Y-130325715D01*
X117637619Y-130278096D01*
X117590000Y-130230477D01*
X117542381Y-130135239D01*
X117542381Y-129944762D01*
X117590000Y-129849524D01*
X117637619Y-129801905D01*
X117732857Y-129754286D01*
X117970952Y-129754286D01*
X118066190Y-129801905D01*
X118113810Y-129849524D01*
X118161429Y-129944762D01*
X118161429Y-130135239D01*
X118113810Y-130230477D01*
X118066190Y-130278096D01*
X117970952Y-130325715D01*
X132512381Y-138485714D02*
X131512381Y-138485714D01*
X131512381Y-138866667D01*
X131560000Y-138961905D01*
X131607619Y-139009524D01*
X131702857Y-139057143D01*
X131845714Y-139057143D01*
X131940952Y-139009524D01*
X131988571Y-138961905D01*
X132036190Y-138866667D01*
X132036190Y-138485714D01*
X132512381Y-140009524D02*
X132512381Y-139438095D01*
X132512381Y-139723809D02*
X131512381Y-139723809D01*
X131655238Y-139628571D01*
X131750476Y-139533333D01*
X131798095Y-139438095D01*
X131512381Y-140628571D02*
X131512381Y-140723810D01*
X131560000Y-140819048D01*
X131607619Y-140866667D01*
X131702857Y-140914286D01*
X131893333Y-140961905D01*
X132131429Y-140961905D01*
X132321905Y-140914286D01*
X132417143Y-140866667D01*
X132464762Y-140819048D01*
X132512381Y-140723810D01*
X132512381Y-140628571D01*
X132464762Y-140533333D01*
X132417143Y-140485714D01*
X132321905Y-140438095D01*
X132131429Y-140390476D01*
X131893333Y-140390476D01*
X131702857Y-140438095D01*
X131607619Y-140485714D01*
X131560000Y-140533333D01*
X131512381Y-140628571D01*
X135052381Y-128801905D02*
X134052381Y-128801905D01*
X134052381Y-129182858D01*
X134100000Y-129278096D01*
X134147619Y-129325715D01*
X134242857Y-129373334D01*
X134385714Y-129373334D01*
X134480952Y-129325715D01*
X134528571Y-129278096D01*
X134576190Y-129182858D01*
X134576190Y-128801905D01*
X134052381Y-129706667D02*
X134052381Y-130325715D01*
X134433333Y-129992381D01*
X134433333Y-130135239D01*
X134480952Y-130230477D01*
X134528571Y-130278096D01*
X134623810Y-130325715D01*
X134861905Y-130325715D01*
X134957143Y-130278096D01*
X135004762Y-130230477D01*
X135052381Y-130135239D01*
X135052381Y-129849524D01*
X135004762Y-129754286D01*
X134957143Y-129706667D01*
X135052381Y-133881905D02*
X134052381Y-133881905D01*
X134052381Y-134262858D01*
X134100000Y-134358096D01*
X134147619Y-134405715D01*
X134242857Y-134453334D01*
X134385714Y-134453334D01*
X134480952Y-134405715D01*
X134528571Y-134358096D01*
X134576190Y-134262858D01*
X134576190Y-133881905D01*
X134385714Y-135310477D02*
X135052381Y-135310477D01*
X134004762Y-135072381D02*
X134719048Y-134834286D01*
X134719048Y-135453334D01*
M02*
