G04 #@! TF.FileFunction,Soldermask,Bot*
%FSLAX46Y46*%
G04 Gerber Fmt 4.6, Leading zero omitted, Abs format (unit mm)*
G04 Created by KiCad (PCBNEW 4.0.4-stable) date 03/13/17 09:42:38*
%MOMM*%
%LPD*%
G01*
G04 APERTURE LIST*
%ADD10C,0.100000*%
%ADD11C,2.400000*%
%ADD12R,2.432000X2.432000*%
%ADD13R,2.127200X2.127200*%
%ADD14O,2.127200X2.127200*%
%ADD15R,1.700000X1.700000*%
%ADD16C,1.700000*%
%ADD17C,2.940000*%
%ADD18R,2.940000X2.400000*%
%ADD19R,2.381200X4.362400*%
%ADD20O,2.381200X4.362400*%
%ADD21O,4.362400X2.381200*%
%ADD22R,2.127200X2.432000*%
%ADD23O,2.127200X2.432000*%
G04 APERTURE END LIST*
D10*
D11*
X119380000Y-114300000D03*
X119380000Y-116840000D03*
X119380000Y-119380000D03*
X119380000Y-121920000D03*
X119380000Y-124460000D03*
X119380000Y-127000000D03*
X119380000Y-129540000D03*
X119380000Y-132080000D03*
X119380000Y-134620000D03*
X119380000Y-137160000D03*
X119380000Y-139700000D03*
X119380000Y-142240000D03*
X134620000Y-142240000D03*
X134620000Y-139700000D03*
X134620000Y-137160000D03*
X134620000Y-134620000D03*
X134620000Y-132080000D03*
X134620000Y-129540000D03*
X134620000Y-127000000D03*
X134620000Y-124460000D03*
X134620000Y-121920000D03*
X134620000Y-119380000D03*
X134620000Y-116840000D03*
X134620000Y-114300000D03*
X132080000Y-120650000D03*
X132080000Y-123190000D03*
X132080000Y-133350000D03*
X132080000Y-130810000D03*
D12*
X141224000Y-111760000D03*
X143764000Y-111760000D03*
D13*
X139700000Y-124460000D03*
D14*
X142240000Y-124460000D03*
X139700000Y-121920000D03*
X142240000Y-121920000D03*
X139700000Y-119380000D03*
X142240000Y-119380000D03*
X139700000Y-116840000D03*
X142240000Y-116840000D03*
D15*
X119380000Y-110744000D03*
D16*
X117856000Y-108204000D03*
D17*
X109220000Y-132080001D03*
D18*
X115317953Y-144777463D03*
D17*
X109220001Y-116840000D03*
D18*
X114809953Y-129537463D03*
D17*
X109220000Y-101600001D03*
D18*
X114809953Y-114297463D03*
D16*
X137160000Y-107696000D03*
D15*
X137160000Y-103896000D03*
D19*
X124460000Y-104140000D03*
D20*
X129460000Y-104140000D03*
D21*
X104140000Y-137160000D03*
X104140000Y-132160000D03*
X104140000Y-106680000D03*
X104140000Y-101680000D03*
X104140000Y-121920000D03*
X104140000Y-116920000D03*
D22*
X123190000Y-124460000D03*
D23*
X125730000Y-124460000D03*
X128270000Y-124460000D03*
D22*
X123190000Y-129540000D03*
D23*
X125730000Y-129540000D03*
X128270000Y-129540000D03*
D22*
X137160000Y-139700000D03*
D23*
X139700000Y-139700000D03*
X142240000Y-139700000D03*
X144780000Y-139700000D03*
D22*
X139700000Y-129540000D03*
D23*
X142240000Y-129540000D03*
X144780000Y-129540000D03*
D22*
X139700000Y-134620000D03*
D23*
X142240000Y-134620000D03*
X144780000Y-134620000D03*
M02*
