G04 #@! TF.FileFunction,Legend,Top*
%FSLAX46Y46*%
G04 Gerber Fmt 4.6, Leading zero omitted, Abs format (unit mm)*
G04 Created by KiCad (PCBNEW 4.0.4-stable) date 03/13/17 09:42:38*
%MOMM*%
%LPD*%
G01*
G04 APERTURE LIST*
%ADD10C,0.100000*%
%ADD11C,0.200000*%
%ADD12C,0.150000*%
%ADD13C,0.125000*%
G04 APERTURE END LIST*
D10*
D11*
X127889761Y-105917381D02*
X128556428Y-105917381D01*
X127889761Y-106917381D01*
X128556428Y-106917381D01*
X129318333Y-106869762D02*
X129223095Y-106917381D01*
X129032618Y-106917381D01*
X128937380Y-106869762D01*
X128889761Y-106774524D01*
X128889761Y-106393571D01*
X128937380Y-106298333D01*
X129032618Y-106250714D01*
X129223095Y-106250714D01*
X129318333Y-106298333D01*
X129365952Y-106393571D01*
X129365952Y-106488810D01*
X128889761Y-106584048D01*
X129794523Y-106250714D02*
X129794523Y-106917381D01*
X129794523Y-106345952D02*
X129842142Y-106298333D01*
X129937380Y-106250714D01*
X130080238Y-106250714D01*
X130175476Y-106298333D01*
X130223095Y-106393571D01*
X130223095Y-106917381D01*
X131985000Y-105965000D02*
X131889762Y-105917381D01*
X131746905Y-105917381D01*
X131604047Y-105965000D01*
X131508809Y-106060238D01*
X131461190Y-106155476D01*
X131413571Y-106345952D01*
X131413571Y-106488810D01*
X131461190Y-106679286D01*
X131508809Y-106774524D01*
X131604047Y-106869762D01*
X131746905Y-106917381D01*
X131842143Y-106917381D01*
X131985000Y-106869762D01*
X132032619Y-106822143D01*
X132032619Y-106488810D01*
X131842143Y-106488810D01*
X132889762Y-106917381D02*
X132889762Y-106393571D01*
X132842143Y-106298333D01*
X132746905Y-106250714D01*
X132556428Y-106250714D01*
X132461190Y-106298333D01*
X132889762Y-106869762D02*
X132794524Y-106917381D01*
X132556428Y-106917381D01*
X132461190Y-106869762D01*
X132413571Y-106774524D01*
X132413571Y-106679286D01*
X132461190Y-106584048D01*
X132556428Y-106536429D01*
X132794524Y-106536429D01*
X132889762Y-106488810D01*
X133365952Y-106917381D02*
X133365952Y-106250714D01*
X133365952Y-106441190D02*
X133413571Y-106345952D01*
X133461190Y-106298333D01*
X133556428Y-106250714D01*
X133651667Y-106250714D01*
X134413572Y-106917381D02*
X134413572Y-105917381D01*
X134413572Y-106869762D02*
X134318334Y-106917381D01*
X134127857Y-106917381D01*
X134032619Y-106869762D01*
X133985000Y-106822143D01*
X133937381Y-106726905D01*
X133937381Y-106441190D01*
X133985000Y-106345952D01*
X134032619Y-106298333D01*
X134127857Y-106250714D01*
X134318334Y-106250714D01*
X134413572Y-106298333D01*
X135270715Y-106869762D02*
X135175477Y-106917381D01*
X134985000Y-106917381D01*
X134889762Y-106869762D01*
X134842143Y-106774524D01*
X134842143Y-106393571D01*
X134889762Y-106298333D01*
X134985000Y-106250714D01*
X135175477Y-106250714D01*
X135270715Y-106298333D01*
X135318334Y-106393571D01*
X135318334Y-106488810D01*
X134842143Y-106584048D01*
X135746905Y-106250714D02*
X135746905Y-106917381D01*
X135746905Y-106345952D02*
X135794524Y-106298333D01*
X135889762Y-106250714D01*
X136032620Y-106250714D01*
X136127858Y-106298333D01*
X136175477Y-106393571D01*
X136175477Y-106917381D01*
X137365953Y-106869762D02*
X137508810Y-106917381D01*
X137746906Y-106917381D01*
X137842144Y-106869762D01*
X137889763Y-106822143D01*
X137937382Y-106726905D01*
X137937382Y-106631667D01*
X137889763Y-106536429D01*
X137842144Y-106488810D01*
X137746906Y-106441190D01*
X137556429Y-106393571D01*
X137461191Y-106345952D01*
X137413572Y-106298333D01*
X137365953Y-106203095D01*
X137365953Y-106107857D01*
X137413572Y-106012619D01*
X137461191Y-105965000D01*
X137556429Y-105917381D01*
X137794525Y-105917381D01*
X137937382Y-105965000D01*
X138223096Y-106250714D02*
X138604048Y-106250714D01*
X138365953Y-105917381D02*
X138365953Y-106774524D01*
X138413572Y-106869762D01*
X138508810Y-106917381D01*
X138604048Y-106917381D01*
X139365954Y-106917381D02*
X139365954Y-106393571D01*
X139318335Y-106298333D01*
X139223097Y-106250714D01*
X139032620Y-106250714D01*
X138937382Y-106298333D01*
X139365954Y-106869762D02*
X139270716Y-106917381D01*
X139032620Y-106917381D01*
X138937382Y-106869762D01*
X138889763Y-106774524D01*
X138889763Y-106679286D01*
X138937382Y-106584048D01*
X139032620Y-106536429D01*
X139270716Y-106536429D01*
X139365954Y-106488810D01*
X139842144Y-106917381D02*
X139842144Y-106250714D01*
X139842144Y-106441190D02*
X139889763Y-106345952D01*
X139937382Y-106298333D01*
X140032620Y-106250714D01*
X140127859Y-106250714D01*
X132675476Y-108617381D02*
X132342142Y-108141190D01*
X132104047Y-108617381D02*
X132104047Y-107617381D01*
X132485000Y-107617381D01*
X132580238Y-107665000D01*
X132627857Y-107712619D01*
X132675476Y-107807857D01*
X132675476Y-107950714D01*
X132627857Y-108045952D01*
X132580238Y-108093571D01*
X132485000Y-108141190D01*
X132104047Y-108141190D01*
X133485000Y-108569762D02*
X133389762Y-108617381D01*
X133199285Y-108617381D01*
X133104047Y-108569762D01*
X133056428Y-108474524D01*
X133056428Y-108093571D01*
X133104047Y-107998333D01*
X133199285Y-107950714D01*
X133389762Y-107950714D01*
X133485000Y-107998333D01*
X133532619Y-108093571D01*
X133532619Y-108188810D01*
X133056428Y-108284048D01*
X133865952Y-107950714D02*
X134104047Y-108617381D01*
X134342143Y-107950714D01*
X135437381Y-108331667D02*
X135913572Y-108331667D01*
X135342143Y-108617381D02*
X135675476Y-107617381D01*
X136008810Y-108617381D01*
X129024761Y-100567381D02*
X129024761Y-99567381D01*
X129358095Y-100281667D01*
X129691428Y-99567381D01*
X129691428Y-100567381D01*
X130596190Y-100567381D02*
X130596190Y-100043571D01*
X130548571Y-99948333D01*
X130453333Y-99900714D01*
X130262856Y-99900714D01*
X130167618Y-99948333D01*
X130596190Y-100519762D02*
X130500952Y-100567381D01*
X130262856Y-100567381D01*
X130167618Y-100519762D01*
X130119999Y-100424524D01*
X130119999Y-100329286D01*
X130167618Y-100234048D01*
X130262856Y-100186429D01*
X130500952Y-100186429D01*
X130596190Y-100138810D01*
X130929523Y-99900714D02*
X131310475Y-99900714D01*
X131072380Y-99567381D02*
X131072380Y-100424524D01*
X131119999Y-100519762D01*
X131215237Y-100567381D01*
X131310475Y-100567381D01*
X131500952Y-99900714D02*
X131881904Y-99900714D01*
X131643809Y-99567381D02*
X131643809Y-100424524D01*
X131691428Y-100519762D01*
X131786666Y-100567381D01*
X131881904Y-100567381D01*
X132215238Y-100567381D02*
X132215238Y-99567381D01*
X132643810Y-100567381D02*
X132643810Y-100043571D01*
X132596191Y-99948333D01*
X132500953Y-99900714D01*
X132358095Y-99900714D01*
X132262857Y-99948333D01*
X132215238Y-99995952D01*
X133500953Y-100519762D02*
X133405715Y-100567381D01*
X133215238Y-100567381D01*
X133120000Y-100519762D01*
X133072381Y-100424524D01*
X133072381Y-100043571D01*
X133120000Y-99948333D01*
X133215238Y-99900714D01*
X133405715Y-99900714D01*
X133500953Y-99948333D01*
X133548572Y-100043571D01*
X133548572Y-100138810D01*
X133072381Y-100234048D01*
X133881905Y-99900714D02*
X134072381Y-100567381D01*
X134262858Y-100091190D01*
X134453334Y-100567381D01*
X134643810Y-99900714D01*
X135739048Y-100519762D02*
X135881905Y-100567381D01*
X136120001Y-100567381D01*
X136215239Y-100519762D01*
X136262858Y-100472143D01*
X136310477Y-100376905D01*
X136310477Y-100281667D01*
X136262858Y-100186429D01*
X136215239Y-100138810D01*
X136120001Y-100091190D01*
X135929524Y-100043571D01*
X135834286Y-99995952D01*
X135786667Y-99948333D01*
X135739048Y-99853095D01*
X135739048Y-99757857D01*
X135786667Y-99662619D01*
X135834286Y-99615000D01*
X135929524Y-99567381D01*
X136167620Y-99567381D01*
X136310477Y-99615000D01*
X136643810Y-99900714D02*
X136834286Y-100567381D01*
X137024763Y-100091190D01*
X137215239Y-100567381D01*
X137405715Y-99900714D01*
X138215239Y-100567381D02*
X138215239Y-100043571D01*
X138167620Y-99948333D01*
X138072382Y-99900714D01*
X137881905Y-99900714D01*
X137786667Y-99948333D01*
X138215239Y-100519762D02*
X138120001Y-100567381D01*
X137881905Y-100567381D01*
X137786667Y-100519762D01*
X137739048Y-100424524D01*
X137739048Y-100329286D01*
X137786667Y-100234048D01*
X137881905Y-100186429D01*
X138120001Y-100186429D01*
X138215239Y-100138810D01*
X138691429Y-100567381D02*
X138691429Y-99900714D01*
X138691429Y-100091190D02*
X138739048Y-99995952D01*
X138786667Y-99948333D01*
X138881905Y-99900714D01*
X138977144Y-99900714D01*
X139167620Y-99900714D02*
X139548572Y-99900714D01*
X139310477Y-99567381D02*
X139310477Y-100424524D01*
X139358096Y-100519762D01*
X139453334Y-100567381D01*
X139548572Y-100567381D01*
X139834287Y-100519762D02*
X139929525Y-100567381D01*
X140120001Y-100567381D01*
X140215240Y-100519762D01*
X140262859Y-100424524D01*
X140262859Y-100376905D01*
X140215240Y-100281667D01*
X140120001Y-100234048D01*
X139977144Y-100234048D01*
X139881906Y-100186429D01*
X139834287Y-100091190D01*
X139834287Y-100043571D01*
X139881906Y-99948333D01*
X139977144Y-99900714D01*
X140120001Y-99900714D01*
X140215240Y-99948333D01*
X130524762Y-101362619D02*
X130572381Y-101315000D01*
X130667619Y-101267381D01*
X130905715Y-101267381D01*
X131000953Y-101315000D01*
X131048572Y-101362619D01*
X131096191Y-101457857D01*
X131096191Y-101553095D01*
X131048572Y-101695952D01*
X130477143Y-102267381D01*
X131096191Y-102267381D01*
X131715238Y-101267381D02*
X131810477Y-101267381D01*
X131905715Y-101315000D01*
X131953334Y-101362619D01*
X132000953Y-101457857D01*
X132048572Y-101648333D01*
X132048572Y-101886429D01*
X132000953Y-102076905D01*
X131953334Y-102172143D01*
X131905715Y-102219762D01*
X131810477Y-102267381D01*
X131715238Y-102267381D01*
X131620000Y-102219762D01*
X131572381Y-102172143D01*
X131524762Y-102076905D01*
X131477143Y-101886429D01*
X131477143Y-101648333D01*
X131524762Y-101457857D01*
X131572381Y-101362619D01*
X131620000Y-101315000D01*
X131715238Y-101267381D01*
X133000953Y-102267381D02*
X132429524Y-102267381D01*
X132715238Y-102267381D02*
X132715238Y-101267381D01*
X132620000Y-101410238D01*
X132524762Y-101505476D01*
X132429524Y-101553095D01*
X133334286Y-101267381D02*
X134000953Y-101267381D01*
X133572381Y-102267381D01*
X134381905Y-102172143D02*
X134429524Y-102219762D01*
X134381905Y-102267381D01*
X134334286Y-102219762D01*
X134381905Y-102172143D01*
X134381905Y-102267381D01*
X135048571Y-101267381D02*
X135143810Y-101267381D01*
X135239048Y-101315000D01*
X135286667Y-101362619D01*
X135334286Y-101457857D01*
X135381905Y-101648333D01*
X135381905Y-101886429D01*
X135334286Y-102076905D01*
X135286667Y-102172143D01*
X135239048Y-102219762D01*
X135143810Y-102267381D01*
X135048571Y-102267381D01*
X134953333Y-102219762D01*
X134905714Y-102172143D01*
X134858095Y-102076905D01*
X134810476Y-101886429D01*
X134810476Y-101648333D01*
X134858095Y-101457857D01*
X134905714Y-101362619D01*
X134953333Y-101315000D01*
X135048571Y-101267381D01*
X135715238Y-101267381D02*
X136334286Y-101267381D01*
X136000952Y-101648333D01*
X136143810Y-101648333D01*
X136239048Y-101695952D01*
X136286667Y-101743571D01*
X136334286Y-101838810D01*
X136334286Y-102076905D01*
X136286667Y-102172143D01*
X136239048Y-102219762D01*
X136143810Y-102267381D01*
X135858095Y-102267381D01*
X135762857Y-102219762D01*
X135715238Y-102172143D01*
X136762857Y-102172143D02*
X136810476Y-102219762D01*
X136762857Y-102267381D01*
X136715238Y-102219762D01*
X136762857Y-102172143D01*
X136762857Y-102267381D01*
X137762857Y-102267381D02*
X137191428Y-102267381D01*
X137477142Y-102267381D02*
X137477142Y-101267381D01*
X137381904Y-101410238D01*
X137286666Y-101505476D01*
X137191428Y-101553095D01*
X138096190Y-101267381D02*
X138715238Y-101267381D01*
X138381904Y-101648333D01*
X138524762Y-101648333D01*
X138620000Y-101695952D01*
X138667619Y-101743571D01*
X138715238Y-101838810D01*
X138715238Y-102076905D01*
X138667619Y-102172143D01*
X138620000Y-102219762D01*
X138524762Y-102267381D01*
X138239047Y-102267381D01*
X138143809Y-102219762D01*
X138096190Y-102172143D01*
X122330000Y-127609523D02*
X122253810Y-127685714D01*
X122253810Y-127799999D01*
X122330000Y-127914285D01*
X122482381Y-127990476D01*
X122634762Y-128028571D01*
X122939524Y-128066666D01*
X123168095Y-128066666D01*
X123472857Y-128028571D01*
X123625238Y-127990476D01*
X123777619Y-127914285D01*
X123853810Y-127799999D01*
X123853810Y-127723809D01*
X123777619Y-127609523D01*
X123701429Y-127571428D01*
X123168095Y-127571428D01*
X123168095Y-127723809D01*
X123853810Y-127228571D02*
X122253810Y-127228571D01*
X123853810Y-126771428D01*
X122253810Y-126771428D01*
X123853810Y-126390476D02*
X122253810Y-126390476D01*
X122253810Y-126200000D01*
X122330000Y-126085714D01*
X122482381Y-126009523D01*
X122634762Y-125971428D01*
X122939524Y-125933333D01*
X123168095Y-125933333D01*
X123472857Y-125971428D01*
X123625238Y-126009523D01*
X123777619Y-126085714D01*
X123853810Y-126200000D01*
X123853810Y-126390476D01*
X124853810Y-128028572D02*
X126453810Y-127761905D01*
X124853810Y-127495238D01*
X124853810Y-126847619D02*
X124853810Y-127228572D01*
X125615714Y-127266667D01*
X125539524Y-127228572D01*
X125463333Y-127152381D01*
X125463333Y-126961905D01*
X125539524Y-126885715D01*
X125615714Y-126847619D01*
X125768095Y-126809524D01*
X126149048Y-126809524D01*
X126301429Y-126847619D01*
X126377619Y-126885715D01*
X126453810Y-126961905D01*
X126453810Y-127152381D01*
X126377619Y-127228572D01*
X126301429Y-127266667D01*
X124853810Y-126314286D02*
X124853810Y-126238095D01*
X124930000Y-126161905D01*
X125006190Y-126123810D01*
X125158571Y-126085714D01*
X125463333Y-126047619D01*
X125844286Y-126047619D01*
X126149048Y-126085714D01*
X126301429Y-126123810D01*
X126377619Y-126161905D01*
X126453810Y-126238095D01*
X126453810Y-126314286D01*
X126377619Y-126390476D01*
X126301429Y-126428572D01*
X126149048Y-126466667D01*
X125844286Y-126504762D01*
X125463333Y-126504762D01*
X125158571Y-126466667D01*
X125006190Y-126428572D01*
X124930000Y-126390476D01*
X124853810Y-126314286D01*
X128596667Y-127571428D02*
X128596667Y-127190476D01*
X129053810Y-127647619D02*
X127453810Y-127380952D01*
X129053810Y-127114285D01*
X127453810Y-126695238D02*
X127453810Y-126619047D01*
X127530000Y-126542857D01*
X127606190Y-126504762D01*
X127758571Y-126466666D01*
X128063333Y-126428571D01*
X128444286Y-126428571D01*
X128749048Y-126466666D01*
X128901429Y-126504762D01*
X128977619Y-126542857D01*
X129053810Y-126619047D01*
X129053810Y-126695238D01*
X128977619Y-126771428D01*
X128901429Y-126809524D01*
X128749048Y-126847619D01*
X128444286Y-126885714D01*
X128063333Y-126885714D01*
X127758571Y-126847619D01*
X127606190Y-126809524D01*
X127530000Y-126771428D01*
X127453810Y-126695238D01*
X122330000Y-132689523D02*
X122253810Y-132765714D01*
X122253810Y-132879999D01*
X122330000Y-132994285D01*
X122482381Y-133070476D01*
X122634762Y-133108571D01*
X122939524Y-133146666D01*
X123168095Y-133146666D01*
X123472857Y-133108571D01*
X123625238Y-133070476D01*
X123777619Y-132994285D01*
X123853810Y-132879999D01*
X123853810Y-132803809D01*
X123777619Y-132689523D01*
X123701429Y-132651428D01*
X123168095Y-132651428D01*
X123168095Y-132803809D01*
X123853810Y-132308571D02*
X122253810Y-132308571D01*
X123853810Y-131851428D01*
X122253810Y-131851428D01*
X123853810Y-131470476D02*
X122253810Y-131470476D01*
X122253810Y-131280000D01*
X122330000Y-131165714D01*
X122482381Y-131089523D01*
X122634762Y-131051428D01*
X122939524Y-131013333D01*
X123168095Y-131013333D01*
X123472857Y-131051428D01*
X123625238Y-131089523D01*
X123777619Y-131165714D01*
X123853810Y-131280000D01*
X123853810Y-131470476D01*
X124853810Y-133108572D02*
X126453810Y-132841905D01*
X124853810Y-132575238D01*
X124853810Y-131927619D02*
X124853810Y-132308572D01*
X125615714Y-132346667D01*
X125539524Y-132308572D01*
X125463333Y-132232381D01*
X125463333Y-132041905D01*
X125539524Y-131965715D01*
X125615714Y-131927619D01*
X125768095Y-131889524D01*
X126149048Y-131889524D01*
X126301429Y-131927619D01*
X126377619Y-131965715D01*
X126453810Y-132041905D01*
X126453810Y-132232381D01*
X126377619Y-132308572D01*
X126301429Y-132346667D01*
X124853810Y-131394286D02*
X124853810Y-131318095D01*
X124930000Y-131241905D01*
X125006190Y-131203810D01*
X125158571Y-131165714D01*
X125463333Y-131127619D01*
X125844286Y-131127619D01*
X126149048Y-131165714D01*
X126301429Y-131203810D01*
X126377619Y-131241905D01*
X126453810Y-131318095D01*
X126453810Y-131394286D01*
X126377619Y-131470476D01*
X126301429Y-131508572D01*
X126149048Y-131546667D01*
X125844286Y-131584762D01*
X125463333Y-131584762D01*
X125158571Y-131546667D01*
X125006190Y-131508572D01*
X124930000Y-131470476D01*
X124853810Y-131394286D01*
X128596667Y-132651428D02*
X128596667Y-132270476D01*
X129053810Y-132727619D02*
X127453810Y-132460952D01*
X129053810Y-132194285D01*
X129053810Y-131508571D02*
X129053810Y-131965714D01*
X129053810Y-131737143D02*
X127453810Y-131737143D01*
X127682381Y-131813333D01*
X127834762Y-131889524D01*
X127910952Y-131965714D01*
X138840000Y-127609523D02*
X138763810Y-127685714D01*
X138763810Y-127799999D01*
X138840000Y-127914285D01*
X138992381Y-127990476D01*
X139144762Y-128028571D01*
X139449524Y-128066666D01*
X139678095Y-128066666D01*
X139982857Y-128028571D01*
X140135238Y-127990476D01*
X140287619Y-127914285D01*
X140363810Y-127799999D01*
X140363810Y-127723809D01*
X140287619Y-127609523D01*
X140211429Y-127571428D01*
X139678095Y-127571428D01*
X139678095Y-127723809D01*
X140363810Y-127228571D02*
X138763810Y-127228571D01*
X140363810Y-126771428D01*
X138763810Y-126771428D01*
X140363810Y-126390476D02*
X138763810Y-126390476D01*
X138763810Y-126200000D01*
X138840000Y-126085714D01*
X138992381Y-126009523D01*
X139144762Y-125971428D01*
X139449524Y-125933333D01*
X139678095Y-125933333D01*
X139982857Y-125971428D01*
X140135238Y-126009523D01*
X140287619Y-126085714D01*
X140363810Y-126200000D01*
X140363810Y-126390476D01*
X142963810Y-128180952D02*
X141363810Y-128180952D01*
X141363810Y-127876190D01*
X141440000Y-127799999D01*
X141516190Y-127761904D01*
X141668571Y-127723809D01*
X141897143Y-127723809D01*
X142049524Y-127761904D01*
X142125714Y-127799999D01*
X142201905Y-127876190D01*
X142201905Y-128180952D01*
X142963810Y-127380952D02*
X141363810Y-127380952D01*
X142963810Y-126542857D02*
X142201905Y-126809524D01*
X142963810Y-127000000D02*
X141363810Y-127000000D01*
X141363810Y-126695238D01*
X141440000Y-126619047D01*
X141516190Y-126580952D01*
X141668571Y-126542857D01*
X141897143Y-126542857D01*
X142049524Y-126580952D01*
X142125714Y-126619047D01*
X142201905Y-126695238D01*
X142201905Y-127000000D01*
X141363810Y-126047619D02*
X141363810Y-125971428D01*
X141440000Y-125895238D01*
X141516190Y-125857143D01*
X141668571Y-125819047D01*
X141973333Y-125780952D01*
X142354286Y-125780952D01*
X142659048Y-125819047D01*
X142811429Y-125857143D01*
X142887619Y-125895238D01*
X142963810Y-125971428D01*
X142963810Y-126047619D01*
X142887619Y-126123809D01*
X142811429Y-126161905D01*
X142659048Y-126200000D01*
X142354286Y-126238095D01*
X141973333Y-126238095D01*
X141668571Y-126200000D01*
X141516190Y-126161905D01*
X141440000Y-126123809D01*
X141363810Y-126047619D01*
X143963810Y-128028572D02*
X145563810Y-127761905D01*
X143963810Y-127495238D01*
X143963810Y-126847619D02*
X143963810Y-127228572D01*
X144725714Y-127266667D01*
X144649524Y-127228572D01*
X144573333Y-127152381D01*
X144573333Y-126961905D01*
X144649524Y-126885715D01*
X144725714Y-126847619D01*
X144878095Y-126809524D01*
X145259048Y-126809524D01*
X145411429Y-126847619D01*
X145487619Y-126885715D01*
X145563810Y-126961905D01*
X145563810Y-127152381D01*
X145487619Y-127228572D01*
X145411429Y-127266667D01*
X143963810Y-126314286D02*
X143963810Y-126238095D01*
X144040000Y-126161905D01*
X144116190Y-126123810D01*
X144268571Y-126085714D01*
X144573333Y-126047619D01*
X144954286Y-126047619D01*
X145259048Y-126085714D01*
X145411429Y-126123810D01*
X145487619Y-126161905D01*
X145563810Y-126238095D01*
X145563810Y-126314286D01*
X145487619Y-126390476D01*
X145411429Y-126428572D01*
X145259048Y-126466667D01*
X144954286Y-126504762D01*
X144573333Y-126504762D01*
X144268571Y-126466667D01*
X144116190Y-126428572D01*
X144040000Y-126390476D01*
X143963810Y-126314286D01*
X138840000Y-132689523D02*
X138763810Y-132765714D01*
X138763810Y-132879999D01*
X138840000Y-132994285D01*
X138992381Y-133070476D01*
X139144762Y-133108571D01*
X139449524Y-133146666D01*
X139678095Y-133146666D01*
X139982857Y-133108571D01*
X140135238Y-133070476D01*
X140287619Y-132994285D01*
X140363810Y-132879999D01*
X140363810Y-132803809D01*
X140287619Y-132689523D01*
X140211429Y-132651428D01*
X139678095Y-132651428D01*
X139678095Y-132803809D01*
X140363810Y-132308571D02*
X138763810Y-132308571D01*
X140363810Y-131851428D01*
X138763810Y-131851428D01*
X140363810Y-131470476D02*
X138763810Y-131470476D01*
X138763810Y-131280000D01*
X138840000Y-131165714D01*
X138992381Y-131089523D01*
X139144762Y-131051428D01*
X139449524Y-131013333D01*
X139678095Y-131013333D01*
X139982857Y-131051428D01*
X140135238Y-131089523D01*
X140287619Y-131165714D01*
X140363810Y-131280000D01*
X140363810Y-131470476D01*
X142963810Y-133260952D02*
X141363810Y-133260952D01*
X141363810Y-132956190D01*
X141440000Y-132879999D01*
X141516190Y-132841904D01*
X141668571Y-132803809D01*
X141897143Y-132803809D01*
X142049524Y-132841904D01*
X142125714Y-132879999D01*
X142201905Y-132956190D01*
X142201905Y-133260952D01*
X142963810Y-132460952D02*
X141363810Y-132460952D01*
X142963810Y-131622857D02*
X142201905Y-131889524D01*
X142963810Y-132080000D02*
X141363810Y-132080000D01*
X141363810Y-131775238D01*
X141440000Y-131699047D01*
X141516190Y-131660952D01*
X141668571Y-131622857D01*
X141897143Y-131622857D01*
X142049524Y-131660952D01*
X142125714Y-131699047D01*
X142201905Y-131775238D01*
X142201905Y-132080000D01*
X142963810Y-130860952D02*
X142963810Y-131318095D01*
X142963810Y-131089524D02*
X141363810Y-131089524D01*
X141592381Y-131165714D01*
X141744762Y-131241905D01*
X141820952Y-131318095D01*
X143963810Y-133108572D02*
X145563810Y-132841905D01*
X143963810Y-132575238D01*
X143963810Y-131927619D02*
X143963810Y-132308572D01*
X144725714Y-132346667D01*
X144649524Y-132308572D01*
X144573333Y-132232381D01*
X144573333Y-132041905D01*
X144649524Y-131965715D01*
X144725714Y-131927619D01*
X144878095Y-131889524D01*
X145259048Y-131889524D01*
X145411429Y-131927619D01*
X145487619Y-131965715D01*
X145563810Y-132041905D01*
X145563810Y-132232381D01*
X145487619Y-132308572D01*
X145411429Y-132346667D01*
X143963810Y-131394286D02*
X143963810Y-131318095D01*
X144040000Y-131241905D01*
X144116190Y-131203810D01*
X144268571Y-131165714D01*
X144573333Y-131127619D01*
X144954286Y-131127619D01*
X145259048Y-131165714D01*
X145411429Y-131203810D01*
X145487619Y-131241905D01*
X145563810Y-131318095D01*
X145563810Y-131394286D01*
X145487619Y-131470476D01*
X145411429Y-131508572D01*
X145259048Y-131546667D01*
X144954286Y-131584762D01*
X144573333Y-131584762D01*
X144268571Y-131546667D01*
X144116190Y-131508572D01*
X144040000Y-131470476D01*
X143963810Y-131394286D01*
X136270000Y-137769523D02*
X136193810Y-137845714D01*
X136193810Y-137959999D01*
X136270000Y-138074285D01*
X136422381Y-138150476D01*
X136574762Y-138188571D01*
X136879524Y-138226666D01*
X137108095Y-138226666D01*
X137412857Y-138188571D01*
X137565238Y-138150476D01*
X137717619Y-138074285D01*
X137793810Y-137959999D01*
X137793810Y-137883809D01*
X137717619Y-137769523D01*
X137641429Y-137731428D01*
X137108095Y-137731428D01*
X137108095Y-137883809D01*
X137793810Y-137388571D02*
X136193810Y-137388571D01*
X137793810Y-136931428D01*
X136193810Y-136931428D01*
X137793810Y-136550476D02*
X136193810Y-136550476D01*
X136193810Y-136360000D01*
X136270000Y-136245714D01*
X136422381Y-136169523D01*
X136574762Y-136131428D01*
X136879524Y-136093333D01*
X137108095Y-136093333D01*
X137412857Y-136131428D01*
X137565238Y-136169523D01*
X137717619Y-136245714D01*
X137793810Y-136360000D01*
X137793810Y-136550476D01*
X138793810Y-138188572D02*
X140393810Y-137921905D01*
X138793810Y-137655238D01*
X138793810Y-137007619D02*
X138793810Y-137388572D01*
X139555714Y-137426667D01*
X139479524Y-137388572D01*
X139403333Y-137312381D01*
X139403333Y-137121905D01*
X139479524Y-137045715D01*
X139555714Y-137007619D01*
X139708095Y-136969524D01*
X140089048Y-136969524D01*
X140241429Y-137007619D01*
X140317619Y-137045715D01*
X140393810Y-137121905D01*
X140393810Y-137312381D01*
X140317619Y-137388572D01*
X140241429Y-137426667D01*
X138793810Y-136474286D02*
X138793810Y-136398095D01*
X138870000Y-136321905D01*
X138946190Y-136283810D01*
X139098571Y-136245714D01*
X139403333Y-136207619D01*
X139784286Y-136207619D01*
X140089048Y-136245714D01*
X140241429Y-136283810D01*
X140317619Y-136321905D01*
X140393810Y-136398095D01*
X140393810Y-136474286D01*
X140317619Y-136550476D01*
X140241429Y-136588572D01*
X140089048Y-136626667D01*
X139784286Y-136664762D01*
X139403333Y-136664762D01*
X139098571Y-136626667D01*
X138946190Y-136588572D01*
X138870000Y-136550476D01*
X138793810Y-136474286D01*
X142917619Y-138131428D02*
X142993810Y-138017142D01*
X142993810Y-137826666D01*
X142917619Y-137750476D01*
X142841429Y-137712380D01*
X142689048Y-137674285D01*
X142536667Y-137674285D01*
X142384286Y-137712380D01*
X142308095Y-137750476D01*
X142231905Y-137826666D01*
X142155714Y-137979047D01*
X142079524Y-138055238D01*
X142003333Y-138093333D01*
X141850952Y-138131428D01*
X141698571Y-138131428D01*
X141546190Y-138093333D01*
X141470000Y-138055238D01*
X141393810Y-137979047D01*
X141393810Y-137788571D01*
X141470000Y-137674285D01*
X142993810Y-137331428D02*
X141393810Y-137331428D01*
X141393810Y-137140952D01*
X141470000Y-137026666D01*
X141622381Y-136950475D01*
X141774762Y-136912380D01*
X142079524Y-136874285D01*
X142308095Y-136874285D01*
X142612857Y-136912380D01*
X142765238Y-136950475D01*
X142917619Y-137026666D01*
X142993810Y-137140952D01*
X142993810Y-137331428D01*
X142536667Y-136569523D02*
X142536667Y-136188571D01*
X142993810Y-136645714D02*
X141393810Y-136379047D01*
X142993810Y-136112380D01*
X145517619Y-138112381D02*
X145593810Y-137998095D01*
X145593810Y-137807619D01*
X145517619Y-137731429D01*
X145441429Y-137693333D01*
X145289048Y-137655238D01*
X145136667Y-137655238D01*
X144984286Y-137693333D01*
X144908095Y-137731429D01*
X144831905Y-137807619D01*
X144755714Y-137960000D01*
X144679524Y-138036191D01*
X144603333Y-138074286D01*
X144450952Y-138112381D01*
X144298571Y-138112381D01*
X144146190Y-138074286D01*
X144070000Y-138036191D01*
X143993810Y-137960000D01*
X143993810Y-137769524D01*
X144070000Y-137655238D01*
X145441429Y-136855238D02*
X145517619Y-136893333D01*
X145593810Y-137007619D01*
X145593810Y-137083809D01*
X145517619Y-137198095D01*
X145365238Y-137274286D01*
X145212857Y-137312381D01*
X144908095Y-137350476D01*
X144679524Y-137350476D01*
X144374762Y-137312381D01*
X144222381Y-137274286D01*
X144070000Y-137198095D01*
X143993810Y-137083809D01*
X143993810Y-137007619D01*
X144070000Y-136893333D01*
X144146190Y-136855238D01*
X145593810Y-136131428D02*
X145593810Y-136512381D01*
X143993810Y-136512381D01*
D12*
X121555000Y-112150000D02*
X123555000Y-112150000D01*
X123555000Y-110100000D02*
X121555000Y-110100000D01*
X127009000Y-139176000D02*
X127009000Y-137176000D01*
X124959000Y-137176000D02*
X124959000Y-139176000D01*
X144390000Y-122825000D02*
X144390000Y-124825000D01*
X146440000Y-124825000D02*
X146440000Y-122825000D01*
X145630000Y-112260000D02*
X145630000Y-111260000D01*
X143930000Y-111260000D02*
X143930000Y-112260000D01*
X129270000Y-112200000D02*
X127270000Y-112200000D01*
X127270000Y-110050000D02*
X129270000Y-110050000D01*
X133715000Y-112200000D02*
X131715000Y-112200000D01*
X131715000Y-110050000D02*
X133715000Y-110050000D01*
X130556000Y-115316000D02*
X130556000Y-112268000D01*
X130556000Y-112268000D02*
X123444000Y-112268000D01*
X123444000Y-112268000D02*
X123444000Y-115316000D01*
X130556000Y-118364000D02*
X130556000Y-119126000D01*
X130556000Y-119126000D02*
X129032000Y-121412000D01*
X129032000Y-121412000D02*
X124968000Y-121412000D01*
X124968000Y-121412000D02*
X123444000Y-119126000D01*
X123444000Y-119126000D02*
X123444000Y-118364000D01*
X141634160Y-111109760D02*
X141585900Y-111109760D01*
X138835180Y-111810800D02*
X138835180Y-111109760D01*
X138835180Y-111109760D02*
X139084100Y-111109760D01*
X141634160Y-111109760D02*
X141834820Y-111109760D01*
X141834820Y-111109760D02*
X141834820Y-111810800D01*
X110228000Y-133770000D02*
X109228000Y-133770000D01*
X109228000Y-135470000D02*
X110228000Y-135470000D01*
X110228000Y-118530000D02*
X109228000Y-118530000D01*
X109228000Y-120230000D02*
X110228000Y-120230000D01*
X110228000Y-103290000D02*
X109228000Y-103290000D01*
X109228000Y-104990000D02*
X110228000Y-104990000D01*
X110736000Y-141390000D02*
X109736000Y-141390000D01*
X109736000Y-143090000D02*
X110736000Y-143090000D01*
X110736000Y-126150000D02*
X109736000Y-126150000D01*
X109736000Y-127850000D02*
X110736000Y-127850000D01*
X110736000Y-110910000D02*
X109736000Y-110910000D01*
X109736000Y-112610000D02*
X110736000Y-112610000D01*
X111061500Y-144272000D02*
X111442500Y-144272000D01*
X110045500Y-144272000D02*
X110426500Y-144272000D01*
X110426500Y-144272000D02*
X111061500Y-143891000D01*
X111061500Y-143891000D02*
X111061500Y-144653000D01*
X111061500Y-144653000D02*
X110426500Y-144272000D01*
X110426500Y-143764000D02*
X110426500Y-144780000D01*
X108744000Y-145172000D02*
X112284000Y-145172000D01*
X108744000Y-143372000D02*
X112284000Y-143372000D01*
X111061500Y-129032000D02*
X111442500Y-129032000D01*
X110045500Y-129032000D02*
X110426500Y-129032000D01*
X110426500Y-129032000D02*
X111061500Y-128651000D01*
X111061500Y-128651000D02*
X111061500Y-129413000D01*
X111061500Y-129413000D02*
X110426500Y-129032000D01*
X110426500Y-128524000D02*
X110426500Y-129540000D01*
X108744000Y-129932000D02*
X112284000Y-129932000D01*
X108744000Y-128132000D02*
X112284000Y-128132000D01*
X111061500Y-113792000D02*
X111442500Y-113792000D01*
X110045500Y-113792000D02*
X110426500Y-113792000D01*
X110426500Y-113792000D02*
X111061500Y-113411000D01*
X111061500Y-113411000D02*
X111061500Y-114173000D01*
X111061500Y-114173000D02*
X110426500Y-113792000D01*
X110426500Y-113284000D02*
X110426500Y-114300000D01*
X108744000Y-114692000D02*
X112284000Y-114692000D01*
X108744000Y-112892000D02*
X112284000Y-112892000D01*
X113808000Y-141165000D02*
X115808000Y-141165000D01*
X115808000Y-143315000D02*
X113808000Y-143315000D01*
X113808000Y-125925000D02*
X115808000Y-125925000D01*
X115808000Y-128075000D02*
X113808000Y-128075000D01*
X113808000Y-110685000D02*
X115808000Y-110685000D01*
X115808000Y-112835000D02*
X113808000Y-112835000D01*
X113300000Y-133545000D02*
X115300000Y-133545000D01*
X115300000Y-135695000D02*
X113300000Y-135695000D01*
X113300000Y-118305000D02*
X115300000Y-118305000D01*
X115300000Y-120455000D02*
X113300000Y-120455000D01*
X113300000Y-103065000D02*
X115300000Y-103065000D01*
X115300000Y-105215000D02*
X113300000Y-105215000D01*
X114343000Y-126019000D02*
X114343000Y-125874000D01*
X110193000Y-126019000D02*
X110193000Y-125874000D01*
X110193000Y-120869000D02*
X110193000Y-121014000D01*
X114343000Y-120869000D02*
X114343000Y-121014000D01*
X114343000Y-126019000D02*
X110193000Y-126019000D01*
X114343000Y-120869000D02*
X110193000Y-120869000D01*
X114343000Y-125874000D02*
X115743000Y-125874000D01*
X114343000Y-110779000D02*
X114343000Y-110634000D01*
X110193000Y-110779000D02*
X110193000Y-110634000D01*
X110193000Y-105629000D02*
X110193000Y-105774000D01*
X114343000Y-105629000D02*
X114343000Y-105774000D01*
X114343000Y-110779000D02*
X110193000Y-110779000D01*
X114343000Y-105629000D02*
X110193000Y-105629000D01*
X114343000Y-110634000D02*
X115743000Y-110634000D01*
X114343000Y-141259000D02*
X114343000Y-141114000D01*
X110193000Y-141259000D02*
X110193000Y-141114000D01*
X110193000Y-136109000D02*
X110193000Y-136254000D01*
X114343000Y-136109000D02*
X114343000Y-136254000D01*
X114343000Y-141259000D02*
X110193000Y-141259000D01*
X114343000Y-136109000D02*
X110193000Y-136109000D01*
X114343000Y-141114000D02*
X115743000Y-141114000D01*
D10*
X108156000Y-145240000D02*
X108156000Y-139240000D01*
X108156000Y-139240000D02*
X102156000Y-139240000D01*
X102156000Y-139240000D02*
X102156000Y-145240000D01*
X102156000Y-145240000D02*
X108156000Y-145240000D01*
X108156000Y-130000000D02*
X108156000Y-124000000D01*
X108156000Y-124000000D02*
X102156000Y-124000000D01*
X102156000Y-124000000D02*
X102156000Y-130000000D01*
X102156000Y-130000000D02*
X108156000Y-130000000D01*
X108156000Y-114760000D02*
X108156000Y-108760000D01*
X108156000Y-108760000D02*
X102156000Y-108760000D01*
X102156000Y-108760000D02*
X102156000Y-114760000D01*
X102156000Y-114760000D02*
X108156000Y-114760000D01*
D12*
X122388334Y-108307143D02*
X122340715Y-108354762D01*
X122197858Y-108402381D01*
X122102620Y-108402381D01*
X121959762Y-108354762D01*
X121864524Y-108259524D01*
X121816905Y-108164286D01*
X121769286Y-107973810D01*
X121769286Y-107830952D01*
X121816905Y-107640476D01*
X121864524Y-107545238D01*
X121959762Y-107450000D01*
X122102620Y-107402381D01*
X122197858Y-107402381D01*
X122340715Y-107450000D01*
X122388334Y-107497619D01*
X123340715Y-108402381D02*
X122769286Y-108402381D01*
X123055000Y-108402381D02*
X123055000Y-107402381D01*
X122959762Y-107545238D01*
X122864524Y-107640476D01*
X122769286Y-107688095D01*
D10*
X121328811Y-109446190D02*
X121043097Y-109446190D01*
X121185954Y-109446190D02*
X121185954Y-108946190D01*
X121138335Y-109017619D01*
X121090716Y-109065238D01*
X121043097Y-109089048D01*
X121638335Y-108946190D02*
X121685954Y-108946190D01*
X121733573Y-108970000D01*
X121757382Y-108993810D01*
X121781192Y-109041429D01*
X121805001Y-109136667D01*
X121805001Y-109255714D01*
X121781192Y-109350952D01*
X121757382Y-109398571D01*
X121733573Y-109422381D01*
X121685954Y-109446190D01*
X121638335Y-109446190D01*
X121590716Y-109422381D01*
X121566906Y-109398571D01*
X121543097Y-109350952D01*
X121519287Y-109255714D01*
X121519287Y-109136667D01*
X121543097Y-109041429D01*
X121566906Y-108993810D01*
X121590716Y-108970000D01*
X121638335Y-108946190D01*
X122233572Y-109112857D02*
X122233572Y-109446190D01*
X122019287Y-109112857D02*
X122019287Y-109374762D01*
X122043096Y-109422381D01*
X122090715Y-109446190D01*
X122162144Y-109446190D01*
X122209763Y-109422381D01*
X122233572Y-109398571D01*
X122638334Y-109184286D02*
X122471668Y-109184286D01*
X122471668Y-109446190D02*
X122471668Y-108946190D01*
X122709763Y-108946190D01*
X123138334Y-108946190D02*
X122900239Y-108946190D01*
X122876429Y-109184286D01*
X122900239Y-109160476D01*
X122947858Y-109136667D01*
X123066905Y-109136667D01*
X123114524Y-109160476D01*
X123138334Y-109184286D01*
X123162143Y-109231905D01*
X123162143Y-109350952D01*
X123138334Y-109398571D01*
X123114524Y-109422381D01*
X123066905Y-109446190D01*
X122947858Y-109446190D01*
X122900239Y-109422381D01*
X122876429Y-109398571D01*
X123471667Y-108946190D02*
X123519286Y-108946190D01*
X123566905Y-108970000D01*
X123590714Y-108993810D01*
X123614524Y-109041429D01*
X123638333Y-109136667D01*
X123638333Y-109255714D01*
X123614524Y-109350952D01*
X123590714Y-109398571D01*
X123566905Y-109422381D01*
X123519286Y-109446190D01*
X123471667Y-109446190D01*
X123424048Y-109422381D01*
X123400238Y-109398571D01*
X123376429Y-109350952D01*
X123352619Y-109255714D01*
X123352619Y-109136667D01*
X123376429Y-109041429D01*
X123400238Y-108993810D01*
X123424048Y-108970000D01*
X123471667Y-108946190D01*
X123781190Y-108946190D02*
X123947857Y-109446190D01*
X124114523Y-108946190D01*
D12*
X124182143Y-137961666D02*
X124229762Y-138009285D01*
X124277381Y-138152142D01*
X124277381Y-138247380D01*
X124229762Y-138390238D01*
X124134524Y-138485476D01*
X124039286Y-138533095D01*
X123848810Y-138580714D01*
X123705952Y-138580714D01*
X123515476Y-138533095D01*
X123420238Y-138485476D01*
X123325000Y-138390238D01*
X123277381Y-138247380D01*
X123277381Y-138152142D01*
X123325000Y-138009285D01*
X123372619Y-137961666D01*
X123372619Y-137580714D02*
X123325000Y-137533095D01*
X123277381Y-137437857D01*
X123277381Y-137199761D01*
X123325000Y-137104523D01*
X123372619Y-137056904D01*
X123467857Y-137009285D01*
X123563095Y-137009285D01*
X123705952Y-137056904D01*
X124277381Y-137628333D01*
X124277381Y-137009285D01*
D10*
X125583335Y-138656190D02*
X125297621Y-138656190D01*
X125440478Y-138656190D02*
X125440478Y-138156190D01*
X125392859Y-138227619D01*
X125345240Y-138275238D01*
X125297621Y-138299048D01*
X125892859Y-138156190D02*
X125940478Y-138156190D01*
X125988097Y-138180000D01*
X126011906Y-138203810D01*
X126035716Y-138251429D01*
X126059525Y-138346667D01*
X126059525Y-138465714D01*
X126035716Y-138560952D01*
X126011906Y-138608571D01*
X125988097Y-138632381D01*
X125940478Y-138656190D01*
X125892859Y-138656190D01*
X125845240Y-138632381D01*
X125821430Y-138608571D01*
X125797621Y-138560952D01*
X125773811Y-138465714D01*
X125773811Y-138346667D01*
X125797621Y-138251429D01*
X125821430Y-138203810D01*
X125845240Y-138180000D01*
X125892859Y-138156190D01*
X126488096Y-138322857D02*
X126488096Y-138656190D01*
X126273811Y-138322857D02*
X126273811Y-138584762D01*
X126297620Y-138632381D01*
X126345239Y-138656190D01*
X126416668Y-138656190D01*
X126464287Y-138632381D01*
X126488096Y-138608571D01*
X126892858Y-138394286D02*
X126726192Y-138394286D01*
X126726192Y-138656190D02*
X126726192Y-138156190D01*
X126964287Y-138156190D01*
X127797619Y-138656190D02*
X127511905Y-138656190D01*
X127654762Y-138656190D02*
X127654762Y-138156190D01*
X127607143Y-138227619D01*
X127559524Y-138275238D01*
X127511905Y-138299048D01*
X128107143Y-138156190D02*
X128154762Y-138156190D01*
X128202381Y-138180000D01*
X128226190Y-138203810D01*
X128250000Y-138251429D01*
X128273809Y-138346667D01*
X128273809Y-138465714D01*
X128250000Y-138560952D01*
X128226190Y-138608571D01*
X128202381Y-138632381D01*
X128154762Y-138656190D01*
X128107143Y-138656190D01*
X128059524Y-138632381D01*
X128035714Y-138608571D01*
X128011905Y-138560952D01*
X127988095Y-138465714D01*
X127988095Y-138346667D01*
X128011905Y-138251429D01*
X128035714Y-138203810D01*
X128059524Y-138180000D01*
X128107143Y-138156190D01*
X128416666Y-138156190D02*
X128583333Y-138656190D01*
X128749999Y-138156190D01*
D12*
X145772143Y-120816666D02*
X145819762Y-120864285D01*
X145867381Y-121007142D01*
X145867381Y-121102380D01*
X145819762Y-121245238D01*
X145724524Y-121340476D01*
X145629286Y-121388095D01*
X145438810Y-121435714D01*
X145295952Y-121435714D01*
X145105476Y-121388095D01*
X145010238Y-121340476D01*
X144915000Y-121245238D01*
X144867381Y-121102380D01*
X144867381Y-121007142D01*
X144915000Y-120864285D01*
X144962619Y-120816666D01*
X144867381Y-120483333D02*
X144867381Y-119864285D01*
X145248333Y-120197619D01*
X145248333Y-120054761D01*
X145295952Y-119959523D01*
X145343571Y-119911904D01*
X145438810Y-119864285D01*
X145676905Y-119864285D01*
X145772143Y-119911904D01*
X145819762Y-119959523D01*
X145867381Y-120054761D01*
X145867381Y-120340476D01*
X145819762Y-120435714D01*
X145772143Y-120483333D01*
D10*
X144879286Y-124051190D02*
X144593572Y-124051190D01*
X144736429Y-124051190D02*
X144736429Y-123551190D01*
X144688810Y-123622619D01*
X144641191Y-123670238D01*
X144593572Y-123694048D01*
X145188810Y-123551190D02*
X145236429Y-123551190D01*
X145284048Y-123575000D01*
X145307857Y-123598810D01*
X145331667Y-123646429D01*
X145355476Y-123741667D01*
X145355476Y-123860714D01*
X145331667Y-123955952D01*
X145307857Y-124003571D01*
X145284048Y-124027381D01*
X145236429Y-124051190D01*
X145188810Y-124051190D01*
X145141191Y-124027381D01*
X145117381Y-124003571D01*
X145093572Y-123955952D01*
X145069762Y-123860714D01*
X145069762Y-123741667D01*
X145093572Y-123646429D01*
X145117381Y-123598810D01*
X145141191Y-123575000D01*
X145188810Y-123551190D01*
X145784047Y-123717857D02*
X145784047Y-124051190D01*
X145569762Y-123717857D02*
X145569762Y-123979762D01*
X145593571Y-124027381D01*
X145641190Y-124051190D01*
X145712619Y-124051190D01*
X145760238Y-124027381D01*
X145784047Y-124003571D01*
X146188809Y-123789286D02*
X146022143Y-123789286D01*
X146022143Y-124051190D02*
X146022143Y-123551190D01*
X146260238Y-123551190D01*
D12*
X145137143Y-115101666D02*
X145184762Y-115149285D01*
X145232381Y-115292142D01*
X145232381Y-115387380D01*
X145184762Y-115530238D01*
X145089524Y-115625476D01*
X144994286Y-115673095D01*
X144803810Y-115720714D01*
X144660952Y-115720714D01*
X144470476Y-115673095D01*
X144375238Y-115625476D01*
X144280000Y-115530238D01*
X144232381Y-115387380D01*
X144232381Y-115292142D01*
X144280000Y-115149285D01*
X144327619Y-115101666D01*
X144565714Y-114244523D02*
X145232381Y-114244523D01*
X144184762Y-114482619D02*
X144899048Y-114720714D01*
X144899048Y-114101666D01*
D10*
X143958573Y-111486190D02*
X144006192Y-111486190D01*
X144053811Y-111510000D01*
X144077620Y-111533810D01*
X144101430Y-111581429D01*
X144125239Y-111676667D01*
X144125239Y-111795714D01*
X144101430Y-111890952D01*
X144077620Y-111938571D01*
X144053811Y-111962381D01*
X144006192Y-111986190D01*
X143958573Y-111986190D01*
X143910954Y-111962381D01*
X143887144Y-111938571D01*
X143863335Y-111890952D01*
X143839525Y-111795714D01*
X143839525Y-111676667D01*
X143863335Y-111581429D01*
X143887144Y-111533810D01*
X143910954Y-111510000D01*
X143958573Y-111486190D01*
X144339525Y-111938571D02*
X144363334Y-111962381D01*
X144339525Y-111986190D01*
X144315715Y-111962381D01*
X144339525Y-111938571D01*
X144339525Y-111986190D01*
X144839524Y-111986190D02*
X144553810Y-111986190D01*
X144696667Y-111986190D02*
X144696667Y-111486190D01*
X144649048Y-111557619D01*
X144601429Y-111605238D01*
X144553810Y-111629048D01*
X145268095Y-111652857D02*
X145268095Y-111986190D01*
X145053810Y-111652857D02*
X145053810Y-111914762D01*
X145077619Y-111962381D01*
X145125238Y-111986190D01*
X145196667Y-111986190D01*
X145244286Y-111962381D01*
X145268095Y-111938571D01*
X145672857Y-111724286D02*
X145506191Y-111724286D01*
X145506191Y-111986190D02*
X145506191Y-111486190D01*
X145744286Y-111486190D01*
D12*
X128103334Y-109672381D02*
X127770000Y-109196190D01*
X127531905Y-109672381D02*
X127531905Y-108672381D01*
X127912858Y-108672381D01*
X128008096Y-108720000D01*
X128055715Y-108767619D01*
X128103334Y-108862857D01*
X128103334Y-109005714D01*
X128055715Y-109100952D01*
X128008096Y-109148571D01*
X127912858Y-109196190D01*
X127531905Y-109196190D01*
X129055715Y-109672381D02*
X128484286Y-109672381D01*
X128770000Y-109672381D02*
X128770000Y-108672381D01*
X128674762Y-108815238D01*
X128579524Y-108910476D01*
X128484286Y-108958095D01*
D10*
X127627144Y-110851190D02*
X127936667Y-110851190D01*
X127770001Y-111041667D01*
X127841429Y-111041667D01*
X127889048Y-111065476D01*
X127912858Y-111089286D01*
X127936667Y-111136905D01*
X127936667Y-111255952D01*
X127912858Y-111303571D01*
X127889048Y-111327381D01*
X127841429Y-111351190D01*
X127698572Y-111351190D01*
X127650953Y-111327381D01*
X127627144Y-111303571D01*
X128103334Y-110851190D02*
X128412857Y-110851190D01*
X128246191Y-111041667D01*
X128317619Y-111041667D01*
X128365238Y-111065476D01*
X128389048Y-111089286D01*
X128412857Y-111136905D01*
X128412857Y-111255952D01*
X128389048Y-111303571D01*
X128365238Y-111327381D01*
X128317619Y-111351190D01*
X128174762Y-111351190D01*
X128127143Y-111327381D01*
X128103334Y-111303571D01*
X128722381Y-110851190D02*
X128770000Y-110851190D01*
X128817619Y-110875000D01*
X128841428Y-110898810D01*
X128865238Y-110946429D01*
X128889047Y-111041667D01*
X128889047Y-111160714D01*
X128865238Y-111255952D01*
X128841428Y-111303571D01*
X128817619Y-111327381D01*
X128770000Y-111351190D01*
X128722381Y-111351190D01*
X128674762Y-111327381D01*
X128650952Y-111303571D01*
X128627143Y-111255952D01*
X128603333Y-111160714D01*
X128603333Y-111041667D01*
X128627143Y-110946429D01*
X128650952Y-110898810D01*
X128674762Y-110875000D01*
X128722381Y-110851190D01*
D12*
X132548334Y-109672381D02*
X132215000Y-109196190D01*
X131976905Y-109672381D02*
X131976905Y-108672381D01*
X132357858Y-108672381D01*
X132453096Y-108720000D01*
X132500715Y-108767619D01*
X132548334Y-108862857D01*
X132548334Y-109005714D01*
X132500715Y-109100952D01*
X132453096Y-109148571D01*
X132357858Y-109196190D01*
X131976905Y-109196190D01*
X132929286Y-108767619D02*
X132976905Y-108720000D01*
X133072143Y-108672381D01*
X133310239Y-108672381D01*
X133405477Y-108720000D01*
X133453096Y-108767619D01*
X133500715Y-108862857D01*
X133500715Y-108958095D01*
X133453096Y-109100952D01*
X132881667Y-109672381D01*
X133500715Y-109672381D01*
D10*
X132607857Y-111351190D02*
X132322143Y-111351190D01*
X132465000Y-111351190D02*
X132465000Y-110851190D01*
X132417381Y-110922619D01*
X132369762Y-110970238D01*
X132322143Y-110994048D01*
X132822143Y-111351190D02*
X132822143Y-110851190D01*
X133107857Y-111351190D02*
X132893571Y-111065476D01*
X133107857Y-110851190D02*
X132822143Y-111136905D01*
D12*
X126238095Y-117054381D02*
X126238095Y-117863905D01*
X126285714Y-117959143D01*
X126333333Y-118006762D01*
X126428571Y-118054381D01*
X126619048Y-118054381D01*
X126714286Y-118006762D01*
X126761905Y-117959143D01*
X126809524Y-117863905D01*
X126809524Y-117054381D01*
X127238095Y-117149619D02*
X127285714Y-117102000D01*
X127380952Y-117054381D01*
X127619048Y-117054381D01*
X127714286Y-117102000D01*
X127761905Y-117149619D01*
X127809524Y-117244857D01*
X127809524Y-117340095D01*
X127761905Y-117482952D01*
X127190476Y-118054381D01*
X127809524Y-118054381D01*
D13*
X123583333Y-116394667D02*
X123250000Y-116394667D01*
X123250000Y-115694667D01*
X123816667Y-116394667D02*
X123816667Y-115694667D01*
X124050000Y-116194667D01*
X124283333Y-115694667D01*
X124283333Y-116394667D01*
X124550000Y-115694667D02*
X124983333Y-115694667D01*
X124750000Y-115961333D01*
X124850000Y-115961333D01*
X124916667Y-115994667D01*
X124950000Y-116028000D01*
X124983333Y-116094667D01*
X124983333Y-116261333D01*
X124950000Y-116328000D01*
X124916667Y-116361333D01*
X124850000Y-116394667D01*
X124650000Y-116394667D01*
X124583333Y-116361333D01*
X124550000Y-116328000D01*
X125650000Y-116394667D02*
X125250000Y-116394667D01*
X125450000Y-116394667D02*
X125450000Y-115694667D01*
X125383334Y-115794667D01*
X125316667Y-115861333D01*
X125250000Y-115894667D01*
X125883334Y-115694667D02*
X126350001Y-115694667D01*
X126050001Y-116394667D01*
X126450001Y-116461333D02*
X126983334Y-116461333D01*
X127116667Y-116361333D02*
X127216667Y-116394667D01*
X127383334Y-116394667D01*
X127450001Y-116361333D01*
X127483334Y-116328000D01*
X127516667Y-116261333D01*
X127516667Y-116194667D01*
X127483334Y-116128000D01*
X127450001Y-116094667D01*
X127383334Y-116061333D01*
X127250001Y-116028000D01*
X127183334Y-115994667D01*
X127150001Y-115961333D01*
X127116667Y-115894667D01*
X127116667Y-115828000D01*
X127150001Y-115761333D01*
X127183334Y-115728000D01*
X127250001Y-115694667D01*
X127416667Y-115694667D01*
X127516667Y-115728000D01*
X127950001Y-115694667D02*
X128083334Y-115694667D01*
X128150001Y-115728000D01*
X128216668Y-115794667D01*
X128250001Y-115928000D01*
X128250001Y-116161333D01*
X128216668Y-116294667D01*
X128150001Y-116361333D01*
X128083334Y-116394667D01*
X127950001Y-116394667D01*
X127883334Y-116361333D01*
X127816668Y-116294667D01*
X127783334Y-116161333D01*
X127783334Y-115928000D01*
X127816668Y-115794667D01*
X127883334Y-115728000D01*
X127950001Y-115694667D01*
X128450001Y-115694667D02*
X128850001Y-115694667D01*
X128650001Y-116394667D02*
X128650001Y-115694667D01*
X129050000Y-115761333D02*
X129083334Y-115728000D01*
X129150000Y-115694667D01*
X129316667Y-115694667D01*
X129383334Y-115728000D01*
X129416667Y-115761333D01*
X129450000Y-115828000D01*
X129450000Y-115894667D01*
X129416667Y-115994667D01*
X129016667Y-116394667D01*
X129450000Y-116394667D01*
X129716667Y-115761333D02*
X129750001Y-115728000D01*
X129816667Y-115694667D01*
X129983334Y-115694667D01*
X130050001Y-115728000D01*
X130083334Y-115761333D01*
X130116667Y-115828000D01*
X130116667Y-115894667D01*
X130083334Y-115994667D01*
X129683334Y-116394667D01*
X130116667Y-116394667D01*
X130350001Y-115694667D02*
X130783334Y-115694667D01*
X130550001Y-115961333D01*
X130650001Y-115961333D01*
X130716668Y-115994667D01*
X130750001Y-116028000D01*
X130783334Y-116094667D01*
X130783334Y-116261333D01*
X130750001Y-116328000D01*
X130716668Y-116361333D01*
X130650001Y-116394667D01*
X130450001Y-116394667D01*
X130383334Y-116361333D01*
X130350001Y-116328000D01*
D12*
X139573095Y-108962381D02*
X139573095Y-109771905D01*
X139620714Y-109867143D01*
X139668333Y-109914762D01*
X139763571Y-109962381D01*
X139954048Y-109962381D01*
X140049286Y-109914762D01*
X140096905Y-109867143D01*
X140144524Y-109771905D01*
X140144524Y-108962381D01*
X141049286Y-109295714D02*
X141049286Y-109962381D01*
X140811190Y-108914762D02*
X140573095Y-109629048D01*
X141192143Y-109629048D01*
D10*
X138715954Y-114286190D02*
X138715954Y-113786190D01*
X138882620Y-114143333D01*
X139049287Y-113786190D01*
X139049287Y-114286190D01*
X139573097Y-114238571D02*
X139549287Y-114262381D01*
X139477859Y-114286190D01*
X139430240Y-114286190D01*
X139358811Y-114262381D01*
X139311192Y-114214762D01*
X139287383Y-114167143D01*
X139263573Y-114071905D01*
X139263573Y-114000476D01*
X139287383Y-113905238D01*
X139311192Y-113857619D01*
X139358811Y-113810000D01*
X139430240Y-113786190D01*
X139477859Y-113786190D01*
X139549287Y-113810000D01*
X139573097Y-113833810D01*
X139787383Y-114286190D02*
X139787383Y-113786190D01*
X139977859Y-113786190D01*
X140025478Y-113810000D01*
X140049287Y-113833810D01*
X140073097Y-113881429D01*
X140073097Y-113952857D01*
X140049287Y-114000476D01*
X140025478Y-114024286D01*
X139977859Y-114048095D01*
X139787383Y-114048095D01*
X140549287Y-114286190D02*
X140263573Y-114286190D01*
X140406430Y-114286190D02*
X140406430Y-113786190D01*
X140358811Y-113857619D01*
X140311192Y-113905238D01*
X140263573Y-113929048D01*
X140715954Y-113786190D02*
X141049287Y-113786190D01*
X140835001Y-114286190D01*
X141335001Y-113786190D02*
X141382620Y-113786190D01*
X141430239Y-113810000D01*
X141454048Y-113833810D01*
X141477858Y-113881429D01*
X141501667Y-113976667D01*
X141501667Y-114095714D01*
X141477858Y-114190952D01*
X141454048Y-114238571D01*
X141430239Y-114262381D01*
X141382620Y-114286190D01*
X141335001Y-114286190D01*
X141287382Y-114262381D01*
X141263572Y-114238571D01*
X141239763Y-114190952D01*
X141215953Y-114095714D01*
X141215953Y-113976667D01*
X141239763Y-113881429D01*
X141263572Y-113833810D01*
X141287382Y-113810000D01*
X141335001Y-113786190D01*
X141811191Y-113786190D02*
X141858810Y-113786190D01*
X141906429Y-113810000D01*
X141930238Y-113833810D01*
X141954048Y-113881429D01*
X141977857Y-113976667D01*
X141977857Y-114095714D01*
X141954048Y-114190952D01*
X141930238Y-114238571D01*
X141906429Y-114262381D01*
X141858810Y-114286190D01*
X141811191Y-114286190D01*
X141763572Y-114262381D01*
X141739762Y-114238571D01*
X141715953Y-114190952D01*
X141692143Y-114095714D01*
X141692143Y-113976667D01*
X141715953Y-113881429D01*
X141739762Y-113833810D01*
X141763572Y-113810000D01*
X141811191Y-113786190D01*
D12*
X106513334Y-134977143D02*
X106465715Y-135024762D01*
X106322858Y-135072381D01*
X106227620Y-135072381D01*
X106084762Y-135024762D01*
X105989524Y-134929524D01*
X105941905Y-134834286D01*
X105894286Y-134643810D01*
X105894286Y-134500952D01*
X105941905Y-134310476D01*
X105989524Y-134215238D01*
X106084762Y-134120000D01*
X106227620Y-134072381D01*
X106322858Y-134072381D01*
X106465715Y-134120000D01*
X106513334Y-134167619D01*
X107418096Y-134072381D02*
X106941905Y-134072381D01*
X106894286Y-134548571D01*
X106941905Y-134500952D01*
X107037143Y-134453333D01*
X107275239Y-134453333D01*
X107370477Y-134500952D01*
X107418096Y-134548571D01*
X107465715Y-134643810D01*
X107465715Y-134881905D01*
X107418096Y-134977143D01*
X107370477Y-135024762D01*
X107275239Y-135072381D01*
X107037143Y-135072381D01*
X106941905Y-135024762D01*
X106894286Y-134977143D01*
D10*
X107517621Y-135616190D02*
X107565240Y-135616190D01*
X107612859Y-135640000D01*
X107636668Y-135663810D01*
X107660478Y-135711429D01*
X107684287Y-135806667D01*
X107684287Y-135925714D01*
X107660478Y-136020952D01*
X107636668Y-136068571D01*
X107612859Y-136092381D01*
X107565240Y-136116190D01*
X107517621Y-136116190D01*
X107470002Y-136092381D01*
X107446192Y-136068571D01*
X107422383Y-136020952D01*
X107398573Y-135925714D01*
X107398573Y-135806667D01*
X107422383Y-135711429D01*
X107446192Y-135663810D01*
X107470002Y-135640000D01*
X107517621Y-135616190D01*
X107898573Y-136068571D02*
X107922382Y-136092381D01*
X107898573Y-136116190D01*
X107874763Y-136092381D01*
X107898573Y-136068571D01*
X107898573Y-136116190D01*
X108398572Y-136116190D02*
X108112858Y-136116190D01*
X108255715Y-136116190D02*
X108255715Y-135616190D01*
X108208096Y-135687619D01*
X108160477Y-135735238D01*
X108112858Y-135759048D01*
X108827143Y-135782857D02*
X108827143Y-136116190D01*
X108612858Y-135782857D02*
X108612858Y-136044762D01*
X108636667Y-136092381D01*
X108684286Y-136116190D01*
X108755715Y-136116190D01*
X108803334Y-136092381D01*
X108827143Y-136068571D01*
X109231905Y-135854286D02*
X109065239Y-135854286D01*
X109065239Y-136116190D02*
X109065239Y-135616190D01*
X109303334Y-135616190D01*
X110136666Y-136116190D02*
X109850952Y-136116190D01*
X109993809Y-136116190D02*
X109993809Y-135616190D01*
X109946190Y-135687619D01*
X109898571Y-135735238D01*
X109850952Y-135759048D01*
X110446190Y-135616190D02*
X110493809Y-135616190D01*
X110541428Y-135640000D01*
X110565237Y-135663810D01*
X110589047Y-135711429D01*
X110612856Y-135806667D01*
X110612856Y-135925714D01*
X110589047Y-136020952D01*
X110565237Y-136068571D01*
X110541428Y-136092381D01*
X110493809Y-136116190D01*
X110446190Y-136116190D01*
X110398571Y-136092381D01*
X110374761Y-136068571D01*
X110350952Y-136020952D01*
X110327142Y-135925714D01*
X110327142Y-135806667D01*
X110350952Y-135711429D01*
X110374761Y-135663810D01*
X110398571Y-135640000D01*
X110446190Y-135616190D01*
X110755713Y-135616190D02*
X110922380Y-136116190D01*
X111089046Y-135616190D01*
D12*
X106513334Y-119737143D02*
X106465715Y-119784762D01*
X106322858Y-119832381D01*
X106227620Y-119832381D01*
X106084762Y-119784762D01*
X105989524Y-119689524D01*
X105941905Y-119594286D01*
X105894286Y-119403810D01*
X105894286Y-119260952D01*
X105941905Y-119070476D01*
X105989524Y-118975238D01*
X106084762Y-118880000D01*
X106227620Y-118832381D01*
X106322858Y-118832381D01*
X106465715Y-118880000D01*
X106513334Y-118927619D01*
X107370477Y-118832381D02*
X107180000Y-118832381D01*
X107084762Y-118880000D01*
X107037143Y-118927619D01*
X106941905Y-119070476D01*
X106894286Y-119260952D01*
X106894286Y-119641905D01*
X106941905Y-119737143D01*
X106989524Y-119784762D01*
X107084762Y-119832381D01*
X107275239Y-119832381D01*
X107370477Y-119784762D01*
X107418096Y-119737143D01*
X107465715Y-119641905D01*
X107465715Y-119403810D01*
X107418096Y-119308571D01*
X107370477Y-119260952D01*
X107275239Y-119213333D01*
X107084762Y-119213333D01*
X106989524Y-119260952D01*
X106941905Y-119308571D01*
X106894286Y-119403810D01*
D10*
X107517621Y-120376190D02*
X107565240Y-120376190D01*
X107612859Y-120400000D01*
X107636668Y-120423810D01*
X107660478Y-120471429D01*
X107684287Y-120566667D01*
X107684287Y-120685714D01*
X107660478Y-120780952D01*
X107636668Y-120828571D01*
X107612859Y-120852381D01*
X107565240Y-120876190D01*
X107517621Y-120876190D01*
X107470002Y-120852381D01*
X107446192Y-120828571D01*
X107422383Y-120780952D01*
X107398573Y-120685714D01*
X107398573Y-120566667D01*
X107422383Y-120471429D01*
X107446192Y-120423810D01*
X107470002Y-120400000D01*
X107517621Y-120376190D01*
X107898573Y-120828571D02*
X107922382Y-120852381D01*
X107898573Y-120876190D01*
X107874763Y-120852381D01*
X107898573Y-120828571D01*
X107898573Y-120876190D01*
X108398572Y-120876190D02*
X108112858Y-120876190D01*
X108255715Y-120876190D02*
X108255715Y-120376190D01*
X108208096Y-120447619D01*
X108160477Y-120495238D01*
X108112858Y-120519048D01*
X108827143Y-120542857D02*
X108827143Y-120876190D01*
X108612858Y-120542857D02*
X108612858Y-120804762D01*
X108636667Y-120852381D01*
X108684286Y-120876190D01*
X108755715Y-120876190D01*
X108803334Y-120852381D01*
X108827143Y-120828571D01*
X109231905Y-120614286D02*
X109065239Y-120614286D01*
X109065239Y-120876190D02*
X109065239Y-120376190D01*
X109303334Y-120376190D01*
X110136666Y-120876190D02*
X109850952Y-120876190D01*
X109993809Y-120876190D02*
X109993809Y-120376190D01*
X109946190Y-120447619D01*
X109898571Y-120495238D01*
X109850952Y-120519048D01*
X110446190Y-120376190D02*
X110493809Y-120376190D01*
X110541428Y-120400000D01*
X110565237Y-120423810D01*
X110589047Y-120471429D01*
X110612856Y-120566667D01*
X110612856Y-120685714D01*
X110589047Y-120780952D01*
X110565237Y-120828571D01*
X110541428Y-120852381D01*
X110493809Y-120876190D01*
X110446190Y-120876190D01*
X110398571Y-120852381D01*
X110374761Y-120828571D01*
X110350952Y-120780952D01*
X110327142Y-120685714D01*
X110327142Y-120566667D01*
X110350952Y-120471429D01*
X110374761Y-120423810D01*
X110398571Y-120400000D01*
X110446190Y-120376190D01*
X110755713Y-120376190D02*
X110922380Y-120876190D01*
X111089046Y-120376190D01*
D12*
X106513334Y-104497143D02*
X106465715Y-104544762D01*
X106322858Y-104592381D01*
X106227620Y-104592381D01*
X106084762Y-104544762D01*
X105989524Y-104449524D01*
X105941905Y-104354286D01*
X105894286Y-104163810D01*
X105894286Y-104020952D01*
X105941905Y-103830476D01*
X105989524Y-103735238D01*
X106084762Y-103640000D01*
X106227620Y-103592381D01*
X106322858Y-103592381D01*
X106465715Y-103640000D01*
X106513334Y-103687619D01*
X106846667Y-103592381D02*
X107513334Y-103592381D01*
X107084762Y-104592381D01*
D10*
X107517621Y-105136190D02*
X107565240Y-105136190D01*
X107612859Y-105160000D01*
X107636668Y-105183810D01*
X107660478Y-105231429D01*
X107684287Y-105326667D01*
X107684287Y-105445714D01*
X107660478Y-105540952D01*
X107636668Y-105588571D01*
X107612859Y-105612381D01*
X107565240Y-105636190D01*
X107517621Y-105636190D01*
X107470002Y-105612381D01*
X107446192Y-105588571D01*
X107422383Y-105540952D01*
X107398573Y-105445714D01*
X107398573Y-105326667D01*
X107422383Y-105231429D01*
X107446192Y-105183810D01*
X107470002Y-105160000D01*
X107517621Y-105136190D01*
X107898573Y-105588571D02*
X107922382Y-105612381D01*
X107898573Y-105636190D01*
X107874763Y-105612381D01*
X107898573Y-105588571D01*
X107898573Y-105636190D01*
X108398572Y-105636190D02*
X108112858Y-105636190D01*
X108255715Y-105636190D02*
X108255715Y-105136190D01*
X108208096Y-105207619D01*
X108160477Y-105255238D01*
X108112858Y-105279048D01*
X108827143Y-105302857D02*
X108827143Y-105636190D01*
X108612858Y-105302857D02*
X108612858Y-105564762D01*
X108636667Y-105612381D01*
X108684286Y-105636190D01*
X108755715Y-105636190D01*
X108803334Y-105612381D01*
X108827143Y-105588571D01*
X109231905Y-105374286D02*
X109065239Y-105374286D01*
X109065239Y-105636190D02*
X109065239Y-105136190D01*
X109303334Y-105136190D01*
X110136666Y-105636190D02*
X109850952Y-105636190D01*
X109993809Y-105636190D02*
X109993809Y-105136190D01*
X109946190Y-105207619D01*
X109898571Y-105255238D01*
X109850952Y-105279048D01*
X110446190Y-105136190D02*
X110493809Y-105136190D01*
X110541428Y-105160000D01*
X110565237Y-105183810D01*
X110589047Y-105231429D01*
X110612856Y-105326667D01*
X110612856Y-105445714D01*
X110589047Y-105540952D01*
X110565237Y-105588571D01*
X110541428Y-105612381D01*
X110493809Y-105636190D01*
X110446190Y-105636190D01*
X110398571Y-105612381D01*
X110374761Y-105588571D01*
X110350952Y-105540952D01*
X110327142Y-105445714D01*
X110327142Y-105326667D01*
X110350952Y-105231429D01*
X110374761Y-105183810D01*
X110398571Y-105160000D01*
X110446190Y-105136190D01*
X110755713Y-105136190D02*
X110922380Y-105636190D01*
X111089046Y-105136190D01*
D12*
X107021334Y-138025143D02*
X106973715Y-138072762D01*
X106830858Y-138120381D01*
X106735620Y-138120381D01*
X106592762Y-138072762D01*
X106497524Y-137977524D01*
X106449905Y-137882286D01*
X106402286Y-137691810D01*
X106402286Y-137548952D01*
X106449905Y-137358476D01*
X106497524Y-137263238D01*
X106592762Y-137168000D01*
X106735620Y-137120381D01*
X106830858Y-137120381D01*
X106973715Y-137168000D01*
X107021334Y-137215619D01*
X107592762Y-137548952D02*
X107497524Y-137501333D01*
X107449905Y-137453714D01*
X107402286Y-137358476D01*
X107402286Y-137310857D01*
X107449905Y-137215619D01*
X107497524Y-137168000D01*
X107592762Y-137120381D01*
X107783239Y-137120381D01*
X107878477Y-137168000D01*
X107926096Y-137215619D01*
X107973715Y-137310857D01*
X107973715Y-137358476D01*
X107926096Y-137453714D01*
X107878477Y-137501333D01*
X107783239Y-137548952D01*
X107592762Y-137548952D01*
X107497524Y-137596571D01*
X107449905Y-137644190D01*
X107402286Y-137739429D01*
X107402286Y-137929905D01*
X107449905Y-138025143D01*
X107497524Y-138072762D01*
X107592762Y-138120381D01*
X107783239Y-138120381D01*
X107878477Y-138072762D01*
X107926096Y-138025143D01*
X107973715Y-137929905D01*
X107973715Y-137739429D01*
X107926096Y-137644190D01*
X107878477Y-137596571D01*
X107783239Y-137548952D01*
D10*
X103993431Y-138410190D02*
X104041050Y-138410190D01*
X104088669Y-138434000D01*
X104112478Y-138457810D01*
X104136288Y-138505429D01*
X104160097Y-138600667D01*
X104160097Y-138719714D01*
X104136288Y-138814952D01*
X104112478Y-138862571D01*
X104088669Y-138886381D01*
X104041050Y-138910190D01*
X103993431Y-138910190D01*
X103945812Y-138886381D01*
X103922002Y-138862571D01*
X103898193Y-138814952D01*
X103874383Y-138719714D01*
X103874383Y-138600667D01*
X103898193Y-138505429D01*
X103922002Y-138457810D01*
X103945812Y-138434000D01*
X103993431Y-138410190D01*
X104374383Y-138862571D02*
X104398192Y-138886381D01*
X104374383Y-138910190D01*
X104350573Y-138886381D01*
X104374383Y-138862571D01*
X104374383Y-138910190D01*
X104707716Y-138410190D02*
X104755335Y-138410190D01*
X104802954Y-138434000D01*
X104826763Y-138457810D01*
X104850573Y-138505429D01*
X104874382Y-138600667D01*
X104874382Y-138719714D01*
X104850573Y-138814952D01*
X104826763Y-138862571D01*
X104802954Y-138886381D01*
X104755335Y-138910190D01*
X104707716Y-138910190D01*
X104660097Y-138886381D01*
X104636287Y-138862571D01*
X104612478Y-138814952D01*
X104588668Y-138719714D01*
X104588668Y-138600667D01*
X104612478Y-138505429D01*
X104636287Y-138457810D01*
X104660097Y-138434000D01*
X104707716Y-138410190D01*
X105302953Y-138576857D02*
X105302953Y-138910190D01*
X105183906Y-138386381D02*
X105064858Y-138743524D01*
X105374382Y-138743524D01*
X105517239Y-138410190D02*
X105850572Y-138410190D01*
X105636286Y-138910190D01*
X106255333Y-138576857D02*
X106255333Y-138910190D01*
X106041048Y-138576857D02*
X106041048Y-138838762D01*
X106064857Y-138886381D01*
X106112476Y-138910190D01*
X106183905Y-138910190D01*
X106231524Y-138886381D01*
X106255333Y-138862571D01*
X106660095Y-138648286D02*
X106493429Y-138648286D01*
X106493429Y-138910190D02*
X106493429Y-138410190D01*
X106731524Y-138410190D01*
X107541047Y-138410190D02*
X107302952Y-138410190D01*
X107279142Y-138648286D01*
X107302952Y-138624476D01*
X107350571Y-138600667D01*
X107469618Y-138600667D01*
X107517237Y-138624476D01*
X107541047Y-138648286D01*
X107564856Y-138695905D01*
X107564856Y-138814952D01*
X107541047Y-138862571D01*
X107517237Y-138886381D01*
X107469618Y-138910190D01*
X107350571Y-138910190D01*
X107302952Y-138886381D01*
X107279142Y-138862571D01*
X107874380Y-138410190D02*
X107921999Y-138410190D01*
X107969618Y-138434000D01*
X107993427Y-138457810D01*
X108017237Y-138505429D01*
X108041046Y-138600667D01*
X108041046Y-138719714D01*
X108017237Y-138814952D01*
X107993427Y-138862571D01*
X107969618Y-138886381D01*
X107921999Y-138910190D01*
X107874380Y-138910190D01*
X107826761Y-138886381D01*
X107802951Y-138862571D01*
X107779142Y-138814952D01*
X107755332Y-138719714D01*
X107755332Y-138600667D01*
X107779142Y-138505429D01*
X107802951Y-138457810D01*
X107826761Y-138434000D01*
X107874380Y-138410190D01*
X108183903Y-138410190D02*
X108350570Y-138910190D01*
X108517236Y-138410190D01*
D12*
X107021334Y-122785143D02*
X106973715Y-122832762D01*
X106830858Y-122880381D01*
X106735620Y-122880381D01*
X106592762Y-122832762D01*
X106497524Y-122737524D01*
X106449905Y-122642286D01*
X106402286Y-122451810D01*
X106402286Y-122308952D01*
X106449905Y-122118476D01*
X106497524Y-122023238D01*
X106592762Y-121928000D01*
X106735620Y-121880381D01*
X106830858Y-121880381D01*
X106973715Y-121928000D01*
X107021334Y-121975619D01*
X107497524Y-122880381D02*
X107688000Y-122880381D01*
X107783239Y-122832762D01*
X107830858Y-122785143D01*
X107926096Y-122642286D01*
X107973715Y-122451810D01*
X107973715Y-122070857D01*
X107926096Y-121975619D01*
X107878477Y-121928000D01*
X107783239Y-121880381D01*
X107592762Y-121880381D01*
X107497524Y-121928000D01*
X107449905Y-121975619D01*
X107402286Y-122070857D01*
X107402286Y-122308952D01*
X107449905Y-122404190D01*
X107497524Y-122451810D01*
X107592762Y-122499429D01*
X107783239Y-122499429D01*
X107878477Y-122451810D01*
X107926096Y-122404190D01*
X107973715Y-122308952D01*
D10*
X103993431Y-123170190D02*
X104041050Y-123170190D01*
X104088669Y-123194000D01*
X104112478Y-123217810D01*
X104136288Y-123265429D01*
X104160097Y-123360667D01*
X104160097Y-123479714D01*
X104136288Y-123574952D01*
X104112478Y-123622571D01*
X104088669Y-123646381D01*
X104041050Y-123670190D01*
X103993431Y-123670190D01*
X103945812Y-123646381D01*
X103922002Y-123622571D01*
X103898193Y-123574952D01*
X103874383Y-123479714D01*
X103874383Y-123360667D01*
X103898193Y-123265429D01*
X103922002Y-123217810D01*
X103945812Y-123194000D01*
X103993431Y-123170190D01*
X104374383Y-123622571D02*
X104398192Y-123646381D01*
X104374383Y-123670190D01*
X104350573Y-123646381D01*
X104374383Y-123622571D01*
X104374383Y-123670190D01*
X104707716Y-123170190D02*
X104755335Y-123170190D01*
X104802954Y-123194000D01*
X104826763Y-123217810D01*
X104850573Y-123265429D01*
X104874382Y-123360667D01*
X104874382Y-123479714D01*
X104850573Y-123574952D01*
X104826763Y-123622571D01*
X104802954Y-123646381D01*
X104755335Y-123670190D01*
X104707716Y-123670190D01*
X104660097Y-123646381D01*
X104636287Y-123622571D01*
X104612478Y-123574952D01*
X104588668Y-123479714D01*
X104588668Y-123360667D01*
X104612478Y-123265429D01*
X104636287Y-123217810D01*
X104660097Y-123194000D01*
X104707716Y-123170190D01*
X105302953Y-123336857D02*
X105302953Y-123670190D01*
X105183906Y-123146381D02*
X105064858Y-123503524D01*
X105374382Y-123503524D01*
X105517239Y-123170190D02*
X105850572Y-123170190D01*
X105636286Y-123670190D01*
X106255333Y-123336857D02*
X106255333Y-123670190D01*
X106041048Y-123336857D02*
X106041048Y-123598762D01*
X106064857Y-123646381D01*
X106112476Y-123670190D01*
X106183905Y-123670190D01*
X106231524Y-123646381D01*
X106255333Y-123622571D01*
X106660095Y-123408286D02*
X106493429Y-123408286D01*
X106493429Y-123670190D02*
X106493429Y-123170190D01*
X106731524Y-123170190D01*
X107541047Y-123170190D02*
X107302952Y-123170190D01*
X107279142Y-123408286D01*
X107302952Y-123384476D01*
X107350571Y-123360667D01*
X107469618Y-123360667D01*
X107517237Y-123384476D01*
X107541047Y-123408286D01*
X107564856Y-123455905D01*
X107564856Y-123574952D01*
X107541047Y-123622571D01*
X107517237Y-123646381D01*
X107469618Y-123670190D01*
X107350571Y-123670190D01*
X107302952Y-123646381D01*
X107279142Y-123622571D01*
X107874380Y-123170190D02*
X107921999Y-123170190D01*
X107969618Y-123194000D01*
X107993427Y-123217810D01*
X108017237Y-123265429D01*
X108041046Y-123360667D01*
X108041046Y-123479714D01*
X108017237Y-123574952D01*
X107993427Y-123622571D01*
X107969618Y-123646381D01*
X107921999Y-123670190D01*
X107874380Y-123670190D01*
X107826761Y-123646381D01*
X107802951Y-123622571D01*
X107779142Y-123574952D01*
X107755332Y-123479714D01*
X107755332Y-123360667D01*
X107779142Y-123265429D01*
X107802951Y-123217810D01*
X107826761Y-123194000D01*
X107874380Y-123170190D01*
X108183903Y-123170190D02*
X108350570Y-123670190D01*
X108517236Y-123170190D01*
D12*
X106545143Y-107545143D02*
X106497524Y-107592762D01*
X106354667Y-107640381D01*
X106259429Y-107640381D01*
X106116571Y-107592762D01*
X106021333Y-107497524D01*
X105973714Y-107402286D01*
X105926095Y-107211810D01*
X105926095Y-107068952D01*
X105973714Y-106878476D01*
X106021333Y-106783238D01*
X106116571Y-106688000D01*
X106259429Y-106640381D01*
X106354667Y-106640381D01*
X106497524Y-106688000D01*
X106545143Y-106735619D01*
X107497524Y-107640381D02*
X106926095Y-107640381D01*
X107211809Y-107640381D02*
X107211809Y-106640381D01*
X107116571Y-106783238D01*
X107021333Y-106878476D01*
X106926095Y-106926095D01*
X108116571Y-106640381D02*
X108211810Y-106640381D01*
X108307048Y-106688000D01*
X108354667Y-106735619D01*
X108402286Y-106830857D01*
X108449905Y-107021333D01*
X108449905Y-107259429D01*
X108402286Y-107449905D01*
X108354667Y-107545143D01*
X108307048Y-107592762D01*
X108211810Y-107640381D01*
X108116571Y-107640381D01*
X108021333Y-107592762D01*
X107973714Y-107545143D01*
X107926095Y-107449905D01*
X107878476Y-107259429D01*
X107878476Y-107021333D01*
X107926095Y-106830857D01*
X107973714Y-106735619D01*
X108021333Y-106688000D01*
X108116571Y-106640381D01*
D10*
X103993431Y-107930190D02*
X104041050Y-107930190D01*
X104088669Y-107954000D01*
X104112478Y-107977810D01*
X104136288Y-108025429D01*
X104160097Y-108120667D01*
X104160097Y-108239714D01*
X104136288Y-108334952D01*
X104112478Y-108382571D01*
X104088669Y-108406381D01*
X104041050Y-108430190D01*
X103993431Y-108430190D01*
X103945812Y-108406381D01*
X103922002Y-108382571D01*
X103898193Y-108334952D01*
X103874383Y-108239714D01*
X103874383Y-108120667D01*
X103898193Y-108025429D01*
X103922002Y-107977810D01*
X103945812Y-107954000D01*
X103993431Y-107930190D01*
X104374383Y-108382571D02*
X104398192Y-108406381D01*
X104374383Y-108430190D01*
X104350573Y-108406381D01*
X104374383Y-108382571D01*
X104374383Y-108430190D01*
X104707716Y-107930190D02*
X104755335Y-107930190D01*
X104802954Y-107954000D01*
X104826763Y-107977810D01*
X104850573Y-108025429D01*
X104874382Y-108120667D01*
X104874382Y-108239714D01*
X104850573Y-108334952D01*
X104826763Y-108382571D01*
X104802954Y-108406381D01*
X104755335Y-108430190D01*
X104707716Y-108430190D01*
X104660097Y-108406381D01*
X104636287Y-108382571D01*
X104612478Y-108334952D01*
X104588668Y-108239714D01*
X104588668Y-108120667D01*
X104612478Y-108025429D01*
X104636287Y-107977810D01*
X104660097Y-107954000D01*
X104707716Y-107930190D01*
X105302953Y-108096857D02*
X105302953Y-108430190D01*
X105183906Y-107906381D02*
X105064858Y-108263524D01*
X105374382Y-108263524D01*
X105517239Y-107930190D02*
X105850572Y-107930190D01*
X105636286Y-108430190D01*
X106255333Y-108096857D02*
X106255333Y-108430190D01*
X106041048Y-108096857D02*
X106041048Y-108358762D01*
X106064857Y-108406381D01*
X106112476Y-108430190D01*
X106183905Y-108430190D01*
X106231524Y-108406381D01*
X106255333Y-108382571D01*
X106660095Y-108168286D02*
X106493429Y-108168286D01*
X106493429Y-108430190D02*
X106493429Y-107930190D01*
X106731524Y-107930190D01*
X107541047Y-107930190D02*
X107302952Y-107930190D01*
X107279142Y-108168286D01*
X107302952Y-108144476D01*
X107350571Y-108120667D01*
X107469618Y-108120667D01*
X107517237Y-108144476D01*
X107541047Y-108168286D01*
X107564856Y-108215905D01*
X107564856Y-108334952D01*
X107541047Y-108382571D01*
X107517237Y-108406381D01*
X107469618Y-108430190D01*
X107350571Y-108430190D01*
X107302952Y-108406381D01*
X107279142Y-108382571D01*
X107874380Y-107930190D02*
X107921999Y-107930190D01*
X107969618Y-107954000D01*
X107993427Y-107977810D01*
X108017237Y-108025429D01*
X108041046Y-108120667D01*
X108041046Y-108239714D01*
X108017237Y-108334952D01*
X107993427Y-108382571D01*
X107969618Y-108406381D01*
X107921999Y-108430190D01*
X107874380Y-108430190D01*
X107826761Y-108406381D01*
X107802951Y-108382571D01*
X107779142Y-108334952D01*
X107755332Y-108239714D01*
X107755332Y-108120667D01*
X107779142Y-108025429D01*
X107802951Y-107977810D01*
X107826761Y-107954000D01*
X107874380Y-107930190D01*
X108183903Y-107930190D02*
X108350570Y-108430190D01*
X108517236Y-107930190D01*
D12*
X103909905Y-146756381D02*
X103909905Y-145756381D01*
X104148000Y-145756381D01*
X104290858Y-145804000D01*
X104386096Y-145899238D01*
X104433715Y-145994476D01*
X104481334Y-146184952D01*
X104481334Y-146327810D01*
X104433715Y-146518286D01*
X104386096Y-146613524D01*
X104290858Y-146708762D01*
X104148000Y-146756381D01*
X103909905Y-146756381D01*
X105338477Y-146089714D02*
X105338477Y-146756381D01*
X105100381Y-145708762D02*
X104862286Y-146423048D01*
X105481334Y-146423048D01*
D10*
X106097050Y-145522190D02*
X106001812Y-145522190D01*
X105954193Y-145546000D01*
X105930384Y-145569810D01*
X105882765Y-145641238D01*
X105858955Y-145736476D01*
X105858955Y-145926952D01*
X105882765Y-145974571D01*
X105906574Y-145998381D01*
X105954193Y-146022190D01*
X106049431Y-146022190D01*
X106097050Y-145998381D01*
X106120860Y-145974571D01*
X106144669Y-145926952D01*
X106144669Y-145807905D01*
X106120860Y-145760286D01*
X106097050Y-145736476D01*
X106049431Y-145712667D01*
X105954193Y-145712667D01*
X105906574Y-145736476D01*
X105882765Y-145760286D01*
X105858955Y-145807905D01*
X106454193Y-145522190D02*
X106501812Y-145522190D01*
X106549431Y-145546000D01*
X106573240Y-145569810D01*
X106597050Y-145617429D01*
X106620859Y-145712667D01*
X106620859Y-145831714D01*
X106597050Y-145926952D01*
X106573240Y-145974571D01*
X106549431Y-145998381D01*
X106501812Y-146022190D01*
X106454193Y-146022190D01*
X106406574Y-145998381D01*
X106382764Y-145974571D01*
X106358955Y-145926952D01*
X106335145Y-145831714D01*
X106335145Y-145712667D01*
X106358955Y-145617429D01*
X106382764Y-145569810D01*
X106406574Y-145546000D01*
X106454193Y-145522190D01*
X106763716Y-145522190D02*
X106930383Y-146022190D01*
X107097049Y-145522190D01*
X107597049Y-145522190D02*
X107906572Y-145522190D01*
X107739906Y-145712667D01*
X107811334Y-145712667D01*
X107858953Y-145736476D01*
X107882763Y-145760286D01*
X107906572Y-145807905D01*
X107906572Y-145926952D01*
X107882763Y-145974571D01*
X107858953Y-145998381D01*
X107811334Y-146022190D01*
X107668477Y-146022190D01*
X107620858Y-145998381D01*
X107597049Y-145974571D01*
X108097048Y-145879333D02*
X108335143Y-145879333D01*
X108049429Y-146022190D02*
X108216096Y-145522190D01*
X108382762Y-146022190D01*
X108930381Y-146022190D02*
X108930381Y-145522190D01*
X109120857Y-145522190D01*
X109168476Y-145546000D01*
X109192285Y-145569810D01*
X109216095Y-145617429D01*
X109216095Y-145688857D01*
X109192285Y-145736476D01*
X109168476Y-145760286D01*
X109120857Y-145784095D01*
X108930381Y-145784095D01*
X109430381Y-146022190D02*
X109430381Y-145522190D01*
X109597047Y-145879333D01*
X109763714Y-145522190D01*
X109763714Y-146022190D01*
X110001810Y-145760286D02*
X110168476Y-145760286D01*
X110239905Y-146022190D02*
X110001810Y-146022190D01*
X110001810Y-145522190D01*
X110239905Y-145522190D01*
X110716095Y-145546000D02*
X110668476Y-145522190D01*
X110597048Y-145522190D01*
X110525619Y-145546000D01*
X110478000Y-145593619D01*
X110454191Y-145641238D01*
X110430381Y-145736476D01*
X110430381Y-145807905D01*
X110454191Y-145903143D01*
X110478000Y-145950762D01*
X110525619Y-145998381D01*
X110597048Y-146022190D01*
X110644667Y-146022190D01*
X110716095Y-145998381D01*
X110739905Y-145974571D01*
X110739905Y-145807905D01*
X110644667Y-145807905D01*
X111168476Y-145522190D02*
X111073238Y-145522190D01*
X111025619Y-145546000D01*
X111001810Y-145569810D01*
X110954191Y-145641238D01*
X110930381Y-145736476D01*
X110930381Y-145926952D01*
X110954191Y-145974571D01*
X110978000Y-145998381D01*
X111025619Y-146022190D01*
X111120857Y-146022190D01*
X111168476Y-145998381D01*
X111192286Y-145974571D01*
X111216095Y-145926952D01*
X111216095Y-145807905D01*
X111192286Y-145760286D01*
X111168476Y-145736476D01*
X111120857Y-145712667D01*
X111025619Y-145712667D01*
X110978000Y-145736476D01*
X110954191Y-145760286D01*
X110930381Y-145807905D01*
X111525619Y-145522190D02*
X111573238Y-145522190D01*
X111620857Y-145546000D01*
X111644666Y-145569810D01*
X111668476Y-145617429D01*
X111692285Y-145712667D01*
X111692285Y-145831714D01*
X111668476Y-145926952D01*
X111644666Y-145974571D01*
X111620857Y-145998381D01*
X111573238Y-146022190D01*
X111525619Y-146022190D01*
X111478000Y-145998381D01*
X111454190Y-145974571D01*
X111430381Y-145926952D01*
X111406571Y-145831714D01*
X111406571Y-145712667D01*
X111430381Y-145617429D01*
X111454190Y-145569810D01*
X111478000Y-145546000D01*
X111525619Y-145522190D01*
X111858952Y-145522190D02*
X112168475Y-145522190D01*
X112001809Y-145712667D01*
X112073237Y-145712667D01*
X112120856Y-145736476D01*
X112144666Y-145760286D01*
X112168475Y-145807905D01*
X112168475Y-145926952D01*
X112144666Y-145974571D01*
X112120856Y-145998381D01*
X112073237Y-146022190D01*
X111930380Y-146022190D01*
X111882761Y-145998381D01*
X111858952Y-145974571D01*
X112477999Y-145522190D02*
X112525618Y-145522190D01*
X112573237Y-145546000D01*
X112597046Y-145569810D01*
X112620856Y-145617429D01*
X112644665Y-145712667D01*
X112644665Y-145831714D01*
X112620856Y-145926952D01*
X112597046Y-145974571D01*
X112573237Y-145998381D01*
X112525618Y-146022190D01*
X112477999Y-146022190D01*
X112430380Y-145998381D01*
X112406570Y-145974571D01*
X112382761Y-145926952D01*
X112358951Y-145831714D01*
X112358951Y-145712667D01*
X112382761Y-145617429D01*
X112406570Y-145569810D01*
X112430380Y-145546000D01*
X112477999Y-145522190D01*
X112858951Y-145760286D02*
X113025617Y-145760286D01*
X113097046Y-146022190D02*
X112858951Y-146022190D01*
X112858951Y-145522190D01*
X113097046Y-145522190D01*
X113311332Y-146022190D02*
X113311332Y-145522190D01*
X113501808Y-145522190D01*
X113549427Y-145546000D01*
X113573236Y-145569810D01*
X113597046Y-145617429D01*
X113597046Y-145688857D01*
X113573236Y-145736476D01*
X113549427Y-145760286D01*
X113501808Y-145784095D01*
X113311332Y-145784095D01*
D12*
X111021905Y-132024381D02*
X111021905Y-131024381D01*
X111260000Y-131024381D01*
X111402858Y-131072000D01*
X111498096Y-131167238D01*
X111545715Y-131262476D01*
X111593334Y-131452952D01*
X111593334Y-131595810D01*
X111545715Y-131786286D01*
X111498096Y-131881524D01*
X111402858Y-131976762D01*
X111260000Y-132024381D01*
X111021905Y-132024381D01*
X112498096Y-131024381D02*
X112021905Y-131024381D01*
X111974286Y-131500571D01*
X112021905Y-131452952D01*
X112117143Y-131405333D01*
X112355239Y-131405333D01*
X112450477Y-131452952D01*
X112498096Y-131500571D01*
X112545715Y-131595810D01*
X112545715Y-131833905D01*
X112498096Y-131929143D01*
X112450477Y-131976762D01*
X112355239Y-132024381D01*
X112117143Y-132024381D01*
X112021905Y-131976762D01*
X111974286Y-131929143D01*
D10*
X105589050Y-130282190D02*
X105493812Y-130282190D01*
X105446193Y-130306000D01*
X105422384Y-130329810D01*
X105374765Y-130401238D01*
X105350955Y-130496476D01*
X105350955Y-130686952D01*
X105374765Y-130734571D01*
X105398574Y-130758381D01*
X105446193Y-130782190D01*
X105541431Y-130782190D01*
X105589050Y-130758381D01*
X105612860Y-130734571D01*
X105636669Y-130686952D01*
X105636669Y-130567905D01*
X105612860Y-130520286D01*
X105589050Y-130496476D01*
X105541431Y-130472667D01*
X105446193Y-130472667D01*
X105398574Y-130496476D01*
X105374765Y-130520286D01*
X105350955Y-130567905D01*
X105946193Y-130282190D02*
X105993812Y-130282190D01*
X106041431Y-130306000D01*
X106065240Y-130329810D01*
X106089050Y-130377429D01*
X106112859Y-130472667D01*
X106112859Y-130591714D01*
X106089050Y-130686952D01*
X106065240Y-130734571D01*
X106041431Y-130758381D01*
X105993812Y-130782190D01*
X105946193Y-130782190D01*
X105898574Y-130758381D01*
X105874764Y-130734571D01*
X105850955Y-130686952D01*
X105827145Y-130591714D01*
X105827145Y-130472667D01*
X105850955Y-130377429D01*
X105874764Y-130329810D01*
X105898574Y-130306000D01*
X105946193Y-130282190D01*
X106255716Y-130282190D02*
X106422383Y-130782190D01*
X106589049Y-130282190D01*
X107089049Y-130282190D02*
X107398572Y-130282190D01*
X107231906Y-130472667D01*
X107303334Y-130472667D01*
X107350953Y-130496476D01*
X107374763Y-130520286D01*
X107398572Y-130567905D01*
X107398572Y-130686952D01*
X107374763Y-130734571D01*
X107350953Y-130758381D01*
X107303334Y-130782190D01*
X107160477Y-130782190D01*
X107112858Y-130758381D01*
X107089049Y-130734571D01*
X107589048Y-130639333D02*
X107827143Y-130639333D01*
X107541429Y-130782190D02*
X107708096Y-130282190D01*
X107874762Y-130782190D01*
X108422381Y-130782190D02*
X108422381Y-130282190D01*
X108612857Y-130282190D01*
X108660476Y-130306000D01*
X108684285Y-130329810D01*
X108708095Y-130377429D01*
X108708095Y-130448857D01*
X108684285Y-130496476D01*
X108660476Y-130520286D01*
X108612857Y-130544095D01*
X108422381Y-130544095D01*
X108922381Y-130782190D02*
X108922381Y-130282190D01*
X109089047Y-130639333D01*
X109255714Y-130282190D01*
X109255714Y-130782190D01*
X109493810Y-130520286D02*
X109660476Y-130520286D01*
X109731905Y-130782190D02*
X109493810Y-130782190D01*
X109493810Y-130282190D01*
X109731905Y-130282190D01*
X110208095Y-130306000D02*
X110160476Y-130282190D01*
X110089048Y-130282190D01*
X110017619Y-130306000D01*
X109970000Y-130353619D01*
X109946191Y-130401238D01*
X109922381Y-130496476D01*
X109922381Y-130567905D01*
X109946191Y-130663143D01*
X109970000Y-130710762D01*
X110017619Y-130758381D01*
X110089048Y-130782190D01*
X110136667Y-130782190D01*
X110208095Y-130758381D01*
X110231905Y-130734571D01*
X110231905Y-130567905D01*
X110136667Y-130567905D01*
X110660476Y-130282190D02*
X110565238Y-130282190D01*
X110517619Y-130306000D01*
X110493810Y-130329810D01*
X110446191Y-130401238D01*
X110422381Y-130496476D01*
X110422381Y-130686952D01*
X110446191Y-130734571D01*
X110470000Y-130758381D01*
X110517619Y-130782190D01*
X110612857Y-130782190D01*
X110660476Y-130758381D01*
X110684286Y-130734571D01*
X110708095Y-130686952D01*
X110708095Y-130567905D01*
X110684286Y-130520286D01*
X110660476Y-130496476D01*
X110612857Y-130472667D01*
X110517619Y-130472667D01*
X110470000Y-130496476D01*
X110446191Y-130520286D01*
X110422381Y-130567905D01*
X111017619Y-130282190D02*
X111065238Y-130282190D01*
X111112857Y-130306000D01*
X111136666Y-130329810D01*
X111160476Y-130377429D01*
X111184285Y-130472667D01*
X111184285Y-130591714D01*
X111160476Y-130686952D01*
X111136666Y-130734571D01*
X111112857Y-130758381D01*
X111065238Y-130782190D01*
X111017619Y-130782190D01*
X110970000Y-130758381D01*
X110946190Y-130734571D01*
X110922381Y-130686952D01*
X110898571Y-130591714D01*
X110898571Y-130472667D01*
X110922381Y-130377429D01*
X110946190Y-130329810D01*
X110970000Y-130306000D01*
X111017619Y-130282190D01*
X111350952Y-130282190D02*
X111660475Y-130282190D01*
X111493809Y-130472667D01*
X111565237Y-130472667D01*
X111612856Y-130496476D01*
X111636666Y-130520286D01*
X111660475Y-130567905D01*
X111660475Y-130686952D01*
X111636666Y-130734571D01*
X111612856Y-130758381D01*
X111565237Y-130782190D01*
X111422380Y-130782190D01*
X111374761Y-130758381D01*
X111350952Y-130734571D01*
X111969999Y-130282190D02*
X112017618Y-130282190D01*
X112065237Y-130306000D01*
X112089046Y-130329810D01*
X112112856Y-130377429D01*
X112136665Y-130472667D01*
X112136665Y-130591714D01*
X112112856Y-130686952D01*
X112089046Y-130734571D01*
X112065237Y-130758381D01*
X112017618Y-130782190D01*
X111969999Y-130782190D01*
X111922380Y-130758381D01*
X111898570Y-130734571D01*
X111874761Y-130686952D01*
X111850951Y-130591714D01*
X111850951Y-130472667D01*
X111874761Y-130377429D01*
X111898570Y-130329810D01*
X111922380Y-130306000D01*
X111969999Y-130282190D01*
X112350951Y-130520286D02*
X112517617Y-130520286D01*
X112589046Y-130782190D02*
X112350951Y-130782190D01*
X112350951Y-130282190D01*
X112589046Y-130282190D01*
X112803332Y-130782190D02*
X112803332Y-130282190D01*
X112993808Y-130282190D01*
X113041427Y-130306000D01*
X113065236Y-130329810D01*
X113089046Y-130377429D01*
X113089046Y-130448857D01*
X113065236Y-130496476D01*
X113041427Y-130520286D01*
X112993808Y-130544095D01*
X112803332Y-130544095D01*
D12*
X111021905Y-116784381D02*
X111021905Y-115784381D01*
X111260000Y-115784381D01*
X111402858Y-115832000D01*
X111498096Y-115927238D01*
X111545715Y-116022476D01*
X111593334Y-116212952D01*
X111593334Y-116355810D01*
X111545715Y-116546286D01*
X111498096Y-116641524D01*
X111402858Y-116736762D01*
X111260000Y-116784381D01*
X111021905Y-116784381D01*
X112450477Y-115784381D02*
X112260000Y-115784381D01*
X112164762Y-115832000D01*
X112117143Y-115879619D01*
X112021905Y-116022476D01*
X111974286Y-116212952D01*
X111974286Y-116593905D01*
X112021905Y-116689143D01*
X112069524Y-116736762D01*
X112164762Y-116784381D01*
X112355239Y-116784381D01*
X112450477Y-116736762D01*
X112498096Y-116689143D01*
X112545715Y-116593905D01*
X112545715Y-116355810D01*
X112498096Y-116260571D01*
X112450477Y-116212952D01*
X112355239Y-116165333D01*
X112164762Y-116165333D01*
X112069524Y-116212952D01*
X112021905Y-116260571D01*
X111974286Y-116355810D01*
D10*
X105589050Y-115042190D02*
X105493812Y-115042190D01*
X105446193Y-115066000D01*
X105422384Y-115089810D01*
X105374765Y-115161238D01*
X105350955Y-115256476D01*
X105350955Y-115446952D01*
X105374765Y-115494571D01*
X105398574Y-115518381D01*
X105446193Y-115542190D01*
X105541431Y-115542190D01*
X105589050Y-115518381D01*
X105612860Y-115494571D01*
X105636669Y-115446952D01*
X105636669Y-115327905D01*
X105612860Y-115280286D01*
X105589050Y-115256476D01*
X105541431Y-115232667D01*
X105446193Y-115232667D01*
X105398574Y-115256476D01*
X105374765Y-115280286D01*
X105350955Y-115327905D01*
X105946193Y-115042190D02*
X105993812Y-115042190D01*
X106041431Y-115066000D01*
X106065240Y-115089810D01*
X106089050Y-115137429D01*
X106112859Y-115232667D01*
X106112859Y-115351714D01*
X106089050Y-115446952D01*
X106065240Y-115494571D01*
X106041431Y-115518381D01*
X105993812Y-115542190D01*
X105946193Y-115542190D01*
X105898574Y-115518381D01*
X105874764Y-115494571D01*
X105850955Y-115446952D01*
X105827145Y-115351714D01*
X105827145Y-115232667D01*
X105850955Y-115137429D01*
X105874764Y-115089810D01*
X105898574Y-115066000D01*
X105946193Y-115042190D01*
X106255716Y-115042190D02*
X106422383Y-115542190D01*
X106589049Y-115042190D01*
X107089049Y-115042190D02*
X107398572Y-115042190D01*
X107231906Y-115232667D01*
X107303334Y-115232667D01*
X107350953Y-115256476D01*
X107374763Y-115280286D01*
X107398572Y-115327905D01*
X107398572Y-115446952D01*
X107374763Y-115494571D01*
X107350953Y-115518381D01*
X107303334Y-115542190D01*
X107160477Y-115542190D01*
X107112858Y-115518381D01*
X107089049Y-115494571D01*
X107589048Y-115399333D02*
X107827143Y-115399333D01*
X107541429Y-115542190D02*
X107708096Y-115042190D01*
X107874762Y-115542190D01*
X108422381Y-115542190D02*
X108422381Y-115042190D01*
X108612857Y-115042190D01*
X108660476Y-115066000D01*
X108684285Y-115089810D01*
X108708095Y-115137429D01*
X108708095Y-115208857D01*
X108684285Y-115256476D01*
X108660476Y-115280286D01*
X108612857Y-115304095D01*
X108422381Y-115304095D01*
X108922381Y-115542190D02*
X108922381Y-115042190D01*
X109089047Y-115399333D01*
X109255714Y-115042190D01*
X109255714Y-115542190D01*
X109493810Y-115280286D02*
X109660476Y-115280286D01*
X109731905Y-115542190D02*
X109493810Y-115542190D01*
X109493810Y-115042190D01*
X109731905Y-115042190D01*
X110208095Y-115066000D02*
X110160476Y-115042190D01*
X110089048Y-115042190D01*
X110017619Y-115066000D01*
X109970000Y-115113619D01*
X109946191Y-115161238D01*
X109922381Y-115256476D01*
X109922381Y-115327905D01*
X109946191Y-115423143D01*
X109970000Y-115470762D01*
X110017619Y-115518381D01*
X110089048Y-115542190D01*
X110136667Y-115542190D01*
X110208095Y-115518381D01*
X110231905Y-115494571D01*
X110231905Y-115327905D01*
X110136667Y-115327905D01*
X110660476Y-115042190D02*
X110565238Y-115042190D01*
X110517619Y-115066000D01*
X110493810Y-115089810D01*
X110446191Y-115161238D01*
X110422381Y-115256476D01*
X110422381Y-115446952D01*
X110446191Y-115494571D01*
X110470000Y-115518381D01*
X110517619Y-115542190D01*
X110612857Y-115542190D01*
X110660476Y-115518381D01*
X110684286Y-115494571D01*
X110708095Y-115446952D01*
X110708095Y-115327905D01*
X110684286Y-115280286D01*
X110660476Y-115256476D01*
X110612857Y-115232667D01*
X110517619Y-115232667D01*
X110470000Y-115256476D01*
X110446191Y-115280286D01*
X110422381Y-115327905D01*
X111017619Y-115042190D02*
X111065238Y-115042190D01*
X111112857Y-115066000D01*
X111136666Y-115089810D01*
X111160476Y-115137429D01*
X111184285Y-115232667D01*
X111184285Y-115351714D01*
X111160476Y-115446952D01*
X111136666Y-115494571D01*
X111112857Y-115518381D01*
X111065238Y-115542190D01*
X111017619Y-115542190D01*
X110970000Y-115518381D01*
X110946190Y-115494571D01*
X110922381Y-115446952D01*
X110898571Y-115351714D01*
X110898571Y-115232667D01*
X110922381Y-115137429D01*
X110946190Y-115089810D01*
X110970000Y-115066000D01*
X111017619Y-115042190D01*
X111350952Y-115042190D02*
X111660475Y-115042190D01*
X111493809Y-115232667D01*
X111565237Y-115232667D01*
X111612856Y-115256476D01*
X111636666Y-115280286D01*
X111660475Y-115327905D01*
X111660475Y-115446952D01*
X111636666Y-115494571D01*
X111612856Y-115518381D01*
X111565237Y-115542190D01*
X111422380Y-115542190D01*
X111374761Y-115518381D01*
X111350952Y-115494571D01*
X111969999Y-115042190D02*
X112017618Y-115042190D01*
X112065237Y-115066000D01*
X112089046Y-115089810D01*
X112112856Y-115137429D01*
X112136665Y-115232667D01*
X112136665Y-115351714D01*
X112112856Y-115446952D01*
X112089046Y-115494571D01*
X112065237Y-115518381D01*
X112017618Y-115542190D01*
X111969999Y-115542190D01*
X111922380Y-115518381D01*
X111898570Y-115494571D01*
X111874761Y-115446952D01*
X111850951Y-115351714D01*
X111850951Y-115232667D01*
X111874761Y-115137429D01*
X111898570Y-115089810D01*
X111922380Y-115066000D01*
X111969999Y-115042190D01*
X112350951Y-115280286D02*
X112517617Y-115280286D01*
X112589046Y-115542190D02*
X112350951Y-115542190D01*
X112350951Y-115042190D01*
X112589046Y-115042190D01*
X112803332Y-115542190D02*
X112803332Y-115042190D01*
X112993808Y-115042190D01*
X113041427Y-115066000D01*
X113065236Y-115089810D01*
X113089046Y-115137429D01*
X113089046Y-115208857D01*
X113065236Y-115256476D01*
X113041427Y-115280286D01*
X112993808Y-115304095D01*
X112803332Y-115304095D01*
D12*
X117308334Y-144597381D02*
X116975000Y-144121190D01*
X116736905Y-144597381D02*
X116736905Y-143597381D01*
X117117858Y-143597381D01*
X117213096Y-143645000D01*
X117260715Y-143692619D01*
X117308334Y-143787857D01*
X117308334Y-143930714D01*
X117260715Y-144025952D01*
X117213096Y-144073571D01*
X117117858Y-144121190D01*
X116736905Y-144121190D01*
X117641667Y-143597381D02*
X118260715Y-143597381D01*
X117927381Y-143978333D01*
X118070239Y-143978333D01*
X118165477Y-144025952D01*
X118213096Y-144073571D01*
X118260715Y-144168810D01*
X118260715Y-144406905D01*
X118213096Y-144502143D01*
X118165477Y-144549762D01*
X118070239Y-144597381D01*
X117784524Y-144597381D01*
X117689286Y-144549762D01*
X117641667Y-144502143D01*
D10*
X114153239Y-141966190D02*
X114486572Y-141966190D01*
X114272286Y-142466190D01*
X114653238Y-142013810D02*
X114677048Y-141990000D01*
X114724667Y-141966190D01*
X114843714Y-141966190D01*
X114891333Y-141990000D01*
X114915143Y-142013810D01*
X114938952Y-142061429D01*
X114938952Y-142109048D01*
X114915143Y-142180476D01*
X114629429Y-142466190D01*
X114938952Y-142466190D01*
X115153238Y-142466190D02*
X115153238Y-141966190D01*
X115438952Y-142466190D02*
X115224666Y-142180476D01*
X115438952Y-141966190D02*
X115153238Y-142251905D01*
D12*
X116673334Y-129357381D02*
X116340000Y-128881190D01*
X116101905Y-129357381D02*
X116101905Y-128357381D01*
X116482858Y-128357381D01*
X116578096Y-128405000D01*
X116625715Y-128452619D01*
X116673334Y-128547857D01*
X116673334Y-128690714D01*
X116625715Y-128785952D01*
X116578096Y-128833571D01*
X116482858Y-128881190D01*
X116101905Y-128881190D01*
X117530477Y-128690714D02*
X117530477Y-129357381D01*
X117292381Y-128309762D02*
X117054286Y-129024048D01*
X117673334Y-129024048D01*
D10*
X114153239Y-126726190D02*
X114486572Y-126726190D01*
X114272286Y-127226190D01*
X114653238Y-126773810D02*
X114677048Y-126750000D01*
X114724667Y-126726190D01*
X114843714Y-126726190D01*
X114891333Y-126750000D01*
X114915143Y-126773810D01*
X114938952Y-126821429D01*
X114938952Y-126869048D01*
X114915143Y-126940476D01*
X114629429Y-127226190D01*
X114938952Y-127226190D01*
X115153238Y-127226190D02*
X115153238Y-126726190D01*
X115438952Y-127226190D02*
X115224666Y-126940476D01*
X115438952Y-126726190D02*
X115153238Y-127011905D01*
D12*
X116673334Y-114117381D02*
X116340000Y-113641190D01*
X116101905Y-114117381D02*
X116101905Y-113117381D01*
X116482858Y-113117381D01*
X116578096Y-113165000D01*
X116625715Y-113212619D01*
X116673334Y-113307857D01*
X116673334Y-113450714D01*
X116625715Y-113545952D01*
X116578096Y-113593571D01*
X116482858Y-113641190D01*
X116101905Y-113641190D01*
X117578096Y-113117381D02*
X117101905Y-113117381D01*
X117054286Y-113593571D01*
X117101905Y-113545952D01*
X117197143Y-113498333D01*
X117435239Y-113498333D01*
X117530477Y-113545952D01*
X117578096Y-113593571D01*
X117625715Y-113688810D01*
X117625715Y-113926905D01*
X117578096Y-114022143D01*
X117530477Y-114069762D01*
X117435239Y-114117381D01*
X117197143Y-114117381D01*
X117101905Y-114069762D01*
X117054286Y-114022143D01*
D10*
X114153239Y-111486190D02*
X114486572Y-111486190D01*
X114272286Y-111986190D01*
X114653238Y-111533810D02*
X114677048Y-111510000D01*
X114724667Y-111486190D01*
X114843714Y-111486190D01*
X114891333Y-111510000D01*
X114915143Y-111533810D01*
X114938952Y-111581429D01*
X114938952Y-111629048D01*
X114915143Y-111700476D01*
X114629429Y-111986190D01*
X114938952Y-111986190D01*
X115153238Y-111986190D02*
X115153238Y-111486190D01*
X115438952Y-111986190D02*
X115224666Y-111700476D01*
X115438952Y-111486190D02*
X115153238Y-111771905D01*
D12*
X114133334Y-133167381D02*
X113800000Y-132691190D01*
X113561905Y-133167381D02*
X113561905Y-132167381D01*
X113942858Y-132167381D01*
X114038096Y-132215000D01*
X114085715Y-132262619D01*
X114133334Y-132357857D01*
X114133334Y-132500714D01*
X114085715Y-132595952D01*
X114038096Y-132643571D01*
X113942858Y-132691190D01*
X113561905Y-132691190D01*
X114990477Y-132167381D02*
X114800000Y-132167381D01*
X114704762Y-132215000D01*
X114657143Y-132262619D01*
X114561905Y-132405476D01*
X114514286Y-132595952D01*
X114514286Y-132976905D01*
X114561905Y-133072143D01*
X114609524Y-133119762D01*
X114704762Y-133167381D01*
X114895239Y-133167381D01*
X114990477Y-133119762D01*
X115038096Y-133072143D01*
X115085715Y-132976905D01*
X115085715Y-132738810D01*
X115038096Y-132643571D01*
X114990477Y-132595952D01*
X114895239Y-132548333D01*
X114704762Y-132548333D01*
X114609524Y-132595952D01*
X114561905Y-132643571D01*
X114514286Y-132738810D01*
D10*
X113680954Y-134346190D02*
X113728573Y-134346190D01*
X113776192Y-134370000D01*
X113800001Y-134393810D01*
X113823811Y-134441429D01*
X113847620Y-134536667D01*
X113847620Y-134655714D01*
X113823811Y-134750952D01*
X113800001Y-134798571D01*
X113776192Y-134822381D01*
X113728573Y-134846190D01*
X113680954Y-134846190D01*
X113633335Y-134822381D01*
X113609525Y-134798571D01*
X113585716Y-134750952D01*
X113561906Y-134655714D01*
X113561906Y-134536667D01*
X113585716Y-134441429D01*
X113609525Y-134393810D01*
X113633335Y-134370000D01*
X113680954Y-134346190D01*
X114061906Y-134798571D02*
X114085715Y-134822381D01*
X114061906Y-134846190D01*
X114038096Y-134822381D01*
X114061906Y-134798571D01*
X114061906Y-134846190D01*
X114514286Y-134512857D02*
X114514286Y-134846190D01*
X114395239Y-134322381D02*
X114276191Y-134679524D01*
X114585715Y-134679524D01*
X114728572Y-134346190D02*
X115038095Y-134346190D01*
X114871429Y-134536667D01*
X114942857Y-134536667D01*
X114990476Y-134560476D01*
X115014286Y-134584286D01*
X115038095Y-134631905D01*
X115038095Y-134750952D01*
X115014286Y-134798571D01*
X114990476Y-134822381D01*
X114942857Y-134846190D01*
X114800000Y-134846190D01*
X114752381Y-134822381D01*
X114728572Y-134798571D01*
D12*
X114133334Y-117927381D02*
X113800000Y-117451190D01*
X113561905Y-117927381D02*
X113561905Y-116927381D01*
X113942858Y-116927381D01*
X114038096Y-116975000D01*
X114085715Y-117022619D01*
X114133334Y-117117857D01*
X114133334Y-117260714D01*
X114085715Y-117355952D01*
X114038096Y-117403571D01*
X113942858Y-117451190D01*
X113561905Y-117451190D01*
X114466667Y-116927381D02*
X115133334Y-116927381D01*
X114704762Y-117927381D01*
D10*
X113680954Y-119106190D02*
X113728573Y-119106190D01*
X113776192Y-119130000D01*
X113800001Y-119153810D01*
X113823811Y-119201429D01*
X113847620Y-119296667D01*
X113847620Y-119415714D01*
X113823811Y-119510952D01*
X113800001Y-119558571D01*
X113776192Y-119582381D01*
X113728573Y-119606190D01*
X113680954Y-119606190D01*
X113633335Y-119582381D01*
X113609525Y-119558571D01*
X113585716Y-119510952D01*
X113561906Y-119415714D01*
X113561906Y-119296667D01*
X113585716Y-119201429D01*
X113609525Y-119153810D01*
X113633335Y-119130000D01*
X113680954Y-119106190D01*
X114061906Y-119558571D02*
X114085715Y-119582381D01*
X114061906Y-119606190D01*
X114038096Y-119582381D01*
X114061906Y-119558571D01*
X114061906Y-119606190D01*
X114514286Y-119272857D02*
X114514286Y-119606190D01*
X114395239Y-119082381D02*
X114276191Y-119439524D01*
X114585715Y-119439524D01*
X114728572Y-119106190D02*
X115038095Y-119106190D01*
X114871429Y-119296667D01*
X114942857Y-119296667D01*
X114990476Y-119320476D01*
X115014286Y-119344286D01*
X115038095Y-119391905D01*
X115038095Y-119510952D01*
X115014286Y-119558571D01*
X114990476Y-119582381D01*
X114942857Y-119606190D01*
X114800000Y-119606190D01*
X114752381Y-119582381D01*
X114728572Y-119558571D01*
D12*
X114133334Y-102687381D02*
X113800000Y-102211190D01*
X113561905Y-102687381D02*
X113561905Y-101687381D01*
X113942858Y-101687381D01*
X114038096Y-101735000D01*
X114085715Y-101782619D01*
X114133334Y-101877857D01*
X114133334Y-102020714D01*
X114085715Y-102115952D01*
X114038096Y-102163571D01*
X113942858Y-102211190D01*
X113561905Y-102211190D01*
X114704762Y-102115952D02*
X114609524Y-102068333D01*
X114561905Y-102020714D01*
X114514286Y-101925476D01*
X114514286Y-101877857D01*
X114561905Y-101782619D01*
X114609524Y-101735000D01*
X114704762Y-101687381D01*
X114895239Y-101687381D01*
X114990477Y-101735000D01*
X115038096Y-101782619D01*
X115085715Y-101877857D01*
X115085715Y-101925476D01*
X115038096Y-102020714D01*
X114990477Y-102068333D01*
X114895239Y-102115952D01*
X114704762Y-102115952D01*
X114609524Y-102163571D01*
X114561905Y-102211190D01*
X114514286Y-102306429D01*
X114514286Y-102496905D01*
X114561905Y-102592143D01*
X114609524Y-102639762D01*
X114704762Y-102687381D01*
X114895239Y-102687381D01*
X114990477Y-102639762D01*
X115038096Y-102592143D01*
X115085715Y-102496905D01*
X115085715Y-102306429D01*
X115038096Y-102211190D01*
X114990477Y-102163571D01*
X114895239Y-102115952D01*
D10*
X113680954Y-103866190D02*
X113728573Y-103866190D01*
X113776192Y-103890000D01*
X113800001Y-103913810D01*
X113823811Y-103961429D01*
X113847620Y-104056667D01*
X113847620Y-104175714D01*
X113823811Y-104270952D01*
X113800001Y-104318571D01*
X113776192Y-104342381D01*
X113728573Y-104366190D01*
X113680954Y-104366190D01*
X113633335Y-104342381D01*
X113609525Y-104318571D01*
X113585716Y-104270952D01*
X113561906Y-104175714D01*
X113561906Y-104056667D01*
X113585716Y-103961429D01*
X113609525Y-103913810D01*
X113633335Y-103890000D01*
X113680954Y-103866190D01*
X114061906Y-104318571D02*
X114085715Y-104342381D01*
X114061906Y-104366190D01*
X114038096Y-104342381D01*
X114061906Y-104318571D01*
X114061906Y-104366190D01*
X114514286Y-104032857D02*
X114514286Y-104366190D01*
X114395239Y-103842381D02*
X114276191Y-104199524D01*
X114585715Y-104199524D01*
X114728572Y-103866190D02*
X115038095Y-103866190D01*
X114871429Y-104056667D01*
X114942857Y-104056667D01*
X114990476Y-104080476D01*
X115014286Y-104104286D01*
X115038095Y-104151905D01*
X115038095Y-104270952D01*
X115014286Y-104318571D01*
X114990476Y-104342381D01*
X114942857Y-104366190D01*
X114800000Y-104366190D01*
X114752381Y-104342381D01*
X114728572Y-104318571D01*
D12*
X111506095Y-126396381D02*
X111506095Y-127205905D01*
X111553714Y-127301143D01*
X111601333Y-127348762D01*
X111696571Y-127396381D01*
X111887048Y-127396381D01*
X111982286Y-127348762D01*
X112029905Y-127301143D01*
X112077524Y-127205905D01*
X112077524Y-126396381D01*
X112982286Y-126396381D02*
X112791809Y-126396381D01*
X112696571Y-126444000D01*
X112648952Y-126491619D01*
X112553714Y-126634476D01*
X112506095Y-126824952D01*
X112506095Y-127205905D01*
X112553714Y-127301143D01*
X112601333Y-127348762D01*
X112696571Y-127396381D01*
X112887048Y-127396381D01*
X112982286Y-127348762D01*
X113029905Y-127301143D01*
X113077524Y-127205905D01*
X113077524Y-126967810D01*
X113029905Y-126872571D01*
X112982286Y-126824952D01*
X112887048Y-126777333D01*
X112696571Y-126777333D01*
X112601333Y-126824952D01*
X112553714Y-126872571D01*
X112506095Y-126967810D01*
X117006667Y-125332857D02*
X117006667Y-124856666D01*
X117292381Y-125428095D02*
X116292381Y-125094762D01*
X117292381Y-124761428D01*
X116292381Y-123999523D02*
X116292381Y-124190000D01*
X116340000Y-124285238D01*
X116387619Y-124332857D01*
X116530476Y-124428095D01*
X116720952Y-124475714D01*
X117101905Y-124475714D01*
X117197143Y-124428095D01*
X117244762Y-124380476D01*
X117292381Y-124285238D01*
X117292381Y-124094761D01*
X117244762Y-123999523D01*
X117197143Y-123951904D01*
X117101905Y-123904285D01*
X116863810Y-123904285D01*
X116768571Y-123951904D01*
X116720952Y-123999523D01*
X116673333Y-124094761D01*
X116673333Y-124285238D01*
X116720952Y-124380476D01*
X116768571Y-124428095D01*
X116863810Y-124475714D01*
X116387619Y-123523333D02*
X116340000Y-123475714D01*
X116292381Y-123380476D01*
X116292381Y-123142380D01*
X116340000Y-123047142D01*
X116387619Y-122999523D01*
X116482857Y-122951904D01*
X116578095Y-122951904D01*
X116720952Y-122999523D01*
X117292381Y-123570952D01*
X117292381Y-122951904D01*
X117292381Y-121999523D02*
X117292381Y-122570952D01*
X117292381Y-122285238D02*
X116292381Y-122285238D01*
X116435238Y-122380476D01*
X116530476Y-122475714D01*
X116578095Y-122570952D01*
X117292381Y-121047142D02*
X117292381Y-121618571D01*
X117292381Y-121332857D02*
X116292381Y-121332857D01*
X116435238Y-121428095D01*
X116530476Y-121523333D01*
X116578095Y-121618571D01*
X111506095Y-111156381D02*
X111506095Y-111965905D01*
X111553714Y-112061143D01*
X111601333Y-112108762D01*
X111696571Y-112156381D01*
X111887048Y-112156381D01*
X111982286Y-112108762D01*
X112029905Y-112061143D01*
X112077524Y-111965905D01*
X112077524Y-111156381D01*
X112458476Y-111156381D02*
X113125143Y-111156381D01*
X112696571Y-112156381D01*
X117006667Y-110092857D02*
X117006667Y-109616666D01*
X117292381Y-110188095D02*
X116292381Y-109854762D01*
X117292381Y-109521428D01*
X116292381Y-108759523D02*
X116292381Y-108950000D01*
X116340000Y-109045238D01*
X116387619Y-109092857D01*
X116530476Y-109188095D01*
X116720952Y-109235714D01*
X117101905Y-109235714D01*
X117197143Y-109188095D01*
X117244762Y-109140476D01*
X117292381Y-109045238D01*
X117292381Y-108854761D01*
X117244762Y-108759523D01*
X117197143Y-108711904D01*
X117101905Y-108664285D01*
X116863810Y-108664285D01*
X116768571Y-108711904D01*
X116720952Y-108759523D01*
X116673333Y-108854761D01*
X116673333Y-109045238D01*
X116720952Y-109140476D01*
X116768571Y-109188095D01*
X116863810Y-109235714D01*
X116387619Y-108283333D02*
X116340000Y-108235714D01*
X116292381Y-108140476D01*
X116292381Y-107902380D01*
X116340000Y-107807142D01*
X116387619Y-107759523D01*
X116482857Y-107711904D01*
X116578095Y-107711904D01*
X116720952Y-107759523D01*
X117292381Y-108330952D01*
X117292381Y-107711904D01*
X117292381Y-106759523D02*
X117292381Y-107330952D01*
X117292381Y-107045238D02*
X116292381Y-107045238D01*
X116435238Y-107140476D01*
X116530476Y-107235714D01*
X116578095Y-107330952D01*
X117292381Y-105807142D02*
X117292381Y-106378571D01*
X117292381Y-106092857D02*
X116292381Y-106092857D01*
X116435238Y-106188095D01*
X116530476Y-106283333D01*
X116578095Y-106378571D01*
X111506095Y-141636381D02*
X111506095Y-142445905D01*
X111553714Y-142541143D01*
X111601333Y-142588762D01*
X111696571Y-142636381D01*
X111887048Y-142636381D01*
X111982286Y-142588762D01*
X112029905Y-142541143D01*
X112077524Y-142445905D01*
X112077524Y-141636381D01*
X113077524Y-142636381D02*
X112506095Y-142636381D01*
X112791809Y-142636381D02*
X112791809Y-141636381D01*
X112696571Y-141779238D01*
X112601333Y-141874476D01*
X112506095Y-141922095D01*
X117006667Y-140572857D02*
X117006667Y-140096666D01*
X117292381Y-140668095D02*
X116292381Y-140334762D01*
X117292381Y-140001428D01*
X116292381Y-139239523D02*
X116292381Y-139430000D01*
X116340000Y-139525238D01*
X116387619Y-139572857D01*
X116530476Y-139668095D01*
X116720952Y-139715714D01*
X117101905Y-139715714D01*
X117197143Y-139668095D01*
X117244762Y-139620476D01*
X117292381Y-139525238D01*
X117292381Y-139334761D01*
X117244762Y-139239523D01*
X117197143Y-139191904D01*
X117101905Y-139144285D01*
X116863810Y-139144285D01*
X116768571Y-139191904D01*
X116720952Y-139239523D01*
X116673333Y-139334761D01*
X116673333Y-139525238D01*
X116720952Y-139620476D01*
X116768571Y-139668095D01*
X116863810Y-139715714D01*
X116387619Y-138763333D02*
X116340000Y-138715714D01*
X116292381Y-138620476D01*
X116292381Y-138382380D01*
X116340000Y-138287142D01*
X116387619Y-138239523D01*
X116482857Y-138191904D01*
X116578095Y-138191904D01*
X116720952Y-138239523D01*
X117292381Y-138810952D01*
X117292381Y-138191904D01*
X117292381Y-137239523D02*
X117292381Y-137810952D01*
X117292381Y-137525238D02*
X116292381Y-137525238D01*
X116435238Y-137620476D01*
X116530476Y-137715714D01*
X116578095Y-137810952D01*
X117292381Y-136287142D02*
X117292381Y-136858571D01*
X117292381Y-136572857D02*
X116292381Y-136572857D01*
X116435238Y-136668095D01*
X116530476Y-136763333D01*
X116578095Y-136858571D01*
X105227381Y-142406666D02*
X105227381Y-142882857D01*
X104227381Y-142882857D01*
X105227381Y-141549523D02*
X105227381Y-142120952D01*
X105227381Y-141835238D02*
X104227381Y-141835238D01*
X104370238Y-141930476D01*
X104465476Y-142025714D01*
X104513095Y-142120952D01*
D10*
X105937857Y-143513809D02*
X106271190Y-143513809D01*
X105747381Y-143632856D02*
X106104524Y-143751904D01*
X106104524Y-143442380D01*
X105771190Y-143299523D02*
X105771190Y-142966190D01*
X106271190Y-143180476D01*
X105937857Y-142561429D02*
X106271190Y-142561429D01*
X105937857Y-142775714D02*
X106199762Y-142775714D01*
X106247381Y-142751905D01*
X106271190Y-142704286D01*
X106271190Y-142632857D01*
X106247381Y-142585238D01*
X106223571Y-142561429D01*
X106271190Y-142323333D02*
X105771190Y-142323333D01*
X106009286Y-142323333D02*
X106009286Y-142037619D01*
X106271190Y-142037619D02*
X105771190Y-142037619D01*
X106271190Y-141156667D02*
X106271190Y-141442381D01*
X106271190Y-141299524D02*
X105771190Y-141299524D01*
X105842619Y-141347143D01*
X105890238Y-141394762D01*
X105914048Y-141442381D01*
X106128333Y-140966191D02*
X106128333Y-140728096D01*
X106271190Y-141013810D02*
X105771190Y-140847143D01*
X106271190Y-140680477D01*
D12*
X105227381Y-127166666D02*
X105227381Y-127642857D01*
X104227381Y-127642857D01*
X104322619Y-126880952D02*
X104275000Y-126833333D01*
X104227381Y-126738095D01*
X104227381Y-126499999D01*
X104275000Y-126404761D01*
X104322619Y-126357142D01*
X104417857Y-126309523D01*
X104513095Y-126309523D01*
X104655952Y-126357142D01*
X105227381Y-126928571D01*
X105227381Y-126309523D01*
D10*
X105937857Y-128273809D02*
X106271190Y-128273809D01*
X105747381Y-128392856D02*
X106104524Y-128511904D01*
X106104524Y-128202380D01*
X105771190Y-128059523D02*
X105771190Y-127726190D01*
X106271190Y-127940476D01*
X105937857Y-127321429D02*
X106271190Y-127321429D01*
X105937857Y-127535714D02*
X106199762Y-127535714D01*
X106247381Y-127511905D01*
X106271190Y-127464286D01*
X106271190Y-127392857D01*
X106247381Y-127345238D01*
X106223571Y-127321429D01*
X106271190Y-127083333D02*
X105771190Y-127083333D01*
X106009286Y-127083333D02*
X106009286Y-126797619D01*
X106271190Y-126797619D02*
X105771190Y-126797619D01*
X106271190Y-125916667D02*
X106271190Y-126202381D01*
X106271190Y-126059524D02*
X105771190Y-126059524D01*
X105842619Y-126107143D01*
X105890238Y-126154762D01*
X105914048Y-126202381D01*
X106128333Y-125726191D02*
X106128333Y-125488096D01*
X106271190Y-125773810D02*
X105771190Y-125607143D01*
X106271190Y-125440477D01*
D12*
X105227381Y-111926666D02*
X105227381Y-112402857D01*
X104227381Y-112402857D01*
X104227381Y-111688571D02*
X104227381Y-111069523D01*
X104608333Y-111402857D01*
X104608333Y-111259999D01*
X104655952Y-111164761D01*
X104703571Y-111117142D01*
X104798810Y-111069523D01*
X105036905Y-111069523D01*
X105132143Y-111117142D01*
X105179762Y-111164761D01*
X105227381Y-111259999D01*
X105227381Y-111545714D01*
X105179762Y-111640952D01*
X105132143Y-111688571D01*
D10*
X105937857Y-113033809D02*
X106271190Y-113033809D01*
X105747381Y-113152856D02*
X106104524Y-113271904D01*
X106104524Y-112962380D01*
X105771190Y-112819523D02*
X105771190Y-112486190D01*
X106271190Y-112700476D01*
X105937857Y-112081429D02*
X106271190Y-112081429D01*
X105937857Y-112295714D02*
X106199762Y-112295714D01*
X106247381Y-112271905D01*
X106271190Y-112224286D01*
X106271190Y-112152857D01*
X106247381Y-112105238D01*
X106223571Y-112081429D01*
X106271190Y-111843333D02*
X105771190Y-111843333D01*
X106009286Y-111843333D02*
X106009286Y-111557619D01*
X106271190Y-111557619D02*
X105771190Y-111557619D01*
X106271190Y-110676667D02*
X106271190Y-110962381D01*
X106271190Y-110819524D02*
X105771190Y-110819524D01*
X105842619Y-110867143D01*
X105890238Y-110914762D01*
X105914048Y-110962381D01*
X106128333Y-110486191D02*
X106128333Y-110248096D01*
X106271190Y-110533810D02*
X105771190Y-110367143D01*
X106271190Y-110200477D01*
M02*
